<?xml version="1.0" standalone="no"?>
<!DOCTYPE svg PUBLIC "-//W3C//DTD SVG 1.1//EN" "http://www.w3.org/Graphics/SVG/1.1/DTD/svg11.dtd" >
<svg xmlns="http://www.w3.org/2000/svg" xmlns:xlink="http://www.w3.org/1999/xlink" version="1.1">
<metadata></metadata>
<defs>
<font id="sairabold" horiz-adv-x="1206" >
<font-face units-per-em="2048" ascent="1638" descent="-410" />
<missing-glyph horiz-adv-x="514" />
<glyph unicode="&#xfb01;" horiz-adv-x="1441" d="M41 797v247h190v72q0 60 2.5 106.5t12.5 86t19.5 67.5t33 51t43 37.5t59.5 25.5t73 16.5t93 9t109.5 4t132.5 0.5v-226q-62 0 -97 -1t-66.5 -6.5t-45.5 -12.5t-24.5 -24t-12.5 -36.5t-2 -52.5v-117h248v-247h-248v-797h-330v797h-190zM983 1255v267h336v-267h-336zM985 0 v1044h332v-1044h-332z" />
<glyph unicode="&#xfb02;" horiz-adv-x="1400" d="M41 797v247h190v72q0 60 2.5 106.5t12.5 86t19.5 67.5t33 51t43 37.5t59.5 25.5t73 16.5t93 9t109.5 4t132.5 0.5v-226q-62 0 -97 -1t-66.5 -6.5t-45.5 -12.5t-24.5 -24t-12.5 -36.5t-2 -52.5v-117h248v-247h-248v-797h-330v797h-190zM944 0v1522h332v-1522h-332z" />
<glyph horiz-adv-x="0" />
<glyph horiz-adv-x="682" />
<glyph unicode="&#xd;" horiz-adv-x="1228" />
<glyph unicode=" "  horiz-adv-x="514" />
<glyph unicode="&#x09;" horiz-adv-x="514" />
<glyph unicode="&#xa0;" horiz-adv-x="514" />
<glyph unicode="!" horiz-adv-x="671" d="M162 1319v90h379v-90q0 -90 -25 -392.5t-43 -451.5h-244q-18 148 -42.5 451t-24.5 393zM176 0v297h350v-297h-350z" />
<glyph unicode="&#x22;" horiz-adv-x="966" d="M133 1292v117h291v-117l-35 -413h-221zM541 1292v117h293v-117l-35 -413h-224z" />
<glyph unicode="#" horiz-adv-x="1480" d="M106 360v203h226l63 279h-213v202h260l84 365h219l-86 -365h261l84 365h217l-84 -365h182v-202h-229l-64 -279h217v-203h-262l-82 -360h-219l82 360h-258l-82 -360h-217l82 360h-181zM551 563h258l63 279h-258z" />
<glyph unicode="$" horiz-adv-x="1097" d="M106 936q0 160 79 234t247 92v163h240v-161q122 -5 260 -31v-238q-211 19 -309 19q-130 0 -166.5 -13.5t-36.5 -68.5q0 -52 13.5 -64.5t78.5 -19.5l229 -29q67 -9 108.5 -25t76 -51.5t49 -97t14.5 -156.5q0 -179 -68.5 -255t-248.5 -93v-157h-240v155q-140 9 -293 31v238 q217 -17 332 -17q99 0 142 8.5t54 25t11 56.5q0 50 -15 62.5t-83 21.5l-205 27q-86 11 -141 39t-82.5 75.5t-36.5 99.5t-9 130z" />
<glyph unicode="%" horiz-adv-x="1789" d="M100 1030q0 67 1.5 111t7 88t14 70t25.5 50.5t38.5 37t54.5 22.5t72.5 13t94.5 3q73 0 121 -5.5t84 -25t55 -44t30 -74.5t14 -103t3 -143q0 -67 -1.5 -111t-7 -87.5t-14 -69.5t-25 -50.5t-38 -36.5t-54.5 -22t-72.5 -13t-94.5 -3q-73 0 -121 5.5t-84 24.5t-55 43 t-30.5 74t-14.5 103t-3 143zM297 1030q0 -180 14 -211t97 -31q39 0 55 4t31.5 11t18.5 41t5 67.5t2 118.5t-1.5 118.5t-5 68t-19 41.5t-31.5 11.5t-55 4.5q-83 0 -97 -32t-14 -212zM334 0l917 1409h203l-915 -1409h-205zM1073 377q0 90 3 143t14 103t30 74.5t55 44t84 25 t121 5.5t121.5 -6t84.5 -25t55.5 -43.5t31 -74t14.5 -103t3 -143.5t-3 -143.5t-14.5 -102.5t-31 -73.5t-55.5 -43.5t-84.5 -24.5t-121.5 -5.5q-55 0 -94.5 3t-72.5 13t-54.5 22t-38 36.5t-25 50.5t-14 69.5t-7 87.5t-1.5 111zM1270 377q0 -85 1.5 -118.5t5 -67.5t18.5 -41 t31 -11t54 -4q84 0 98.5 31.5t14.5 210.5q0 180 -14.5 212t-98.5 32q-38 0 -54 -4.5t-31 -11.5t-18.5 -41.5t-5 -68t-1.5 -118.5z" />
<glyph unicode="&#x26;" horiz-adv-x="1499" d="M96 377q0 84 16 143.5t50 97.5t78 59.5t110 37.5v8q-125 30 -183 106t-58 226q0 67 15.5 119.5t57.5 101t110.5 80t180 50.5t260.5 19q110 0 251 -13.5t247 -33.5v-237q-226 28 -438 28q-157 0 -228.5 -14.5t-95 -48t-23.5 -107.5q0 -49 5.5 -76t25.5 -49t58.5 -30 t103.5 -8h115v-250h-115q-90 0 -132.5 -15.5t-57.5 -50.5t-15 -108q0 -46 10 -76.5t29.5 -50.5t57.5 -30t84 -13.5t120 -3.5q89 0 174 6v592h545v-250h-215v-557q-242 -45 -504 -45q-163 0 -280 20.5t-186 53t-108.5 85.5t-52 106.5t-12.5 127.5z" />
<glyph unicode="'" horiz-adv-x="557" d="M133 1292v117h291v-117l-35 -413h-221z" />
<glyph unicode="(" horiz-adv-x="722" d="M131 608q0 135 6.5 235t26 184t41 142t65 121.5t84.5 110.5t113 121h215q-97 -128 -129 -184q-78 -138 -102 -357q-17 -149 -17 -373q0 -216 12.5 -356.5t49.5 -242t69 -153t104 -146.5q9 -11 13 -17h-215q-46 50 -70.5 78t-60 70t-53 69t-42.5 68t-36.5 73.5t-27 80 t-22 93.5t-13.5 106.5t-9 127.5t-2 149z" />
<glyph unicode=")" horiz-adv-x="722" d="M41 -307q97 127 129 183q78 138 102 355q17 149 17 377q0 216 -12.5 356t-50 242t-68.5 152.5t-105 147.5q-8 11 -12 16h217q61 -63 97.5 -104.5t76.5 -95t62 -100.5t44 -109.5t32 -134.5t16 -163t6 -207q0 -102 -3.5 -182t-14.5 -150.5t-21.5 -121t-35.5 -104.5 t-43.5 -88.5t-59.5 -86.5t-70 -85.5t-86 -96.5h-217z" />
<glyph unicode="*" horiz-adv-x="919" d="M88 918l244 112l-244 119l86 147l223 -153l-22 266h170l-23 -264l226 151l83 -147l-245 -119l245 -112l-83 -150l-226 154l23 -265h-170l22 265l-223 -154z" />
<glyph unicode="+" horiz-adv-x="1103" d="M143 399v236h289v291h238v-291h291v-236h-291v-290h-238v290h-289z" />
<glyph unicode="," horiz-adv-x="610" d="M115 -170q88 0 114.5 26.5t26.5 110.5v33h-125v297h348v-221q0 -81 -4.5 -133t-18.5 -98t-38 -71t-66 -43.5t-98 -25t-139 -6.5v131z" />
<glyph unicode="-" horiz-adv-x="761" d="M102 451v264h555v-264h-555z" />
<glyph unicode="." horiz-adv-x="610" d="M131 0v297h348v-297h-348z" />
<glyph unicode="/" horiz-adv-x="833" d="M-18 -113l589 1635h279l-592 -1635h-276z" />
<glyph unicode="0" horiz-adv-x="1347" d="M113 705q0 169 4.5 264t24.5 188t53.5 135.5t99.5 78t154 45t225 9.5t225 -9.5t154 -45t99.5 -78t53.5 -135.5t24.5 -188t4.5 -264q0 -126 -2.5 -204.5t-11.5 -161t-24.5 -128t-45 -91.5t-68.5 -67.5t-100 -39.5t-134 -23.5t-175 -5.5t-175 5.5t-134 23.5t-100 39.5 t-68.5 67.5t-45 91.5t-24.5 128t-11.5 161t-2.5 204.5zM467 585.5q0 -43.5 2.5 -95t4 -76.5t9 -56t12.5 -42.5t19.5 -27t26 -19t35.5 -8.5t43.5 -5h54.5h54.5t43.5 5t35.5 8.5t26 19t19.5 27t12.5 42.5t9 56t4 76.5t2.5 95v119.5v119.5t-2.5 95t-4 76t-9 55.5t-12.5 42.5 t-19.5 27t-25.5 19t-35.5 8.5t-43.5 5h-55h-55t-43.5 -5t-35.5 -8.5t-25.5 -19t-19.5 -27t-12.5 -42.5t-9 -55.5t-4 -76t-2.5 -95v-119.5v-119.5z" />
<glyph unicode="1" horiz-adv-x="802" d="M35 942v279l373 188h243v-1409h-354v1053z" />
<glyph unicode="2" horiz-adv-x="1245" d="M109 0v195q0 76 1.5 123t6 100t14.5 85.5t26 67.5t41 58.5t59 46t81 41.5l309 125q88 37 109.5 65.5t21.5 106.5q0 91 -46 115t-195 24q-150 0 -400 -31v258q97 20 236.5 32.5t259.5 12.5q64 0 114 -3.5t104 -13.5t93.5 -27.5t77 -47t60.5 -70t37 -98.5t14 -131 q0 -128 -28.5 -211.5t-77 -127.5t-128.5 -74l-350 -140q-63 -22 -80 -51q-20 -31 -20 -117v-37h684v-276h-1024z" />
<glyph unicode="3" horiz-adv-x="1236" d="M102 27v254q259 -25 418 -25q46 0 71.5 1t56 4t46 9.5t32 17t24 28t12 41t4.5 55.5q0 102 -37.5 134t-148.5 32h-236v270h236q100 0 137 29t37 122q0 32 -3.5 54.5t-10 39.5t-22 27.5t-31.5 17.5t-47 10t-60.5 4t-79.5 1q-188 0 -389 -27v256q90 19 216 31t228 12 q158 0 266 -23.5t171.5 -72t90.5 -115t27 -159.5q0 -150 -59 -226.5t-183 -105.5v-8q87 -20 139.5 -53.5t83.5 -103.5t31 -181q0 -76 -14 -133t-51.5 -108t-100.5 -83t-164 -50.5t-239 -18.5q-103 0 -231 12t-220 31z" />
<glyph unicode="4" horiz-adv-x="1323" d="M70 283v243l479 883h381l-490 -854h305l103 342h237v-342h175v-272h-175v-283h-348v283h-667z" />
<glyph unicode="5" horiz-adv-x="1271" d="M141 27v254q248 -25 412 -25q83 0 130 6.5t76.5 27.5t38.5 54t9 92q0 50 -7.5 80.5t-22.5 51t-48.5 30t-73.5 13t-110 3.5q-200 0 -387 -22v817h903v-276h-596v-265q153 17 258 17t181.5 -18.5t126 -52.5t79.5 -88t41.5 -117t11.5 -148q0 -105 -14.5 -178.5t-51.5 -133 t-102 -94.5t-163 -53t-238 -18q-248 0 -453 43z" />
<glyph unicode="6" horiz-adv-x="1351" d="M113 700q0 334 57 478q56 137 181.5 192t363.5 55q205 0 450 -45v-254q-289 27 -385 27q-55 0 -94.5 -2.5t-73.5 -11t-55.5 -19.5t-39 -32.5t-27 -46.5t-15.5 -65t-8 -83.5t-2 -106.5h14q78 99 314 99q96 0 163.5 -10t125.5 -36.5t92.5 -73t53.5 -120t19 -176.5 q0 -140 -22 -226.5t-83 -147.5t-167 -86t-275 -25q-118 0 -195 7t-145 28.5t-112.5 62t-75.5 104.5q-59 129 -59 514zM471 457q0 -49 4 -82.5t16 -56.5t25 -35.5t41.5 -19t54 -8t72.5 -1.5q61 0 94 3t62 12t41.5 29.5t19 51t6.5 80.5q0 53 -6.5 85t-18.5 53.5t-41 31 t-62.5 13t-94.5 3.5q-74 0 -116.5 -7.5t-64 -29t-27 -47.5t-5.5 -75z" />
<glyph unicode="7" horiz-adv-x="1163" d="M68 1133v276h1024v-252l-498 -1157h-389l514 1133h-651z" />
<glyph unicode="8" horiz-adv-x="1384" d="M111 377q0 86 15.5 145t50 97t78 59t110.5 37v8q-126 28 -184 104.5t-58 227.5q0 94 27.5 160.5t92 115t175.5 71.5t274 23q162 0 273.5 -23t176 -71.5t92.5 -115t28 -160.5q0 -150 -59 -227t-185 -105v-8q67 -16 111 -37t78.5 -58.5t50.5 -97t16 -145.5q0 -77 -15 -135 t-53.5 -108.5t-103.5 -82t-167.5 -49.5t-242.5 -18q-141 0 -244 18t-167.5 49.5t-102.5 82.5t-52.5 108t-14.5 135zM465 416q0 -58 9 -90.5t37.5 -50.5t67 -22.5t113.5 -4.5q49 0 79.5 2t59 8t43.5 17t26.5 30t15.5 45.5t4 65.5q0 40 -3.5 67t-15 47t-26 31.5t-43 18 t-59.5 8.5t-81 2q-61 0 -96 -3.5t-63.5 -12.5t-41.5 -29.5t-19.5 -50.5t-6.5 -78zM477 995q0 -56 7 -85.5t32.5 -47.5t63.5 -23t112 -5q138 0 176.5 28t38.5 133q0 57 -7 87.5t-32.5 49.5t-63.5 24t-112 5t-112.5 -5t-64 -24t-32 -49t-6.5 -88z" />
<glyph unicode="9" horiz-adv-x="1351" d="M104 940q0 140 22 226.5t83 147.5t167 86t275 25q86 0 147 -3.5t119.5 -12.5t98.5 -25.5t75 -43t59 -64t40 -88.5q49 -150 49 -479q0 -373 -76 -514q-62 -116 -185 -163.5t-343 -47.5q-213 0 -451 45v254q289 -27 385 -27q74 0 121.5 4.5t85 21t57 39t32.5 67.5 t16.5 97.5t3.5 137.5h-13q-83 -99 -315 -99q-95 0 -162.5 10t-125.5 36.5t-92.5 73t-53.5 120t-19 176.5zM442 979q0 -53 6.5 -85t19 -53.5t41.5 -31t63.5 -13t95.5 -3.5q59 0 97 6t62 16t35.5 31t15 44t3.5 62q0 42 -4 72.5t-10 53t-20 36.5t-27.5 22.5t-40 12.5t-49 5 t-62.5 1q-50 0 -80 -1.5t-59 -8t-43 -17.5t-25.5 -31.5t-15 -48t-3.5 -69.5z" />
<glyph unicode=":" horiz-adv-x="610" d="M131 0v297h348v-297h-348zM131 748v296h348v-296h-348z" />
<glyph unicode=";" horiz-adv-x="610" d="M115 -170q88 0 114.5 26.5t26.5 110.5v33h-125v297h348v-221q0 -81 -4.5 -133t-18.5 -98t-38 -71t-66 -43.5t-98 -25t-139 -6.5v131zM131 748v296h348v-296h-348z" />
<glyph unicode="&#x3c;" horiz-adv-x="1105" d="M145 397v240l818 307v-239l-539 -187l539 -186v-240z" />
<glyph unicode="=" horiz-adv-x="1103" d="M143 188v236h818v-236h-818zM143 610v238h818v-238h-818z" />
<glyph unicode="&#x3e;" horiz-adv-x="1105" d="M143 92v240l537 186l-537 187v239l818 -307v-240z" />
<glyph unicode="?" horiz-adv-x="1050" d="M74 1130v259q180 36 422 36q87 0 151.5 -9.5t121 -35t92 -68.5t55.5 -110.5t20 -159.5q0 -66 -10 -117.5t-26 -85.5t-42.5 -59.5t-53.5 -40t-65 -28.5l-69 -23q-29 -11 -40 -14.5t-26 -13t-18.5 -16t-8.5 -23t-5.5 -33.5t-0.5 -49v-64h-292v139q0 78 17 126.5t46 72 t80 41.5l65 23q47 16 66 29t28 39.5t9 80.5q0 27 -3.5 46t-9 33t-18.5 22.5t-25 14t-37 8t-45.5 3t-58.5 0.5q-162 0 -319 -23zM252 0v297h348v-297h-348z" />
<glyph unicode="@" horiz-adv-x="1914" d="M150 602q0 156 2.5 245t15.5 188t32.5 147.5t63.5 101.5t97 73t144 40t194.5 24t256.5 4q154 0 257 -4t194 -23.5t144 -39.5t97 -72.5t63.5 -101t33 -147.5t16 -189t2.5 -246q0 -96 -5.5 -165t-13 -118t-27.5 -80t-35.5 -48.5t-52 -25.5t-62.5 -9.5t-80 -1.5h-389l-8 108 h-17q-20 -32 -44.5 -55t-48 -36t-54 -20.5t-56 -9.5t-59.5 -2q-133 0 -196.5 65t-63.5 206q0 160 55.5 215t224.5 55q18 0 252 -6v35q0 27 -1 44.5t-6 33t-9.5 24.5t-18.5 16.5t-26 10.5t-39.5 5t-50.5 2.5t-66 0.5q-105 0 -264 -12v198q185 29 356 29q95 0 163 -9 t114 -30.5t73 -48t41.5 -72.5t18.5 -91t4 -116v-415h133q29 0 42.5 1.5t30.5 11.5t23 28.5t13 56t8.5 90.5t1.5 135q0 109 -0.5 168.5t-4.5 135.5t-10.5 114t-19.5 85.5t-31 70t-46 47t-64 36.5t-84 21q-99 18 -408 18q-277 0 -378 -12q-54 -8 -93.5 -19t-71 -35 t-51.5 -45.5t-34.5 -69.5t-22 -85.5t-11.5 -116t-4.5 -139t-0.5 -174.5q0 -102 0.5 -158t3.5 -129.5t8 -110t15.5 -85.5t24.5 -70.5t37 -50t50 -39.5t66.5 -24.5t84.5 -18.5t105 -8q66 -2 274 -2q286 0 412 8v-129q-138 -6 -414 -6q-153 0 -257 4.5t-194.5 24t-143.5 40 t-97 73.5t-63.5 101.5t-32.5 147.5t-15.5 188t-2.5 244zM819 436q0 -62 21 -80t102 -18q89 0 115 29.5t26 119.5v50h-163q-65 0 -83 -17.5t-18 -83.5z" />
<glyph unicode="A" horiz-adv-x="1415" d="M16 0l451 1409h481l451 -1409h-363l-84 274h-499l-82 -274h-355zM535 557h335l-163 547h-13z" />
<glyph unicode="B" horiz-adv-x="1363" d="M145 0v1409h707q399 0 399 -354q0 -148 -59 -226t-186 -106v-8q137 -30 196.5 -106t59.5 -234q0 -184 -95.5 -279.5t-316.5 -95.5h-705zM496 266h231q109 0 144.5 31t35.5 129t-36.5 131t-143.5 33h-231v-324zM496 836h225q105 0 141.5 31t36.5 120q0 96 -33.5 125 t-144.5 29h-225v-305z" />
<glyph unicode="C" horiz-adv-x="1159" d="M113 705q0 113 4 193.5t15.5 156.5t30 126.5t51 95t75 70t104.5 45t138 26.5t176 7q218 0 356 -36v-254q-193 18 -272 18q-50 0 -84 -1t-67.5 -6.5t-54 -11t-41 -21t-31 -29.5t-20.5 -43.5t-14 -56.5t-7.5 -74.5t-4 -91.5t-0.5 -113q0 -87 1 -138.5t7 -105t13.5 -80.5 t26 -54.5t39 -38t58 -20t77 -11t102.5 -1.5q140 0 280 18v-260q-153 -30 -364 -30q-100 0 -176 7.5t-138 26.5t-104.5 44.5t-74.5 70.5t-51 95t-30.5 126.5t-15.5 157t-4 193.5z" />
<glyph unicode="D" horiz-adv-x="1400" d="M152 0v1409h497q95 0 170 -4.5t136.5 -18.5t107.5 -27.5t81.5 -44t59.5 -56t40.5 -75.5t25.5 -89t13.5 -111t5.5 -127.5t1 -150.5q0 -120 -2 -185.5t-10.5 -149t-25.5 -125t-48.5 -92t-77 -72.5t-113.5 -44.5t-156.5 -29.5t-207.5 -7h-497zM504 283h135h95.5t69.5 8 t53.5 13.5t33 32.5t23.5 48t9.5 77t6.5 102.5v140.5v115t-3.5 90t-4.5 72.5t-12.5 52t-17 39.5t-28 24.5t-35.5 17t-50 6.5t-60.5 4h-77.5h-2h-135v-843z" />
<glyph unicode="E" horiz-adv-x="1259" d="M152 0v1409h995v-283h-643v-274h547v-281h-547v-288h643v-283h-995z" />
<glyph unicode="F" horiz-adv-x="1179" d="M152 0v1409h954v-283h-602v-315h526v-283h-526v-528h-352z" />
<glyph unicode="G" horiz-adv-x="1368" d="M113 705q0 145 10.5 246.5t37.5 186t71.5 136t116.5 87.5t166.5 50t227.5 14q49 0 101 -2.5t97.5 -6.5t87.5 -9t76.5 -10t59 -9t42 -7t18.5 -3v-264q-9 2 -67 8.5t-145 13.5t-141 7q-108 0 -158 -1.5t-106.5 -17.5t-74.5 -38t-37.5 -77t-22 -121t-2.5 -183 q0 -77 1.5 -129.5t7 -101.5t14 -79t24.5 -56.5t36 -40t51.5 -24t67.5 -13.5t87 -3t141 4v293h-194v266h524v-788q-105 -22 -243 -35.5t-245 -13.5q-102 0 -177 6t-141 22t-111 40t-81.5 65.5t-58 93t-36 126.5t-20 162.5t-5.5 205.5z" />
<glyph unicode="H" horiz-adv-x="1452" d="M145 0v1409h355v-555h452v555h355v-1409h-355v559h-452v-559h-355z" />
<glyph unicode="I" horiz-adv-x="645" d="M145 0v1409h355v-1409h-355z" />
<glyph unicode="J" horiz-adv-x="825" d="M47 0v258q47 0 76.5 0.5t61 4.5t48.5 6t35.5 13t26.5 18t17 27.5t11.5 34.5t5.5 47t3 57.5v72.5v870h354v-776q0 -131 -1 -203.5t-14 -151.5t-24 -114t-51.5 -74t-75.5 -50.5t-115.5 -24t-152.5 -14t-205 -1.5z" />
<glyph unicode="K" horiz-adv-x="1402" d="M152 0v1409h354v-551h86l405 551h389l-509 -670l516 -739h-400l-401 578h-86v-578h-354z" />
<glyph unicode="L" horiz-adv-x="1110" d="M152 0v1409h354v-1114h559v-295h-913z" />
<glyph unicode="M" horiz-adv-x="1835" d="M145 0v1409h488l278 -840h15l278 840h486v-1409h-340v918h-15l-303 -918h-241l-302 918h-14v-918h-330z" />
<glyph unicode="N" horiz-adv-x="1460" d="M145 0v1409h365l455 -756h10v756h340v-1409h-332l-489 825h-9v-825h-340z" />
<glyph unicode="O" horiz-adv-x="1445" d="M113 705q0 125 1.5 192.5t10 153.5t24 128t46 93.5t73.5 73t108.5 44t149 29t197.5 6.5t198 -6.5t149.5 -29t108.5 -44t73 -73.5t45.5 -93t24 -128t9.5 -153.5t1.5 -192.5t-1 -192.5t-10 -153.5t-24 -128.5t-45.5 -93.5t-73 -73t-108.5 -44t-149.5 -29.5t-198 -6.5 q-113 0 -197 6.5t-149.5 29t-108.5 44t-73 73.5t-46 93.5t-24.5 128t-10 154t-1.5 192.5zM470 562.5q0 -49.5 6 -105.5t10 -80t20 -51.5t29.5 -34.5t46 -15.5t60 -9t81.5 -0.5h82t60.5 9.5t45.5 15.5t29 35t19.5 51t8.5 80t5 105v143v143t-5 105t-8.5 79.5t-19.5 50.5 t-29 35.5t-45.5 15.5t-60.5 9h-82h-66.5t-53 -5t-43 -8.5t-31.5 -18t-24 -26.5t-15 -41.5t-11 -54.5t-5 -75t-3.5 -92.5t-0.5 -116.5v-142.5z" />
<glyph unicode="P" horiz-adv-x="1329" d="M152 0v1409h665q83 0 148 -11.5t111.5 -31t80.5 -52.5t54.5 -70t32.5 -89t16 -103.5t4 -119.5q0 -64 -3.5 -111.5t-14.5 -100t-30.5 -89.5t-53 -72t-80.5 -56.5t-113.5 -34.5t-151.5 -13h-311v-455h-354zM506 733h166q56 0 91.5 2.5t63.5 11.5t42 21t23 37t11 52.5 t2 74.5q0 40 -2 65t-6.5 48t-16 35.5t-27 23.5t-42.5 15.5t-59 6.5t-80 2h-166v-395z" />
<glyph unicode="Q" horiz-adv-x="1431" d="M113 705q0 100 1 158.5t5.5 132.5t12.5 114.5t24 91.5t38 76t56 55.5t76.5 43.5t101 26.5t128.5 17.5t159 4t159 -4t128.5 -17.5t101.5 -26.5t77 -43.5t56 -56t38 -76t24.5 -91t13 -114.5t5.5 -133t1 -158q0 -286 -27 -423t-118 -202l215 -305v-11h-377l-152 226 q-64 -6 -145 -6q-112 0 -194.5 6.5t-147 28t-107 43t-72.5 72.5t-45.5 93t-24 128t-10 155t-1.5 195zM467 585.5q0 -43.5 3 -94.5t5 -76.5t10.5 -56t15 -42.5t24 -27.5t31 -19t42 -8.5t52 -5h65.5q53 0 80 0.5t59.5 9t45.5 16.5t29.5 35.5t20.5 52.5t9 81t5.5 108t0.5 146 v119.5t-3 94.5t-5 76t-11 56t-15.5 42.5t-24 27.5t-31 18.5t-42.5 8.5t-52 5h-66h-66t-51.5 -5t-42 -8.5t-31 -18.5t-24 -27t-15 -42.5t-10.5 -56t-5 -76.5t-3 -94.5v-119.5v-119.5z" />
<glyph unicode="R" horiz-adv-x="1390" d="M152 0v1409h671q86 0 153.5 -11.5t115.5 -31t82.5 -51.5t55 -67.5t32.5 -85.5t16 -98t4 -112q0 -66 -6.5 -119.5t-25 -114.5t-58.5 -107t-100 -72l219 -539h-373l-188 496h-244v-496h-354zM506 772h184q56 0 91.5 2.5t63.5 11t42 19t23 33t11.5 47t2.5 65.5q0 43 -2 67 t-10.5 47t-22 33t-41.5 18.5t-63.5 10.5t-92.5 2h-186v-356z" />
<glyph unicode="S" horiz-adv-x="1269" d="M94 995q0 81 14.5 145.5t38.5 109t63.5 77t81.5 51.5t101 29.5t113.5 14t126.5 3.5q235 0 471 -43v-264q-268 25 -399 25q-170 0 -216 -25q-25 -12 -31.5 -34.5t-6.5 -69.5q0 -41 2 -59t14.5 -33.5t34 -21t65.5 -11.5l301 -37q91 -13 149.5 -38t96.5 -85q60 -89 60 -280 q0 -89 -13.5 -158.5t-36 -118t-60 -83.5t-76.5 -55t-95.5 -31.5t-107 -15t-119.5 -3.5q-327 0 -531 34v273q262 -25 424 -25q183 0 229 35q19 19 24 43.5t5 69.5q0 75 -19 96t-104 31l-258 32q-86 10 -148 36.5t-99 62t-58.5 88.5t-29 107.5t-7.5 127.5z" />
<glyph unicode="T" horiz-adv-x="1198" d="M33 1114v295h1134v-295h-391v-1114h-354v1114h-389z" />
<glyph unicode="U" horiz-adv-x="1404" d="M137 635v774h355v-850q0 -46 0.5 -73.5t2 -60t4 -49.5t9 -37.5t13.5 -29.5t19.5 -20.5t26.5 -15t35.5 -7.5t44.5 -5t55 -1q33 0 56 0.5t44.5 5t35 8t26.5 15t19.5 20t12.5 30t8.5 37.5t4.5 49.5t2 59.5v74v850h355v-774q0 -85 -1.5 -143.5t-7 -120.5t-14.5 -103t-25 -83 t-37.5 -68t-53.5 -51t-72 -38.5t-93.5 -24.5t-116.5 -15t-143 -4t-143 4t-116.5 15t-93.5 24.5t-72 38.5t-54 51t-38 68t-25 83t-14.5 103t-7 121t-1.5 143z" />
<glyph unicode="V" horiz-adv-x="1349" d="M20 1409h363l289 -1034h14l287 1034h356l-420 -1409h-469z" />
<glyph unicode="W" horiz-adv-x="1990" d="M33 1409h354l211 -1008h10l238 1008h362l240 -1008h12l199 1008h352l-325 -1409h-447l-211 868h-12l-213 -868h-447z" />
<glyph unicode="X" horiz-adv-x="1398" d="M27 0l452 707l-444 702h401l260 -428h19l262 428h387l-442 -694l448 -715h-401l-267 440h-20l-268 -440h-387z" />
<glyph unicode="Y" horiz-adv-x="1296" d="M4 1409h365l278 -592h15l274 592h356l-467 -926v-483h-354v483z" />
<glyph unicode="Z" horiz-adv-x="1265" d="M90 0v270l643 856h-620v283h1063v-260l-652 -866h656v-283h-1090z" />
<glyph unicode="[" horiz-adv-x="776" d="M152 -307v1829h534v-201l-244 -8v-1411l244 -8v-201h-534z" />
<glyph unicode="\" horiz-adv-x="833" d="M-18 1522h278l590 -1635h-277z" />
<glyph unicode="]" horiz-adv-x="776" d="M90 -106l242 8v1411l-242 8v201h535v-1829h-535v201z" />
<glyph unicode="^" horiz-adv-x="888" d="M37 911l289 623h237l287 -623h-234l-172 412l-174 -412h-233z" />
<glyph unicode="_" horiz-adv-x="792" d="M0 -143h793v-236h-793v236z" />
<glyph unicode="`" horiz-adv-x="583" d="M41 1466v11h317l185 -287v-10h-232z" />
<glyph unicode="a" horiz-adv-x="1153" d="M80 297q0 93 14 151.5t51.5 98t100.5 55.5t162 16q102 0 290 -8v39q0 42 -2.5 67.5t-14.5 45t-25.5 29t-47.5 15t-66.5 6.5t-97.5 1q-153 0 -305 -16v231q207 33 410 33q73 0 132 -5.5t105 -14.5t81.5 -26t61 -36t43 -48t28 -57.5t16.5 -70t8 -80t2 -92.5v-631h-313 l-8 123h-17q-27 -45 -63.5 -74t-79.5 -42.5t-80 -18t-86 -4.5q-152 0 -225.5 73.5t-73.5 239.5zM389 328q0 -70 25 -90.5t121 -20.5q108 0 141 57q22 40 22 134v38h-188q-79 0 -100 -20.5t-21 -97.5z" />
<glyph unicode="b" horiz-adv-x="1191" d="M125 0v1522h328v-588h16q48 73 119 100t172 27q126 0 198 -48t107 -165.5t35 -327.5q0 -158 -18.5 -261t-61.5 -164.5t-105 -86t-157 -24.5q-48 0 -87.5 6t-80 20.5t-73 43.5t-54.5 71h-19l-8 -125h-311zM453 522q0 -164 26 -213q15 -32 45.5 -44.5t87.5 -12.5 q41 0 63.5 2t43 13t29 25.5t15 49t8 73t1.5 107.5q0 68 -1.5 106.5t-8 72.5t-15 49t-29 26t-43.5 13t-63 2q-57 0 -87.5 -12.5t-45.5 -43.5q-26 -51 -26 -213z" />
<glyph unicode="c" horiz-adv-x="944" d="M92 522q0 83 3 137.5t13 116.5t28.5 101t51.5 77.5t80.5 59.5t115.5 34t157 13q168 0 313 -33v-231q-114 16 -223 16q-50 0 -82 -4t-56.5 -18t-37.5 -31.5t-21 -54t-10 -76.5t-2 -107q0 -68 2 -109t10.5 -77t21.5 -53.5t38 -31t57 -17t82 -3.5q100 0 229 17v-232 q-144 -32 -317 -32q-64 0 -117.5 5.5t-95.5 18t-75.5 27.5t-58 40t-42 48.5t-29.5 61t-19 69.5t-10.5 80.5t-4.5 88.5t-1 99z" />
<glyph unicode="d" horiz-adv-x="1191" d="M92 520q0 209 35 327t106.5 166t196.5 48q103 0 174 -27t117 -100h16v588h328v-1522h-309l-8 125h-19q-42 -80 -118.5 -110.5t-178.5 -30.5q-95 0 -156.5 24.5t-104.5 85.5t-61 164t-18 262zM420 522q0 -69 1.5 -107.5t8 -73t15 -49t29 -25.5t43 -13t63.5 -2 q63 0 94.5 16t44.5 56q18 55 18 198q0 142 -16 191q-13 44 -45 61t-96 17q-40 0 -63 -2t-43.5 -13t-29 -26t-15 -49t-8 -72.5t-1.5 -106.5z" />
<glyph unicode="e" horiz-adv-x="1136" d="M92 520q0 79 2.5 132.5t10.5 111t22.5 94.5t39.5 74t60.5 58.5t86 39t116 24.5t150.5 7q76 0 135 -6.5t105.5 -16t80 -32.5t57.5 -42t39.5 -60t24 -71t12.5 -89.5t5 -102t1 -121.5v-80h-624q0 -40 1 -63.5t5.5 -48.5t11 -37.5t22 -25.5t33 -18t48.5 -9.5t65 -5.5t86 -1 q138 0 311 17v-230q-146 -34 -389 -34q-122 0 -207.5 11.5t-143.5 43t-91 67t-50 104.5t-21.5 134.5t-4.5 175.5zM416 610h317q0 101 -13.5 146t-43 58t-98.5 13q-45 0 -71.5 -5t-46 -16.5t-28 -38.5t-12 -61.5t-4.5 -95.5z" />
<glyph unicode="f" horiz-adv-x="860" d="M41 797v247h190v72q0 60 2.5 106.5t12.5 86t19.5 67.5t33 51t43 37.5t59.5 25.5t73 16.5t93 9t109.5 4t132.5 0.5v-226q-62 0 -97 -1t-66.5 -6.5t-45.5 -12.5t-24.5 -24t-12.5 -36.5t-2 -52.5v-117h248v-247h-248v-797h-330v797h-190z" />
<glyph unicode="g" horiz-adv-x="1191" d="M92 530q0 126 12.5 215.5t37 151t66 97.5t96 51.5t130.5 15.5q222 0 295 -143h19l8 126h309v-925q0 -62 -1.5 -105.5t-6 -92.5t-13 -82t-22.5 -69.5t-34.5 -60t-49.5 -47t-66.5 -37.5t-86 -25.5t-109 -16.5t-133.5 -5q-231 0 -369 27v227q252 -6 285 -6q53 0 88.5 1t67 7 t49.5 11.5t33.5 20.5t22 29t11 41.5t5.5 53t1 69.5v74h-14q-44 -74 -114.5 -101.5t-172.5 -27.5q-128 0 -200.5 46t-108 160.5t-35.5 319.5zM420 530q0 -66 1.5 -103.5t8 -70t15 -47t29 -25t43.5 -12.5t63 -2q60 0 90 14t45 50q22 47 22 196t-20 195q-15 38 -46.5 53 t-90.5 15q-40 0 -63 -2t-43.5 -13t-29 -25.5t-15 -47.5t-8 -71t-1.5 -104z" />
<glyph unicode="h" d="M125 0v1522h328v-598h18q78 135 293 135q68 0 119 -11t85.5 -36t56.5 -56.5t34 -80.5t16 -99.5t4 -122.5v-653h-327v553q0 61 -1 96t-7.5 65t-14 43t-26.5 22t-38.5 10.5t-56.5 1.5q-43 0 -70.5 -8t-45 -22.5t-25.5 -46.5t-11 -68.5t-3 -100.5v-545h-328z" />
<glyph unicode="i" horiz-adv-x="581" d="M123 1255v267h336v-267h-336zM125 0v1044h332v-1044h-332z" />
<glyph unicode="j" horiz-adv-x="581" d="M-41 -180q78 0 113.5 11.5t44 31t8.5 65.5v1116h332v-1044q0 -73 -4 -125.5t-17 -96t-28.5 -72.5t-47 -50.5t-64 -33.5t-88 -19t-110.5 -9t-139 -2v228zM123 1257v265h336v-265h-336z" />
<glyph unicode="k" horiz-adv-x="1167" d="M125 0v1522h328v-877h63l270 399h349l-351 -499l357 -545h-363l-262 397h-63v-397h-328z" />
<glyph unicode="l" horiz-adv-x="581" d="M125 0v1522h332v-1522h-332z" />
<glyph unicode="m" horiz-adv-x="1771" d="M125 0v1044h311l8 -126h17q81 143 291 143q120 0 184 -34t92 -109h19q81 143 294 143q77 0 131.5 -18t88.5 -49t53 -84t26 -112.5t7 -144.5v-653h-328v553q0 72 -3 111.5t-9 68.5t-23 39.5t-36.5 14.5t-59.5 4q-33 0 -54.5 -4t-37.5 -16.5t-25 -28t-14 -46.5t-6.5 -64 t-1.5 -87v-545h-326v553q0 72 -3 111.5t-9 68.5t-23 39.5t-36.5 14.5t-59.5 4q-39 0 -63.5 -7.5t-40 -22t-23 -46.5t-10 -68.5t-2.5 -101.5v-545h-328z" />
<glyph unicode="n" d="M125 0v1044h311l8 -126h19q80 143 301 143q59 0 104.5 -9t78.5 -25t56.5 -43.5t38.5 -58.5t23 -76t11 -90t3 -106v-653h-327v553q0 61 -1 96t-7.5 65t-14 43t-26.5 22t-38.5 10.5t-56.5 1.5q-43 0 -70.5 -8t-45 -22.5t-25.5 -46.5t-11 -68.5t-3 -100.5v-545h-328z" />
<glyph unicode="o" horiz-adv-x="1167" d="M92 524q0 121 4 188t20 137.5t46.5 103t86.5 61.5t136 38t199 9t198.5 -9t136 -38t86.5 -61.5t46.5 -103t20 -137.5t3.5 -188t-3.5 -188t-20 -138t-46.5 -104t-86 -62.5t-136 -38.5t-199 -9q-71 0 -127 3.5t-103 13t-82 20t-63 32.5t-46.5 42.5t-32 56.5t-20.5 68.5 t-11.5 85.5t-5.5 100t-1 118zM420 524q0 -206 22 -249.5t142 -43.5t142 43.5t22 249.5q0 204 -22 246.5t-142 42.5t-142 -42.5t-22 -246.5z" />
<glyph unicode="p" horiz-adv-x="1191" d="M125 -408v1452h311l8 -126h19q73 143 295 143q95 0 157 -24.5t105 -86t61.5 -164.5t18.5 -262q0 -209 -35 -326.5t-107 -165.5t-198 -48q-101 0 -172 27t-117 100h-18v-519h-328zM453 522q0 -152 18 -198q15 -39 47.5 -54.5t93.5 -15.5q41 0 63.5 2t43 12.5t29 25 t15.5 48.5t8 72.5t1 107.5t-1.5 107.5t-8 73t-15 49.5t-29 26t-43.5 13t-63 2q-60 0 -92 -16t-47 -54q-20 -50 -20 -201z" />
<glyph unicode="q" horiz-adv-x="1191" d="M92 522q0 210 35 327.5t107 164.5t198 47q104 0 179.5 -30.5t117.5 -112.5h19l8 126h309v-1452h-328v519h-14q-48 -73 -119 -100t-174 -27q-125 0 -196.5 47.5t-106.5 164.5t-35 326zM420 522q0 -69 1 -107.5t8 -72.5t15.5 -48.5t29 -25t43 -12.5t63.5 -2q61 0 92.5 15.5 t46.5 54.5q18 42 18 198q0 90 -4 137t-20 76q-17 32 -47 45t-86 13q-40 0 -63 -2t-43.5 -13t-29 -26t-15 -49.5t-8 -73t-1.5 -107.5z" />
<glyph unicode="r" horiz-adv-x="835" d="M125 0v1044h311l8 -178h19q41 111 117.5 153t207.5 42v-301q-194 0 -264.5 -76.5t-70.5 -288.5v-395h-328z" />
<glyph unicode="s" horiz-adv-x="1017" d="M78 743q0 83 22 142t57.5 93t95 53t117.5 24.5t142 5.5q204 0 371 -31v-229q-187 18 -301 18q-127 0 -163 -13t-36 -67q0 -45 15 -58t79 -19l244 -31q46 -6 76 -15t59.5 -29.5t46.5 -53t27 -86t10 -128.5q0 -64 -10.5 -114t-28.5 -85t-47.5 -60t-61 -39.5t-77 -23 t-87 -11t-98.5 -2.5q-221 0 -419 28v230q183 -17 323 -17q95 0 137.5 8.5t53 24t10.5 53.5q0 47 -17 60t-90 22l-243 31q-52 7 -89 25t-60 43.5t-36 65t-17.5 82.5t-4.5 103z" />
<glyph unicode="t" horiz-adv-x="829" d="M41 797v247h188v304h332v-304h225v-247h-225v-797h-332v797h-188z" />
<glyph unicode="u" d="M125 391v653h328v-552q0 -61 1 -96.5t7.5 -65t14.5 -42.5t27 -22t38.5 -10.5t56.5 -1.5q43 0 70 8t44.5 22.5t25.5 46.5t11 69t3 100v544h327v-1044h-311l-8 127h-17q-82 -143 -301 -143q-82 0 -139 18t-92 48.5t-54 84t-25.5 112t-6.5 144.5z" />
<glyph unicode="v" horiz-adv-x="1120" d="M27 1044h333l195 -751h20l189 751h328l-312 -1044h-440z" />
<glyph unicode="w" horiz-adv-x="1718" d="M37 1044h325l148 -716h20l181 716h301l186 -716h19l145 716h317l-266 -1044h-399l-146 549h-20l-143 -549h-402z" />
<glyph unicode="x" horiz-adv-x="1157" d="M25 0l348 530l-336 514h360l185 -299h12l182 299h340l-334 -512l351 -532h-361l-199 317h-14l-192 -317h-342z" />
<glyph unicode="y" d="M125 410v634h328v-534q0 -61 1 -96.5t7.5 -65t14.5 -42.5t27 -22t38.5 -10.5t56.5 -1.5q43 0 70 8t44.5 22.5t25.5 46.5t11 69t3 100v526h327v-927q0 -62 -1.5 -105.5t-6 -92t-12.5 -82t-22 -69.5t-34.5 -59.5t-49 -47t-65.5 -37.5t-85 -25t-107 -16t-131 -5 q-208 0 -362 25v227q250 -4 282 -4q68 0 109.5 2.5t74 13.5t47 23t24 43t11 60t1.5 87v84h-17q-79 -135 -293 -135q-82 0 -139 17.5t-92 48.5t-54 84t-25.5 111.5t-6.5 144.5z" />
<glyph unicode="z" horiz-adv-x="1073" d="M88 0v233l477 564h-452v247h866v-233l-477 -563h481v-248h-895z" />
<glyph unicode="{" horiz-adv-x="743" d="M47 537v139q54 4 90.5 24.5t54 54.5t24.5 68.5t7 79.5v230q0 74 30.5 144t75.5 118.5t85.5 80t72.5 46.5h215q-25 -25 -49.5 -54t-59 -79t-56 -109.5t-21.5 -116.5v-250q0 -252 -244 -299v-14q244 -47 244 -299v-250q0 -46 15.5 -96t36.5 -87.5t50 -76.5t47 -59t37 -39 h-215q-32 14 -73 46t-86 80.5t-75 118.5t-30 144v229q0 45 -7 79.5t-24.5 68t-54 54t-90.5 24.5z" />
<glyph unicode="|" horiz-adv-x="604" d="M162 -330v1852h282v-1852h-282z" />
<glyph unicode="}" horiz-adv-x="743" d="M39 -307q25 24 50.5 54t60 78.5t56 108.5t21.5 117v250q0 253 244 299v14q-244 46 -244 299v250q0 57 -21.5 117t-56 109t-60 79t-50.5 54h217q32 -15 72.5 -46.5t85.5 -80t75.5 -118.5t30.5 -144v-230q0 -45 6.5 -79.5t24 -68.5t54.5 -54.5t91 -24.5v-139 q-54 -4 -91 -24.5t-54.5 -54t-24 -68t-6.5 -79.5v-229q0 -74 -30.5 -144t-75.5 -118.5t-85.5 -80t-72.5 -46.5h-217z" />
<glyph unicode="~" horiz-adv-x="1015" d="M109 465q0 48 0.5 74.5t4.5 62.5t11 55t20.5 40.5t33.5 32t49.5 17.5t68.5 7q71 0 242 -37q122 -29 153 -29q36 0 43.5 17t7.5 73h164q0 -47 -1 -74.5t-4.5 -63t-11 -55t-21 -41t-33.5 -32.5t-49 -18t-68 -7q-79 0 -244 39q-118 29 -151 29q-36 0 -44 -17t-8 -73h-163z " />
<glyph unicode="&#xa1;" horiz-adv-x="641" d="M129 -274q0 84 24.5 374.5t43.5 468.5h243q18 -150 43 -451.5t25 -391.5v-91h-379v91zM145 748v296h349v-296h-349z" />
<glyph unicode="&#xa2;" horiz-adv-x="954" d="M102 700q0 83 5.5 148t19 128t38 109.5t61 84.5t89 61t121.5 31v163h238v-163q67 -5 178 -31v-240q-99 15 -213 15q-47 0 -77.5 -4t-55 -18t-37 -33t-20.5 -56.5t-10.5 -81t-2.5 -113.5t2.5 -114.5t11.5 -81.5t21.5 -56t37.5 -32t55 -17t77 -4q89 0 219 17v-240 q-102 -27 -186 -31v-157h-238v159q-82 9 -140 37t-96 72t-59.5 112t-30 147.5t-8.5 188.5z" />
<glyph unicode="&#xa3;" horiz-adv-x="1228" d="M88 0v272h152v322h-152v260h154q0 166 23.5 269.5t86 174t168.5 99t275 28.5q194 0 327 -34v-256q-151 18 -241 18q-87 0 -137.5 -7.5t-77.5 -29.5q-41 -28 -55.5 -87t-14.5 -175h373v-260h-373v-322h549v-272h-1057z" />
<glyph unicode="&#xa4;" horiz-adv-x="1386" d="M92 166l152 149q-27 59 -35 148.5t-8 243.5q0 152 7.5 240t33.5 147l-150 149l168 168l172 -172q98 23 260 23q167 0 262 -23l174 174l168 -168l-151 -151q25 -60 33 -149.5t8 -237.5q0 -150 -8.5 -240.5t-34.5 -149.5l153 -151l-170 -170l-174 174q-95 -23 -260 -23 q-152 0 -260 23l-172 -172zM528 707q0 -219 22 -265.5t142 -46.5t143 47t23 265v78t-1.5 62t-3 51.5t-6.5 38t-10.5 30.5t-15.5 20t-20.5 14.5t-28 7t-35.5 5t-45 0.5q-120 0 -142 -44.5t-22 -262.5z" />
<glyph unicode="&#xa5;" horiz-adv-x="1286" d="M41 1409h354l244 -590h14l244 590h346l-235 -496h176v-172h-258l-72 -139h330v-172h-367v-430h-354v430h-365v172h330l-74 139h-256v172h176z" />
<glyph unicode="&#xa6;" horiz-adv-x="604" d="M162 -330v723h282v-723h-282zM162 799v723h282v-723h-282z" />
<glyph unicode="&#xa7;" horiz-adv-x="1406" d="M84 559q0 164 42 246.5t161 107.5q-21 55 -21 172q0 85 23.5 146.5t63 98.5t102 58.5t128.5 29t154 7.5q138 0 251 -11.5t149 -20.5v-248q-111 12 -332 12q-140 0 -177.5 -13t-37.5 -67q0 -49 15.5 -63.5t90.5 -38.5l357 -107q44 -13 71.5 -23t59 -25t50 -32.5 t37.5 -42.5t28.5 -57.5t15.5 -75.5t6 -98q0 -162 -43 -246t-162 -110q25 -62 25 -168q0 -85 -24 -146.5t-63.5 -98.5t-102 -58.5t-128 -29t-153.5 -7.5q-138 0 -250.5 11.5t-149.5 21.5v247q136 -14 330 -14q138 0 176.5 14t38.5 68q0 47 -15.5 62.5t-82.5 35.5l-355 105 q-54 16 -87 28.5t-69 32t-55 43.5t-36.5 59t-24 83t-6.5 112zM393 606q0 -73 19.5 -98.5t83.5 -44.5l372 -111q65 -20 84 -20q32 0 47 31.5t15 103.5t-18.5 98t-75.5 41l-377 113q-78 20 -88 20q-32 0 -47 -30.5t-15 -102.5z" />
<glyph unicode="&#xa8;" horiz-adv-x="782" d="M41 1219v221h266v-221h-266zM475 1219v221h266v-221h-266z" />
<glyph unicode="&#xa9;" horiz-adv-x="1523" d="M158 705q0 134 2 211t11.5 163t24.5 129t47.5 89.5t73 65t107.5 36.5t145.5 22t192.5 4t192.5 -4t145.5 -22t107.5 -36.5t73 -65t47.5 -89.5t24.5 -129t11.5 -163t2 -211t-2 -211.5t-11.5 -163.5t-24.5 -129t-47.5 -89.5t-73 -65t-107.5 -36.5t-145.5 -22t-192.5 -4 t-192.5 4t-145.5 22t-107.5 36.5t-73 65t-47.5 89.5t-24.5 129t-11.5 163.5t-2 211.5zM289 511q0 -64 9.5 -143.5t16.5 -109.5t37 -69.5t55 -48t86 -21t114 -13t155 -0.5t155 0.5t114 13t86 21t55 48t37 69.5t16.5 109.5t9.5 143.5v194v158.5t-5 125t-8.5 101.5t-20 74 t-28 57t-44.5 35.5t-59 25.5t-81 11t-100 7h-127h-127t-100 -7t-81 -11t-59 -25.5t-44.5 -35.5t-28 -57t-20 -74t-8.5 -101.5t-5 -125v-158.5v-194zM489 702q0 79 4 130.5t16 99t33 74.5t57 47.5t85.5 28.5t120.5 8q117 0 192 -21v-141q-94 8 -145 8q-33 0 -53.5 -0.5 t-40 -6t-29.5 -10t-19.5 -19.5t-13 -28t-6.5 -42t-3.5 -55t-0.5 -73t0.5 -73t3.5 -55.5t6.5 -42.5t13 -28t19.5 -20t30 -10t40 -5.5t53 -0.5q75 0 149 8v-145q-92 -15 -196 -15q-71 0 -120.5 8t-85.5 28.5t-57 47.5t-33 74t-16 98.5t-4 130.5z" />
<glyph unicode="&#xaa;" horiz-adv-x="851" d="M72 870q0 131 48 181.5t187 50.5q73 0 209 -8v30q0 26 -2 41.5t-5 29.5t-13.5 21t-20.5 12.5t-35 7.5t-47 2.5t-65 0.5q-50 0 -213 -10v170q140 26 295 26q69 0 121 -6.5t89 -18t62 -32.5t40 -43.5t23 -58.5t10.5 -69.5t2.5 -84.5v-463h-232l-8 88h-12q-39 -60 -93 -79 t-126 -19q-111 0 -163 55.5t-52 175.5zM297 893q0 -53 17.5 -68.5t84.5 -15.5q43 0 67.5 7.5t37.5 29.5q12 24 12 98v35h-133q-55 0 -70.5 -16t-15.5 -70z" />
<glyph unicode="&#xab;" horiz-adv-x="1026" d="M49 623l268 421h209l-213 -421l213 -420h-209zM442 623l269 421h209l-211 -421l211 -420h-209z" />
<glyph unicode="&#xac;" horiz-adv-x="1101" d="M143 399v238h815v-528h-235v290h-580z" />
<glyph unicode="&#xad;" horiz-adv-x="761" d="M102 451v264h555v-264h-555z" />
<glyph unicode="&#xae;" horiz-adv-x="1523" d="M158 705q0 134 2 211t11.5 163t24.5 129t47.5 89.5t73 65t107.5 36.5t145.5 22t192.5 4t192.5 -4t145.5 -22t107.5 -36.5t73 -65t47.5 -89.5t24.5 -129t11.5 -163t2 -211t-2 -211.5t-11.5 -163.5t-24.5 -129t-47.5 -89.5t-73 -65t-107.5 -36.5t-145.5 -22t-192.5 -4 t-192.5 4t-145.5 22t-107.5 36.5t-73 65t-47.5 89.5t-24.5 129t-11.5 163.5t-2 211.5zM289 511q0 -64 9.5 -143.5t16.5 -109.5t37 -69.5t55 -48t86 -21t114 -13t155 -0.5t155 0.5t114 13t86 21t55 48t37 69.5t16.5 109.5t9.5 143.5v194v158.5t-5 125t-8.5 101.5t-20 74 t-28 57t-44.5 35.5t-59 25.5t-81 11t-100 7h-127h-127t-100 -7t-81 -11t-59 -25.5t-44.5 -35.5t-28 -57t-20 -74t-8.5 -101.5t-5 -125v-158.5v-194zM467 324v757h360q79 0 128 -15.5t73 -50t31.5 -74t7.5 -103.5q0 -84 -20 -139.5t-80 -80.5l116 -294h-200l-95 268h-26h-107 v-268h-188zM655 737h105q79 0 98 18t19 81q0 61 -19 78.5t-92 17.5h-111v-195z" />
<glyph unicode="&#xaf;" horiz-adv-x="788" d="M57 1217v190h674v-190h-674z" />
<glyph unicode="&#xb0;" horiz-adv-x="806" d="M104 1118q0 66 2.5 104.5t13 78t29.5 59.5t52.5 36.5t82 22.5t119.5 6q54 0 94.5 -3t72 -12.5t52.5 -20t36.5 -31t23.5 -40.5t13 -54.5t6 -65t1 -80.5t-1 -80.5t-6 -65t-13 -54t-23.5 -40t-36.5 -31t-52.5 -19.5t-72 -12t-94.5 -3q-61 0 -104.5 5t-76.5 14t-54 28 t-34 39.5t-19.5 56.5t-8.5 71t-2 91zM297 1118q0 -36 0.5 -54t2 -40t6.5 -31t11.5 -19.5t19 -13.5t28 -5.5t38.5 -2.5q27 0 44 1.5t29.5 10.5t18 17t9 32t4 43t0.5 62t-0.5 62t-4 43t-9 32t-18 17t-29.5 10.5t-44 1.5q-23 0 -38.5 -2.5t-28 -5.5t-19 -13.5t-11.5 -19.5 t-6.5 -31t-2 -40t-0.5 -54z" />
<glyph unicode="&#xb1;" horiz-adv-x="1103" d="M143 2v236h818v-236h-818zM143 674v237h289v291h238v-291h291v-237h-291v-289h-238v289h-289z" />
<glyph unicode="&#xb2;" horiz-adv-x="716" d="M66 860v137q0 41 1 63.5t5 52t12 47.5t22.5 37.5t37 34.5t53.5 28l172 67q48 20 57.5 33t9.5 57q0 49 -23.5 61.5t-101.5 12.5q-109 0 -229 -14v145q132 25 280 25q52 0 89.5 -3.5t77 -16.5t63.5 -36t39.5 -63.5t15.5 -97.5q0 -102 -32 -152.5t-113 -81.5l-191 -76 q-29 -10 -36 -21.5t-7 -39.5v-41h379v-158h-581z" />
<glyph unicode="&#xb3;" horiz-adv-x="710" d="M63 874v146q140 -14 234 -14q80 0 106.5 13.5t26.5 67.5q0 57 -20 74t-80 17h-133v151h133q55 0 74.5 15.5t19.5 66.5q0 54 -25.5 67t-113.5 13q-123 0 -217 -12v145q134 23 251 23q175 0 245.5 -48.5t70.5 -156.5q0 -82 -33.5 -124t-103.5 -58v-7q74 -14 108.5 -54.5 t34.5 -131.5q0 -55 -14 -92t-48.5 -66t-99 -43t-160.5 -14q-143 0 -256 22z" />
<glyph unicode="&#xb4;" horiz-adv-x="583" d="M41 1180v10l184 287h318v-11l-271 -286h-231z" />
<glyph unicode="&#xb5;" d="M125 -387v1431h328v-552q0 -61 1 -96.5t7.5 -65t14.5 -42.5t27 -22t38.5 -10.5t56.5 -1.5q43 0 70 8t44.5 22.5t25.5 46.5t11 69t3 100v544h327v-1044h-311l-8 127h-17q-42 -68 -108.5 -102.5t-175.5 -34.5h-6v-377h-328z" />
<glyph unicode="&#xb6;" horiz-adv-x="1298" d="M98 930q0 71 1 115t5.5 94t11 78.5t21 60.5t32 48t47 33.5t63 25t82.5 14.5t104 8.5t129 1.5h211v-1704h-211v750q-75 0 -129 1.5t-104 8.5t-83 13.5t-62.5 24t-47 33.5t-32 47.5t-21 60t-11 78t-5.5 93.5t-1 115zM940 -295v1704h211v-1704h-211z" />
<glyph unicode="&#xb7;" horiz-adv-x="608" d="M131 465v297h348v-297h-348z" />
<glyph unicode="&#xb8;" horiz-adv-x="452" d="M41 -379l164 416h209v-10l-76 -416h-297v10z" />
<glyph unicode="&#xb9;" horiz-adv-x="468" d="M23 1374v160l208 102h140v-776h-201v576z" />
<glyph unicode="&#xba;" horiz-adv-x="888" d="M86 1032q0 62 2 106t9 85.5t18 69t30.5 52t45 38t63 24t83.5 14.5t107 4q82 0 138 -7t97 -27t64.5 -46t37 -74t18 -101.5t4.5 -137.5q0 -83 -4.5 -136t-18 -101t-37 -74t-64.5 -46t-97 -27t-138 -7q-61 0 -107 4t-83.5 14.5t-63 24t-45 38t-30.5 51.5t-18 68.5t-9 85 t-2 105.5zM328 1032q0 -135 10 -164q11 -35 50 -42q19 -3 56 -3q23 0 38 0.5t28.5 6t21 9.5t14 18t9 25t4.5 38t2 48v64v63.5t-2 48t-4.5 37.5t-9 25.5t-14 18.5t-21 9t-28.5 6t-38 1t-38 -0.5t-28.5 -6t-21 -9t-14 -18.5t-8.5 -24.5t-4 -37t-2 -46.5v-62v-5z" />
<glyph unicode="&#xbb;" horiz-adv-x="1026" d="M106 203l213 420l-213 421h209l269 -421l-269 -420h-209zM500 203l213 420l-213 421h209l268 -421l-268 -420h-209z" />
<glyph unicode="&#xbc;" horiz-adv-x="1427" d="M23 1145v160l208 102h140v-776h-201v575zM74 0l913 1409h207l-913 -1409h-207zM717 154v137l254 485h225l-264 -469h168l61 185h135v-185h97v-153h-97v-154h-202v154h-377z" />
<glyph unicode="&#xbd;" horiz-adv-x="1515" d="M23 1145v160l208 102h140v-776h-201v575zM74 0l913 1409h207l-913 -1409h-207zM864 0v137q0 41 1 63.5t5 52t12 47t22.5 37.5t37 34.5t53.5 27.5l172 68q49 20 58.5 33t9.5 57q0 49 -23.5 61.5t-101.5 12.5q-100 0 -229 -15v146q127 24 280 24q52 0 89.5 -3.5t77 -16.5 t63.5 -36t39.5 -63.5t15.5 -97.5q0 -102 -32.5 -152t-113.5 -81l-190 -76q-29 -10 -36 -21.5t-7 -39.5v-41h379v-158h-582z" />
<glyph unicode="&#xbe;" horiz-adv-x="1669" d="M63 645v146q150 -15 234 -15q79 0 106 14t27 68q0 57 -20 73.5t-80 16.5h-133v152h133q55 0 74.5 15.5t19.5 66.5q0 54 -25.5 67t-113.5 13q-115 0 -217 -13v146q128 22 251 22q175 0 245.5 -48.5t70.5 -156.5q0 -82 -33.5 -124t-103.5 -58v-6q74 -14 108.5 -54.5 t34.5 -131.5q0 -55 -14 -92t-48.5 -66t-99 -43t-160.5 -14q-143 0 -256 22zM315 0l914 1409h207l-914 -1409h-207zM958 154v137l254 485h226l-264 -469h167l62 185h135v-185h96v-153h-96v-154h-203v154h-377z" />
<glyph unicode="&#xbf;" horiz-adv-x="933" d="M109 2q0 145 40.5 218t133.5 106l86 30q32 11 42.5 14.5t27 13t20 16t9 23.5t5.5 33.5v49.5v63h293v-139q0 -78 -17 -126.5t-46 -72t-80 -41.5l-58 -20q-72 -24 -90 -49t-18 -103q0 -27 3.5 -46t9 -33t18.5 -22.5t24.5 -14t36 -8t45 -3t57.5 -0.5q136 0 320 23v-258 q-185 -37 -422 -37q-239 0 -339.5 84.5t-100.5 298.5zM444 748v296h349v-296h-349z" />
<glyph unicode="&#xc0;" horiz-adv-x="1415" d="M16 0l451 1409h481l451 -1409h-363l-84 274h-499l-82 -274h-355zM371 1831v10h317l186 -287v-10h-233zM535 557h335l-163 547h-13z" />
<glyph unicode="&#xc1;" horiz-adv-x="1415" d="M16 0l451 1409h481l451 -1409h-363l-84 274h-499l-82 -274h-355zM535 557h335l-163 547h-13zM537 1544v10l186 287h317v-10l-270 -287h-233z" />
<glyph unicode="&#xc2;" horiz-adv-x="1415" d="M16 0l451 1409h481l451 -1409h-363l-84 274h-499l-82 -274h-355zM365 1544v17l190 280h305l193 -280v-17h-211l-135 166l-132 -166h-210zM535 557h335l-163 547h-13z" />
<glyph unicode="&#xc3;" horiz-adv-x="1415" d="M16 0l451 1409h481l451 -1409h-363l-84 274h-499l-82 -274h-355zM322 1536q0 47 1 74.5t4.5 62.5t11 54.5t21 41t33.5 32t49 17.5t68 7q67 0 229 -37q114 -29 142 -29q37 0 45 16.5t8 73.5h162q0 -47 -1 -74.5t-4.5 -62.5t-11.5 -55t-21.5 -41.5t-33.5 -32t-49 -17.5 t-68 -7q-23 0 -46 2t-50 7t-42.5 8.5t-47.5 11t-41 9.5q-114 29 -143 29q-36 0 -44 -17t-8 -73h-163zM535 557h335l-163 547h-13z" />
<glyph unicode="&#xc4;" horiz-adv-x="1415" d="M16 0l451 1409h481l451 -1409h-363l-84 274h-499l-82 -274h-355zM356 1583v221h269v-221h-269zM535 557h335l-163 547h-13zM791 1583v221h266v-221h-266z" />
<glyph unicode="&#xc5;" horiz-adv-x="1415" d="M16 0l447 1395q-51 26 -66.5 75.5t-15.5 145.5q0 45 2 73.5t9 59.5t21 49t37 35t57 26t81.5 14t111.5 5q74 0 127 -6t89 -21t57.5 -33.5t32.5 -51.5t14.5 -65.5t3.5 -84.5q0 -90 -14 -139t-60 -76l449 -1401h-363l-84 274h-499l-82 -274h-355zM535 557h335l-163 547h-13z M567 1616q0 -29 0.5 -41.5t4.5 -29.5t11.5 -22.5t23 -13t37.5 -9t56 -1.5t57 1.5t38.5 8.5t23.5 13.5t12 23t4.5 29.5t0.5 41t-0.5 41t-4.5 30t-12 23.5t-23.5 13.5t-38.5 9t-57 2q-50 0 -77 -4.5t-39.5 -22t-14.5 -34t-2 -58.5z" />
<glyph unicode="&#xc6;" horiz-adv-x="2004" d="M-33 0l662 1409h1261v-283h-737l45 -276h596v-279h-553l45 -288h604v-283h-903l-45 276h-498l-127 -276h-350zM565 557h338l-82 551h-12z" />
<glyph unicode="&#xc7;" horiz-adv-x="1159" d="M113 705q0 113 4 193.5t15.5 156.5t30 126.5t51 95t75 70t104.5 45t138 26.5t176 7q218 0 356 -36v-254q-193 18 -272 18q-50 0 -84 -1t-67.5 -6.5t-54 -11t-41 -21t-31 -29.5t-20.5 -43.5t-14 -56.5t-7.5 -74.5t-4 -91.5t-0.5 -113q0 -87 1 -138.5t7 -105t13.5 -80.5 t26 -54.5t39 -38t58 -20t77 -11t102.5 -1.5q140 0 280 18v-260q-109 -20 -252 -26l-69 -377h-297v10l143 365q-81 4 -143 15.5t-111.5 33.5t-85 50.5t-61 73.5t-41.5 94.5t-25 122.5t-12.5 149t-3.5 180z" />
<glyph unicode="&#xc8;" horiz-adv-x="1259" d="M152 0v1409h995v-283h-643v-274h547v-281h-547v-288h643v-283h-995zM293 1831v10h317l187 -287v-10h-234z" />
<glyph unicode="&#xc9;" horiz-adv-x="1259" d="M152 0v1409h995v-283h-643v-274h547v-281h-547v-288h643v-283h-995zM459 1544v10l186 287h318v-10l-271 -287h-233z" />
<glyph unicode="&#xca;" horiz-adv-x="1259" d="M152 0v1409h995v-283h-643v-274h547v-281h-547v-288h643v-283h-995zM287 1544v17l190 280h305l193 -280v-17h-211l-135 166l-131 -166h-211z" />
<glyph unicode="&#xcb;" horiz-adv-x="1259" d="M152 0v1409h995v-283h-643v-274h547v-281h-547v-288h643v-283h-995zM279 1583v221h268v-221h-268zM713 1583v221h266v-221h-266z" />
<glyph unicode="&#xcc;" horiz-adv-x="645" d="M-16 1831v10h317l186 -287v-10h-233zM145 0v1409h355v-1409h-355z" />
<glyph unicode="&#xcd;" horiz-adv-x="645" d="M145 0v1409h355v-1409h-355zM152 1544v10l186 287h317v-10l-270 -287h-233z" />
<glyph unicode="&#xce;" horiz-adv-x="645" d="M-20 1544v17l190 280h305l193 -280v-17h-211l-135 166l-132 -166h-210zM145 0v1409h355v-1409h-355z" />
<glyph unicode="&#xcf;" horiz-adv-x="645" d="M-29 1583v221h269v-221h-269zM145 0v1409h355v-1409h-355zM406 1583v221h266v-221h-266z" />
<glyph unicode="&#xd0;" horiz-adv-x="1400" d="M14 592v242h138v575h497q95 0 170 -4.5t136.5 -18.5t107.5 -27.5t81.5 -44t59.5 -56t40.5 -75.5t25.5 -89t13.5 -111t5.5 -127.5t1 -150.5q0 -120 -2 -185.5t-10.5 -149t-25.5 -125t-48.5 -92t-77 -72.5t-113.5 -44.5t-156.5 -29.5t-207.5 -7h-497v592h-138zM504 283h135 h95.5t69.5 8t53.5 13.5t33 32.5t23.5 48t9.5 77t6.5 102.5v140.5v115t-3.5 90t-4.5 72.5t-12.5 52t-17 39.5t-28 24.5t-35.5 17t-50 6.5t-60.5 4h-77.5h-2h-135v-292h180v-242h-180v-309z" />
<glyph unicode="&#xd1;" horiz-adv-x="1460" d="M145 0v1409h365l455 -756h10v756h340v-1409h-332l-489 825h-9v-825h-340zM360 1536q0 55 1.5 86.5t7 69.5t17.5 58.5t33 39.5t53 27t77 8q67 0 229 -37q114 -29 142 -29q37 0 45 16.5t8 73.5h162q0 -47 -1 -74.5t-4.5 -62.5t-11.5 -55t-21.5 -41.5t-33.5 -32t-49 -17.5 t-68 -7q-23 0 -46 2t-50 7t-42.5 8.5t-47.5 11t-41 9.5q-114 29 -144 29q-36 0 -43.5 -17t-7.5 -73h-164z" />
<glyph unicode="&#xd2;" horiz-adv-x="1445" d="M113 705q0 125 1.5 192.5t10 153.5t24 128t46 93.5t73.5 73t108.5 44t149 29t197.5 6.5t198 -6.5t149.5 -29t108.5 -44t73 -73.5t45.5 -93t24 -128t10 -153.5t1.5 -192.5t-1.5 -192.5t-10 -153.5t-24 -128.5t-45.5 -93.5t-73 -73t-108.5 -44t-149.5 -29.5t-198 -6.5 q-113 0 -197 6.5t-149.5 29t-108.5 44t-73 73.5t-46 93.5t-24.5 128t-10 154t-1.5 192.5zM385 1831v10h317l187 -287v-10h-234zM471 562.5q0 -49.5 5.5 -105.5t9.5 -80t20 -51.5t29.5 -34.5t46 -15.5t60 -9t81.5 -0.5h82t60.5 9.5t45.5 15.5t29 35t19.5 51t8.5 80t5 105v143 v143t-5 105t-8.5 79.5t-19.5 50.5t-29 35.5t-45.5 15.5t-60.5 9h-82h-66.5t-53 -5t-43 -8.5t-31.5 -18t-24 -26.5t-15 -41.5t-11 -54.5t-5 -75t-3 -92.5v-116.5v-142.5z" />
<glyph unicode="&#xd3;" horiz-adv-x="1445" d="M113 705q0 125 1.5 192.5t10 153.5t24 128t46 93.5t73.5 73t108.5 44t149 29t197.5 6.5t198 -6.5t149.5 -29t108.5 -44t73 -73.5t45.5 -93t24 -128t10 -153.5t1.5 -192.5t-1.5 -192.5t-10 -153.5t-24 -128.5t-45.5 -93.5t-73 -73t-108.5 -44t-149.5 -29.5t-198 -6.5 q-113 0 -197 6.5t-149.5 29t-108.5 44t-73 73.5t-46 93.5t-24.5 128t-10 154t-1.5 192.5zM471 562.5q0 -49.5 5.5 -105.5t9.5 -80t20 -51.5t29.5 -34.5t46 -15.5t60 -9t81.5 -0.5h82t60.5 9.5t45.5 15.5t29 35t19.5 51t8.5 80t5 105v143v143t-5 105t-8.5 79.5t-19.5 50.5 t-29 35.5t-45.5 15.5t-60.5 9h-82h-66.5t-53 -5t-43 -8.5t-31.5 -18t-24 -26.5t-15 -41.5t-11 -54.5t-5 -75t-3 -92.5v-116.5v-142.5zM551 1544v10l186 287h318v-10l-271 -287h-233z" />
<glyph unicode="&#xd4;" horiz-adv-x="1445" d="M113 705q0 125 1.5 192.5t10 153.5t24 128t46 93.5t73.5 73t108.5 44t149 29t197.5 6.5t198 -6.5t149.5 -29t108.5 -44t73 -73.5t45.5 -93t24 -128t10 -153.5t1.5 -192.5t-1.5 -192.5t-10 -153.5t-24 -128.5t-45.5 -93.5t-73 -73t-108.5 -44t-149.5 -29.5t-198 -6.5 q-113 0 -197 6.5t-149.5 29t-108.5 44t-73 73.5t-46 93.5t-24.5 128t-10 154t-1.5 192.5zM379 1544v17l190 280h305l193 -280v-17h-211l-135 166l-131 -166h-211zM471 562.5q0 -49.5 5.5 -105.5t9.5 -80t20 -51.5t29.5 -34.5t46 -15.5t60 -9t81.5 -0.5h82t60.5 9.5 t45.5 15.5t29 35t19.5 51t8.5 80t5 105v143v143t-5 105t-8.5 79.5t-19.5 50.5t-29 35.5t-45.5 15.5t-60.5 9h-82h-66.5t-53 -5t-43 -8.5t-31.5 -18t-24 -26.5t-15 -41.5t-11 -54.5t-5 -75t-3 -92.5v-116.5v-142.5z" />
<glyph unicode="&#xd5;" horiz-adv-x="1445" d="M113 705q0 125 1.5 192.5t10 153.5t24 128t46 93.5t73.5 73t108.5 44t149 29t197.5 6.5t198 -6.5t149.5 -29t108.5 -44t73 -73.5t45.5 -93t24 -128t10 -153.5t1.5 -192.5t-1.5 -192.5t-10 -153.5t-24 -128.5t-45.5 -93.5t-73 -73t-108.5 -44t-149.5 -29.5t-198 -6.5 q-113 0 -197 6.5t-149.5 29t-108.5 44t-73 73.5t-46 93.5t-24.5 128t-10 154t-1.5 192.5zM336 1536q0 47 1 74.5t4.5 62.5t11 54.5t21 41t33.5 32t49 17.5t68 7q68 0 230 -37q114 -29 141 -29q37 0 45 16.5t8 73.5h162q0 -41 -0.5 -65.5t-3 -56.5t-8 -51t-14.5 -40.5 t-22.5 -33.5t-33 -23t-46 -15.5t-60.5 -4.5q-23 0 -46 2t-50.5 7t-42.5 8t-48 11t-41 10q-114 29 -143 29q-36 0 -43.5 -17t-7.5 -73h-164zM471 562.5q0 -49.5 5.5 -105.5t9.5 -80t20 -51.5t29.5 -34.5t46 -15.5t60 -9t81.5 -0.5h82t60.5 9.5t45.5 15.5t29 35t19.5 51 t8.5 80t5 105v143v143t-5 105t-8.5 79.5t-19.5 50.5t-29 35.5t-45.5 15.5t-60.5 9h-82h-66.5t-53 -5t-43 -8.5t-31.5 -18t-24 -26.5t-15 -41.5t-11 -54.5t-5 -75t-3 -92.5v-116.5v-142.5z" />
<glyph unicode="&#xd6;" horiz-adv-x="1445" d="M113 705q0 125 1.5 192.5t10 153.5t24 128t46 93.5t73.5 73t108.5 44t149 29t197.5 6.5t198 -6.5t149.5 -29t108.5 -44t73 -73.5t45.5 -93t24 -128t10 -153.5t1.5 -192.5t-1.5 -192.5t-10 -153.5t-24 -128.5t-45.5 -93.5t-73 -73t-108.5 -44t-149.5 -29.5t-198 -6.5 q-113 0 -197 6.5t-149.5 29t-108.5 44t-73 73.5t-46 93.5t-24.5 128t-10 154t-1.5 192.5zM373 1583v221h268v-221h-268zM471 562.5q0 -49.5 5.5 -105.5t9.5 -80t20 -51.5t29.5 -34.5t46 -15.5t60 -9t81.5 -0.5h82t60.5 9.5t45.5 15.5t29 35t19.5 51t8.5 80t5 105v143v143 t-5 105t-8.5 79.5t-19.5 50.5t-29 35.5t-45.5 15.5t-60.5 9h-82h-66.5t-53 -5t-43 -8.5t-31.5 -18t-24 -26.5t-15 -41.5t-11 -54.5t-5 -75t-3 -92.5v-116.5v-142.5zM807 1583v221h266v-221h-266z" />
<glyph unicode="&#xd7;" horiz-adv-x="1048" d="M139 733l168 170l217 -217l217 217l168 -168l-217 -217l217 -217l-170 -168l-217 217l-215 -217l-166 170l215 213z" />
<glyph unicode="&#xd8;" horiz-adv-x="1431" d="M113 -113l116 205q-33 30 -55 74.5t-34 91.5t-18 125t-7.5 143t-1.5 179q0 100 1 158.5t5.5 132.5t12.5 114.5t24 91.5t38 76t56 55.5t76.5 43.5t101 26.5t128.5 17.5t159 4q168 0 264 -16l63 113h277l-117 -205q33 -31 55 -75t34 -91.5t18.5 -124.5t8 -143t1.5 -178 q0 -99 -1 -158t-5.5 -133t-13 -114.5t-24.5 -91.5t-38 -76.5t-56 -56t-77 -43.5t-101.5 -26.5t-128.5 -17.5t-159 -4q-166 0 -262 16l-66 -113h-274zM467 585.5q0 -43.5 3 -94.5t5 -76.5t10.5 -56t15 -42.5t24 -27.5t31 -19t42 -8.5t52 -5h65.5q53 0 80 0.5t59.5 9 t45.5 16.5t29.5 35.5t20.5 52.5t9 81t5.5 108t0.5 146v119.5t-3 94.5t-5 76t-11 56t-15.5 42.5t-24 27.5t-31 18.5t-42.5 8.5t-52 5h-66h-66t-51.5 -5t-42 -8.5t-31 -18.5t-24 -27t-15 -42.5t-10.5 -56t-5 -76.5t-3 -94.5v-119.5v-119.5z" />
<glyph unicode="&#xd9;" horiz-adv-x="1404" d="M137 635v774h355v-850q0 -46 0.5 -73.5t2 -60t4 -49.5t9 -37.5t13.5 -29.5t19.5 -20.5t26.5 -15t35.5 -7.5t44.5 -5t55 -1q33 0 56 0.5t44.5 5t35 8t26.5 15t19.5 20t12.5 30t8.5 37.5t4.5 49.5t2 59.5v74v850h355v-774q0 -85 -1.5 -143.5t-7 -120.5t-14.5 -103t-25 -83 t-37.5 -68t-53.5 -51t-72 -38.5t-93.5 -24.5t-116.5 -15t-143 -4t-143 4t-116.5 15t-93.5 24.5t-72 38.5t-54 51t-38 68t-25 83t-14.5 103t-7 121t-1.5 143zM365 1831v10h317l186 -287v-10h-233z" />
<glyph unicode="&#xda;" horiz-adv-x="1404" d="M137 635v774h355v-850q0 -46 0.5 -73.5t2 -60t4 -49.5t9 -37.5t13.5 -29.5t19.5 -20.5t26.5 -15t35.5 -7.5t44.5 -5t55 -1q33 0 56 0.5t44.5 5t35 8t26.5 15t19.5 20t12.5 30t8.5 37.5t4.5 49.5t2 59.5v74v850h355v-774q0 -85 -1.5 -143.5t-7 -120.5t-14.5 -103t-25 -83 t-37.5 -68t-53.5 -51t-72 -38.5t-93.5 -24.5t-116.5 -15t-143 -4t-143 4t-116.5 15t-93.5 24.5t-72 38.5t-54 51t-38 68t-25 83t-14.5 103t-7 121t-1.5 143zM530 1544v10l187 287h317v-10l-270 -287h-234z" />
<glyph unicode="&#xdb;" horiz-adv-x="1404" d="M137 635v774h355v-850q0 -46 0.5 -73.5t2 -60t4 -49.5t9 -37.5t13.5 -29.5t19.5 -20.5t26.5 -15t35.5 -7.5t44.5 -5t55 -1q33 0 56 0.5t44.5 5t35 8t26.5 15t19.5 20t12.5 30t8.5 37.5t4.5 49.5t2 59.5v74v850h355v-774q0 -85 -1.5 -143.5t-7 -120.5t-14.5 -103t-25 -83 t-37.5 -68t-53.5 -51t-72 -38.5t-93.5 -24.5t-116.5 -15t-143 -4t-143 4t-116.5 15t-93.5 24.5t-72 38.5t-54 51t-38 68t-25 83t-14.5 103t-7 121t-1.5 143zM358 1544v17l191 280h305l193 -280v-17h-211l-136 166l-131 -166h-211z" />
<glyph unicode="&#xdc;" horiz-adv-x="1404" d="M137 635v774h355v-850q0 -46 0.5 -73.5t2 -60t4 -49.5t9 -37.5t13.5 -29.5t19.5 -20.5t26.5 -15t35.5 -7.5t44.5 -5t55 -1q33 0 56 0.5t44.5 5t35 8t26.5 15t19.5 20t12.5 30t8.5 37.5t4.5 49.5t2 59.5v74v850h355v-774q0 -85 -1.5 -143.5t-7 -120.5t-14.5 -103t-25 -83 t-37.5 -68t-53.5 -51t-72 -38.5t-93.5 -24.5t-116.5 -15t-143 -4t-143 4t-116.5 15t-93.5 24.5t-72 38.5t-54 51t-38 68t-25 83t-14.5 103t-7 121t-1.5 143zM352 1583v221h269v-221h-269zM786 1583v221h267v-221h-267z" />
<glyph unicode="&#xdd;" horiz-adv-x="1296" d="M4 1409h365l278 -592h15l274 592h356l-467 -926v-483h-354v483zM477 1544v10l187 287h317v-10l-270 -287h-234z" />
<glyph unicode="&#xde;" horiz-adv-x="1329" d="M152 0v1409h354v-213h311q83 0 148 -11.5t111.5 -31t80.5 -52.5t54.5 -70t32.5 -89t16 -103.5t4 -119.5q0 -64 -3.5 -111.5t-14.5 -100t-30.5 -89.5t-53 -72t-80.5 -56.5t-113.5 -34.5t-151.5 -13h-311v-242h-354zM506 522h166q56 0 91.5 2.5t63.5 11.5t42 20.5t23 36.5 t11 52t2 74q0 40 -2 65t-6.5 48t-16 35.5t-27 23.5t-42.5 15.5t-59 6.5t-80 2h-166v-393z" />
<glyph unicode="&#xdf;" horiz-adv-x="1232" d="M125 0v1137q0 104 25 176.5t83 123.5t155 75t239 24q118 0 204 -15.5t142 -44t89 -74t46.5 -99t13.5 -125.5q0 -130 -57.5 -198.5t-179.5 -88.5v-8q131 -24 193.5 -113.5t62.5 -280.5q0 -93 -7.5 -159.5t-27 -124t-53 -94t-87 -63t-127 -37.5t-173.5 -11h-88v248h49 q47 0 70.5 1.5t48 10.5t33.5 22.5t18 44.5t10.5 70t1.5 105q0 60 -3 100t-12 69t-20.5 44.5t-34.5 24.5t-47 11.5t-65 2.5h-33v247h33q103 0 132 25t29 111q0 97 -31.5 124t-131.5 27q-52 0 -80.5 -5t-51.5 -24t-31.5 -56t-8.5 -101v-1102h-328z" />
<glyph unicode="&#xe0;" horiz-adv-x="1153" d="M80 297q0 93 14 151.5t51.5 98t100.5 55.5t162 16q102 0 290 -8v39q0 42 -2.5 67.5t-14.5 45t-25.5 29t-47.5 15t-66.5 6.5t-97.5 1q-153 0 -305 -16v231q207 33 410 33q73 0 132 -5.5t105 -14.5t81.5 -26t61 -36t43 -48t28 -57.5t16.5 -70t8 -80t2 -92.5v-631h-313 l-8 123h-17q-27 -45 -63.5 -74t-79.5 -42.5t-80 -18t-86 -4.5q-152 0 -225.5 73.5t-73.5 239.5zM205 1466v11h317l187 -287v-10h-234zM389 328q0 -70 25 -90.5t121 -20.5q108 0 141 57q22 40 22 134v38h-188q-79 0 -100 -20.5t-21 -97.5z" />
<glyph unicode="&#xe1;" horiz-adv-x="1153" d="M80 297q0 93 14 151.5t51.5 98t100.5 55.5t162 16q102 0 290 -8v39q0 42 -2.5 67.5t-14.5 45t-25.5 29t-47.5 15t-66.5 6.5t-97.5 1q-153 0 -305 -16v231q207 33 410 33q73 0 132 -5.5t105 -14.5t81.5 -26t61 -36t43 -48t28 -57.5t16.5 -70t8 -80t2 -92.5v-631h-313 l-8 123h-17q-27 -45 -63.5 -74t-79.5 -42.5t-80 -18t-86 -4.5q-152 0 -225.5 73.5t-73.5 239.5zM389 328q0 -70 25 -90.5t121 -20.5q108 0 141 57q22 40 22 134v38h-188q-79 0 -100 -20.5t-21 -97.5zM444 1180v10l187 287h317v-11l-270 -286h-234z" />
<glyph unicode="&#xe2;" horiz-adv-x="1153" d="M80 297q0 93 14 151.5t51.5 98t100.5 55.5t162 16q102 0 290 -8v39q0 42 -2.5 67.5t-14.5 45t-25.5 29t-47.5 15t-66.5 6.5t-97.5 1q-153 0 -305 -16v231q207 33 410 33q73 0 132 -5.5t105 -14.5t81.5 -26t61 -36t43 -48t28 -57.5t16.5 -70t8 -80t2 -92.5v-631h-313 l-8 123h-17q-27 -45 -63.5 -74t-79.5 -42.5t-80 -18t-86 -4.5q-152 0 -225.5 73.5t-73.5 239.5zM238 1180v16l190 281h305l193 -281v-16h-213l-133 166l-131 -166h-211zM389 328q0 -70 25 -90.5t121 -20.5q108 0 141 57q22 40 22 134v38h-188q-79 0 -100 -20.5t-21 -97.5z " />
<glyph unicode="&#xe3;" horiz-adv-x="1153" d="M80 297q0 93 14 151.5t51.5 98t100.5 55.5t162 16q102 0 290 -8v39q0 42 -2.5 67.5t-14.5 45t-25.5 29t-47.5 15t-66.5 6.5t-97.5 1q-153 0 -305 -16v231q207 33 410 33q73 0 132 -5.5t105 -14.5t81.5 -26t61 -36t43 -48t28 -57.5t16.5 -70t8 -80t2 -92.5v-631h-313 l-8 123h-17q-27 -45 -63.5 -74t-79.5 -42.5t-80 -18t-86 -4.5q-152 0 -225.5 73.5t-73.5 239.5zM193 1171q0 47 1 74.5t4.5 62.5t11 54.5t21 41t33.5 32t49 17.5t68 7q67 0 229 -37q110 -28 142 -28q37 0 45 16.5t8 73.5h162q0 -47 -1 -75t-4.5 -63t-11.5 -54.5t-21.5 -41 t-33.5 -32.5t-49 -18t-68 -7q-28 0 -62 4.5t-52.5 8t-62 14t-50.5 12.5q-114 29 -143 29q-36 0 -44 -17.5t-8 -73.5h-163zM389 328q0 -70 25 -90.5t121 -20.5q108 0 141 57q22 40 22 134v38h-188q-79 0 -100 -20.5t-21 -97.5z" />
<glyph unicode="&#xe4;" horiz-adv-x="1153" d="M80 297q0 93 14 151.5t51.5 98t100.5 55.5t162 16q102 0 290 -8v39q0 42 -2.5 67.5t-14.5 45t-25.5 29t-47.5 15t-66.5 6.5t-97.5 1q-153 0 -305 -16v231q207 33 410 33q73 0 132 -5.5t105 -14.5t81.5 -26t61 -36t43 -48t28 -57.5t16.5 -70t8 -80t2 -92.5v-631h-313 l-8 123h-17q-27 -45 -63.5 -74t-79.5 -42.5t-80 -18t-86 -4.5q-152 0 -225.5 73.5t-73.5 239.5zM236 1219v221h268v-221h-268zM389 328q0 -70 25 -90.5t121 -20.5q108 0 141 57q22 40 22 134v38h-188q-79 0 -100 -20.5t-21 -97.5zM670 1219v221h266v-221h-266z" />
<glyph unicode="&#xe5;" horiz-adv-x="1153" d="M80 297q0 93 14 151.5t51.5 98t100.5 55.5t162 16q102 0 290 -8v39q0 42 -2.5 67.5t-14.5 45t-25.5 29t-47.5 15t-66.5 6.5t-97.5 1q-153 0 -305 -16v231q207 33 410 33q73 0 132 -5.5t105 -14.5t81.5 -26t61 -36t43 -48t28 -57.5t16.5 -70t8 -80t2 -92.5v-631h-313 l-8 123h-17q-27 -45 -63.5 -74t-79.5 -42.5t-80 -18t-86 -4.5q-152 0 -225.5 73.5t-73.5 239.5zM285 1391q0 49 3 79t13 61t29 47.5t52 30.5t82 19.5t118 5.5q83 0 137.5 -9.5t87.5 -25.5t49.5 -48.5t21.5 -67t5 -92.5t-5 -92t-21.5 -66t-49.5 -48t-87.5 -25t-137.5 -9 t-137 9.5t-86.5 25t-48.5 48t-20.5 66t-4.5 91.5zM389 328q0 -70 25 -90.5t121 -20.5q108 0 141 57q22 40 22 134v38h-188q-79 0 -100 -20.5t-21 -97.5zM457 1391q0 -37 2 -53t14.5 -31t37 -19t71.5 -4q39 0 62 4t37 9t20 21t7 29t1 44q0 27 -0.5 38.5t-4 27.5t-11 21.5 t-22 12.5t-36 8.5t-53.5 1.5q-47 0 -71.5 -4t-37 -19.5t-14.5 -32t-2 -54.5z" />
<glyph unicode="&#xe6;" horiz-adv-x="1751" d="M80 297q0 93 14 151.5t51.5 98t100.5 55.5t162 16q98 0 290 -8v39q0 42 -2.5 67.5t-14.5 45t-25.5 29t-47.5 15t-66.5 6.5t-97.5 1q-157 0 -305 -16v231q190 33 393 33q231 0 340 -86q111 86 338 86q73 0 129.5 -6.5t101 -16t77 -32.5t55.5 -42.5t38 -59.5t23.5 -71 t12.5 -89.5t5 -102t1 -121.5v-78h-625q0 -53 2 -81.5t12 -56t25 -39t48.5 -21t74.5 -11.5t110 -2q137 0 314 17v-230q-150 -34 -391 -34q-157 0 -251.5 24t-146.5 78q-70 -63 -162 -82.5t-217 -19.5q-204 0 -285 70.5t-81 242.5zM389 328q0 -70 25 -90.5t121 -20.5 q65 0 99.5 17t49.5 59q14 43 14 115v36h-188q-79 0 -100 -19.5t-21 -96.5zM1028 610h318q0 76 -6 118t-26 65t-46 28.5t-78 5.5q-56 0 -85 -6.5t-47.5 -32t-23.5 -64.5t-6 -114z" />
<glyph unicode="&#xe7;" horiz-adv-x="944" d="M92 522q0 83 3 137.5t13 116.5t28.5 101t51.5 77.5t80.5 59.5t115.5 34t157 13q168 0 313 -33v-231q-114 16 -223 16q-50 0 -82 -4t-56.5 -18t-37.5 -31.5t-21 -54t-10 -76.5t-2 -107q0 -68 2 -109t10.5 -77t21.5 -53.5t38 -31t57 -17t82 -3.5q100 0 229 17v-232 q-91 -19 -194 -28l-72 -377h-297v10l145 367q-62 6 -111.5 18.5t-85.5 34.5t-62 46t-43 62.5t-27 72.5t-15 88.5t-6.5 98.5t-1.5 113z" />
<glyph unicode="&#xe8;" horiz-adv-x="1136" d="M92 520q0 79 2.5 132.5t10.5 111t22.5 94.5t39.5 74t60.5 58.5t86 39t116 24.5t150.5 7q76 0 135 -6.5t105.5 -16t80 -32.5t57.5 -42t39.5 -60t24 -71t12.5 -89.5t5 -102t1 -121.5v-80h-624q0 -40 1 -63.5t5.5 -48.5t11 -37.5t22 -25.5t33 -18t48.5 -9.5t65 -5.5t86 -1 q138 0 311 17v-230q-146 -34 -389 -34q-122 0 -207.5 11.5t-143.5 43t-91 67t-50 104.5t-21.5 134.5t-4.5 175.5zM246 1466v11h317l187 -287v-10h-234zM416 610h317q0 101 -13.5 146t-43 58t-98.5 13q-45 0 -71.5 -5t-46 -16.5t-28 -38.5t-12 -61.5t-4.5 -95.5z" />
<glyph unicode="&#xe9;" horiz-adv-x="1136" d="M92 520q0 79 2.5 132.5t10.5 111t22.5 94.5t39.5 74t60.5 58.5t86 39t116 24.5t150.5 7q76 0 135 -6.5t105.5 -16t80 -32.5t57.5 -42t39.5 -60t24 -71t12.5 -89.5t5 -102t1 -121.5v-80h-624q0 -40 1 -63.5t5.5 -48.5t11 -37.5t22 -25.5t33 -18t48.5 -9.5t65 -5.5t86 -1 q138 0 311 17v-230q-146 -34 -389 -34q-122 0 -207.5 11.5t-143.5 43t-91 67t-50 104.5t-21.5 134.5t-4.5 175.5zM403 1180v10l187 287h317v-11l-270 -286h-234zM416 610h317q0 101 -13.5 146t-43 58t-98.5 13q-45 0 -71.5 -5t-46 -16.5t-28 -38.5t-12 -61.5t-4.5 -95.5z " />
<glyph unicode="&#xea;" horiz-adv-x="1136" d="M92 520q0 79 2.5 132.5t10.5 111t22.5 94.5t39.5 74t60.5 58.5t86 39t116 24.5t150.5 7q76 0 135 -6.5t105.5 -16t80 -32.5t57.5 -42t39.5 -60t24 -71t12.5 -89.5t5 -102t1 -121.5v-80h-624q0 -40 1 -63.5t5.5 -48.5t11 -37.5t22 -25.5t33 -18t48.5 -9.5t65 -5.5t86 -1 q138 0 311 17v-230q-146 -34 -389 -34q-122 0 -207.5 11.5t-143.5 43t-91 67t-50 104.5t-21.5 134.5t-4.5 175.5zM236 1180v16l190 281h305l193 -281v-16h-211l-135 166l-132 -166h-210zM416 610h317q0 101 -13.5 146t-43 58t-98.5 13q-45 0 -71.5 -5t-46 -16.5t-28 -38.5 t-12 -61.5t-4.5 -95.5z" />
<glyph unicode="&#xeb;" horiz-adv-x="1136" d="M92 520q0 79 2.5 132.5t10.5 111t22.5 94.5t39.5 74t60.5 58.5t86 39t116 24.5t150.5 7q76 0 135 -6.5t105.5 -16t80 -32.5t57.5 -42t39.5 -60t24 -71t12.5 -89.5t5 -102t1 -121.5v-80h-624q0 -40 1 -63.5t5.5 -48.5t11 -37.5t22 -25.5t33 -18t48.5 -9.5t65 -5.5t86 -1 q138 0 311 17v-230q-146 -34 -389 -34q-122 0 -207.5 11.5t-143.5 43t-91 67t-50 104.5t-21.5 134.5t-4.5 175.5zM233 1219v221h269v-221h-269zM416 610h317q0 101 -13.5 146t-43 58t-98.5 13q-45 0 -71.5 -5t-46 -16.5t-28 -38.5t-12 -61.5t-4.5 -95.5zM668 1219v221h266 v-221h-266z" />
<glyph unicode="&#xec;" horiz-adv-x="581" d="M-41 1466v11h317l187 -287v-10h-234zM125 0v1044h332v-1044h-332z" />
<glyph unicode="&#xed;" horiz-adv-x="581" d="M115 1180v10l186 287h317v-11l-270 -286h-233zM125 0v1044h332v-1044h-332z" />
<glyph unicode="&#xee;" horiz-adv-x="581" d="M-53 1180v16l190 281h305l193 -281v-16h-211l-135 166l-131 -166h-211zM125 0v1044h332v-1044h-332z" />
<glyph unicode="&#xef;" horiz-adv-x="581" d="M-55 1219v221h268v-221h-268zM125 0v1044h332v-1044h-332zM379 1219v221h266v-221h-266z" />
<glyph unicode="&#xf0;" horiz-adv-x="1171" d="M92 520q0 69 1.5 118t6 101.5t13.5 88t23 72t35 59.5t49 44t65.5 32t85 17.5t106.5 6.5q104 0 197 -27l10 8q-37 99 -78 166l-252 -37v187l135 18q-59 64 -145 139v9h352q56 -50 103 -103l250 35v-182l-125 -21q82 -148 123 -352q28 -159 28 -364q0 -92 -2 -147.5 t-9.5 -118.5t-21 -97.5t-38 -71.5t-59.5 -55t-87.5 -34t-118.5 -21.5t-155 -5.5q-119 0 -199 9.5t-136 39.5t-86.5 63t-46.5 103.5t-20 136.5t-4 184zM420 520q0 -204 22 -246.5t142 -42.5t143 43t23 246v70t-1.5 57t-3.5 48t-6.5 36.5t-10 30t-15 20.5t-21 15.5t-28.5 8.5 t-35.5 6t-44.5 1q-120 0 -142 -43.5t-22 -249.5z" />
<glyph unicode="&#xf1;" d="M125 0v1044h311l8 -126h19q80 143 301 143q59 0 104.5 -9t78.5 -25t56.5 -43.5t38.5 -58.5t23 -76t11 -90t3 -106v-653h-327v553q0 61 -1 96t-7.5 65t-14 43t-26.5 22t-38.5 10.5t-56.5 1.5q-43 0 -70.5 -8t-45 -22.5t-25.5 -46.5t-11 -68.5t-3 -100.5v-545h-328z M211 1169q0 48 1 75.5t4.5 63t11 55t21 41t33.5 32t49 17.5t68 7q23 0 46.5 -2t50.5 -7t43.5 -9t47.5 -11.5t42 -9.5q102 -26 141 -26q37 0 45 16t8 72h162q0 -47 -1 -74.5t-4.5 -62.5t-11 -54.5t-21 -41t-33.5 -32t-49 -17.5t-68 -7q-76 0 -228 39q-14 3 -39.5 9t-40 9 t-32.5 6t-31 3q-36 0 -43.5 -17t-7.5 -74h-164z" />
<glyph unicode="&#xf2;" horiz-adv-x="1167" d="M92 524q0 121 4 188t20 137.5t46.5 103t86.5 61.5t136 38t199 9t198.5 -9t136 -38t86.5 -61.5t46.5 -103t20 -137.5t3.5 -188t-3.5 -188t-20 -138t-46.5 -104t-86 -62.5t-136 -38.5t-199 -9q-71 0 -127 3.5t-103 13t-82 20t-63 32.5t-46.5 42.5t-32 56.5t-20.5 68.5 t-11.5 85.5t-5.5 100t-1 118zM217 1466v11h315l187 -287v-10h-232zM420 524q0 -206 22 -249.5t142 -43.5t142 43.5t22 249.5q0 204 -22 246.5t-142 42.5t-142 -42.5t-22 -246.5z" />
<glyph unicode="&#xf3;" horiz-adv-x="1167" d="M92 524q0 121 4 188t20 137.5t46.5 103t86.5 61.5t136 38t199 9t198.5 -9t136 -38t86.5 -61.5t46.5 -103t20 -137.5t3.5 -188t-3.5 -188t-20 -138t-46.5 -104t-86 -62.5t-136 -38.5t-199 -9q-71 0 -127 3.5t-103 13t-82 20t-63 32.5t-46.5 42.5t-32 56.5t-20.5 68.5 t-11.5 85.5t-5.5 100t-1 118zM408 1180v10l186 287h317v-11l-270 -286h-233zM420 524q0 -206 22 -249.5t142 -43.5t142 43.5t22 249.5q0 204 -22 246.5t-142 42.5t-142 -42.5t-22 -246.5z" />
<glyph unicode="&#xf4;" horiz-adv-x="1167" d="M92 524q0 121 4 188t20 137.5t46.5 103t86.5 61.5t136 38t199 9t198.5 -9t136 -38t86.5 -61.5t46.5 -103t20 -137.5t3.5 -188t-3.5 -188t-20 -138t-46.5 -104t-86 -62.5t-136 -38.5t-199 -9q-71 0 -127 3.5t-103 13t-82 20t-63 32.5t-46.5 42.5t-32 56.5t-20.5 68.5 t-11.5 85.5t-5.5 100t-1 118zM242 1180v16l190 281h305l193 -281v-16h-213l-133 166l-131 -166h-211zM420 524q0 -206 22 -249.5t142 -43.5t142 43.5t22 249.5q0 204 -22 246.5t-142 42.5t-142 -42.5t-22 -246.5z" />
<glyph unicode="&#xf5;" horiz-adv-x="1167" d="M92 524q0 121 4 188t20 137.5t46.5 103t86.5 61.5t136 38t199 9t198.5 -9t136 -38t86.5 -61.5t46.5 -103t20 -137.5t3.5 -188t-3.5 -188t-20 -138t-46.5 -104t-86 -62.5t-136 -38.5t-199 -9q-71 0 -127 3.5t-103 13t-82 20t-63 32.5t-46.5 42.5t-32 56.5t-20.5 68.5 t-11.5 85.5t-5.5 100t-1 118zM195 1171q0 47 1 74.5t4.5 62.5t11 54.5t21 41t33.5 32t49 17.5t68 7q67 0 229 -37q110 -28 142 -28q37 0 45 16.5t8 73.5h162q0 -47 -1 -75t-4.5 -63t-11.5 -54.5t-21.5 -41t-33.5 -32.5t-49 -18t-68 -7q-28 0 -62 4.5t-52.5 8t-62 14 t-50.5 12.5q-114 29 -143 29q-36 0 -44 -17.5t-8 -73.5h-163zM420 524q0 -206 22 -249.5t142 -43.5t142 43.5t22 249.5q0 204 -22 246.5t-142 42.5t-142 -42.5t-22 -246.5z" />
<glyph unicode="&#xf6;" horiz-adv-x="1167" d="M92 524q0 121 4 188t20 137.5t46.5 103t86.5 61.5t136 38t199 9t198.5 -9t136 -38t86.5 -61.5t46.5 -103t20 -137.5t3.5 -188t-3.5 -188t-20 -138t-46.5 -104t-86 -62.5t-136 -38.5t-199 -9q-71 0 -127 3.5t-103 13t-82 20t-63 32.5t-46.5 42.5t-32 56.5t-20.5 68.5 t-11.5 85.5t-5.5 100t-1 118zM240 1219v221h268v-221h-268zM420 524q0 -206 22 -249.5t142 -43.5t142 43.5t22 249.5q0 204 -22 246.5t-142 42.5t-142 -42.5t-22 -246.5zM674 1219v221h266v-221h-266z" />
<glyph unicode="&#xf7;" horiz-adv-x="1103" d="M143 399v236h818v-236h-818zM432 31v209h238v-209h-238zM432 797v204h238v-204h-238z" />
<glyph unicode="&#xf8;" horiz-adv-x="1167" d="M92 -113l101 179q-64 54 -82.5 154.5t-18.5 303.5q0 121 4 188t20 137.5t46.5 103t86.5 61.5t136 38t199 9q107 0 172 -8l59 104h260l-100 -176q64 -54 82 -153.5t18 -303.5q0 -121 -3.5 -188t-20 -138t-46.5 -104t-86 -62.5t-136 -38.5t-199 -9q-109 0 -174 8l-60 -105 h-258zM420 524q0 -206 22 -249.5t142 -43.5t142 43.5t22 249.5q0 204 -22 246.5t-142 42.5t-142 -42.5t-22 -246.5z" />
<glyph unicode="&#xf9;" d="M125 391v653h328v-552q0 -61 1 -96.5t7.5 -65t14.5 -42.5t27 -22t38.5 -10.5t56.5 -1.5q43 0 70 8t44.5 22.5t25.5 46.5t11 69t3 100v544h327v-1044h-311l-8 127h-17q-82 -143 -301 -143q-82 0 -139 18t-92 48.5t-54 84t-25.5 112t-6.5 144.5zM270 1466v11h318l186 -287 v-10h-233z" />
<glyph unicode="&#xfa;" d="M125 391v653h328v-552q0 -61 1 -96.5t7.5 -65t14.5 -42.5t27 -22t38.5 -10.5t56.5 -1.5q43 0 70 8t44.5 22.5t25.5 46.5t11 69t3 100v544h327v-1044h-311l-8 127h-17q-82 -143 -301 -143q-82 0 -139 18t-92 48.5t-54 84t-25.5 112t-6.5 144.5zM428 1180v10l186 287h318 v-11l-270 -286h-234z" />
<glyph unicode="&#xfb;" d="M125 391v653h328v-552q0 -61 1 -96.5t7.5 -65t14.5 -42.5t27 -22t38.5 -10.5t56.5 -1.5q43 0 70 8t44.5 22.5t25.5 46.5t11 69t3 100v544h327v-1044h-311l-8 127h-17q-82 -143 -301 -143q-82 0 -139 18t-92 48.5t-54 84t-25.5 112t-6.5 144.5zM258 1180v16l191 281h305 l192 -281v-16h-211l-135 166l-131 -166h-211z" />
<glyph unicode="&#xfc;" d="M125 391v653h328v-552q0 -61 1 -96.5t7.5 -65t14.5 -42.5t27 -22t38.5 -10.5t56.5 -1.5q43 0 70 8t44.5 22.5t25.5 46.5t11 69t3 100v544h327v-1044h-311l-8 127h-17q-82 -143 -301 -143q-82 0 -139 18t-92 48.5t-54 84t-25.5 112t-6.5 144.5zM258 1219v221h268v-221 h-268zM692 1219v221h266v-221h-266z" />
<glyph unicode="&#xfd;" d="M125 410v634h328v-534q0 -61 1 -96.5t7.5 -65t14.5 -42.5t27 -22t38.5 -10.5t56.5 -1.5q43 0 70 8t44.5 22.5t25.5 46.5t11 69t3 100v526h327v-927q0 -62 -1.5 -105.5t-6 -92t-12.5 -82t-22 -69.5t-34.5 -59.5t-49 -47t-65.5 -37.5t-85 -25t-107 -16t-131 -5 q-208 0 -362 25v227q250 -4 282 -4q68 0 109.5 2.5t74 13.5t47 23t24 43t11 60t1.5 87v84h-17q-79 -135 -293 -135q-82 0 -139 17.5t-92 48.5t-54 84t-25.5 111.5t-6.5 144.5zM428 1180v10l186 287h318v-11l-270 -286h-234z" />
<glyph unicode="&#xfe;" horiz-adv-x="1191" d="M125 -387v1909h328v-600h18q42 80 114.5 109.5t172.5 29.5q95 0 157 -24.5t105 -86t61.5 -164.5t18.5 -262q0 -209 -35 -326.5t-107 -165.5t-198 -48q-101 0 -172 27t-117 100h-18v-498h-328zM453 522q0 -148 16 -190q15 -45 46.5 -61.5t96.5 -16.5q41 0 63.5 2t43 12.5 t29 25t15.5 48.5t8 72.5t1 107.5t-1.5 107.5t-8 73t-15 49.5t-29 26t-43.5 13t-63 2q-60 0 -91 -15.5t-46 -54.5q-22 -49 -22 -201z" />
<glyph unicode="&#xff;" d="M125 410v634h328v-534q0 -61 1 -96.5t7.5 -65t14.5 -42.5t27 -22t38.5 -10.5t56.5 -1.5q43 0 70 8t44.5 22.5t25.5 46.5t11 69t3 100v526h327v-927q0 -62 -1.5 -105.5t-6 -92t-12.5 -82t-22 -69.5t-34.5 -59.5t-49 -47t-65.5 -37.5t-85 -25t-107 -16t-131 -5 q-208 0 -362 25v227q250 -4 282 -4q68 0 109.5 2.5t74 13.5t47 23t24 43t11 60t1.5 87v84h-17q-79 -135 -293 -135q-82 0 -139 17.5t-92 48.5t-54 84t-25.5 111.5t-6.5 144.5zM258 1219v221h268v-221h-268zM692 1219v221h266v-221h-266z" />
<glyph unicode="&#x104;" horiz-adv-x="1415" d="M16 0l451 1409h481l451 -1409h-137q-41 -31 -72 -73.5t-31 -78.5q0 -34 20.5 -51.5t75.5 -17.5q19 0 35 2v-166q-59 -6 -139 -6q-258 0 -258 172q0 119 135 244l-76 249h-499l-82 -274h-355zM535 557h335l-163 547h-13z" />
<glyph unicode="&#x105;" horiz-adv-x="1153" d="M80 297q0 93 14 151.5t51.5 98t100.5 55.5t162 16q102 0 290 -8v39q0 42 -2.5 67.5t-14.5 45t-25.5 29t-47.5 15t-66.5 6.5t-97.5 1q-153 0 -305 -16v231q207 33 410 33q73 0 132 -5.5t105 -14.5t81.5 -26t61 -36t43 -48t28 -57.5t16.5 -70t8 -80t2 -92.5v-631h2 q-46 -29 -87.5 -78.5t-41.5 -91.5q0 -34 20.5 -52t75.5 -18q19 0 35 2v-165q-68 -7 -139 -7q-258 0 -258 172q0 117 131 238h-51l-8 123h-17q-27 -45 -63.5 -74t-79.5 -42.5t-80 -18t-86 -4.5q-152 0 -225.5 73.5t-73.5 239.5zM389 328q0 -70 25 -90.5t121 -20.5 q108 0 141 57q22 40 22 134v38h-188q-79 0 -100 -20.5t-21 -97.5z" />
<glyph unicode="&#x106;" horiz-adv-x="1159" d="M113 705q0 113 4 193.5t15.5 156.5t30 126.5t51 95t75 70t104.5 45t138 26.5t176 7q218 0 356 -36v-254q-193 18 -272 18q-50 0 -84 -1t-67.5 -6.5t-54 -11t-41 -21t-31 -29.5t-20.5 -43.5t-14 -56.5t-7.5 -74.5t-4 -91.5t-0.5 -113q0 -87 1 -138.5t7 -105t13.5 -80.5 t26 -54.5t39 -38t58 -20t77 -11t102.5 -1.5q140 0 280 18v-260q-153 -30 -364 -30q-100 0 -176 7.5t-138 26.5t-104.5 44.5t-74.5 70.5t-51 95t-30.5 126.5t-15.5 157t-4 193.5zM498 1544v10l186 287h317v-10l-270 -287h-233z" />
<glyph unicode="&#x107;" horiz-adv-x="944" d="M92 522q0 83 3 137.5t13 116.5t28.5 101t51.5 77.5t80.5 59.5t115.5 34t157 13q168 0 313 -33v-231q-114 16 -223 16q-50 0 -82 -4t-56.5 -18t-37.5 -31.5t-21 -54t-10 -76.5t-2 -107q0 -68 2 -109t10.5 -77t21.5 -53.5t38 -31t57 -17t82 -3.5q100 0 229 17v-232 q-144 -32 -317 -32q-64 0 -117.5 5.5t-95.5 18t-75.5 27.5t-58 40t-42 48.5t-29.5 61t-19 69.5t-10.5 80.5t-4.5 88.5t-1 99zM330 1180v10l186 287h318v-11l-271 -286h-233z" />
<glyph unicode="&#x118;" horiz-adv-x="1259" d="M152 0v1409h995v-283h-643v-274h547v-281h-547v-288h643v-283q-46 -29 -87.5 -78.5t-41.5 -91.5q0 -34 20.5 -52t75.5 -18q19 0 35 2v-165q-68 -7 -139 -7q-258 0 -258 172q0 117 131 238h-731z" />
<glyph unicode="&#x119;" horiz-adv-x="1136" d="M92 520q0 79 2.5 132.5t10.5 111t22.5 94.5t39.5 74t60.5 58.5t86 39t116 24.5t150.5 7q76 0 135 -6.5t105.5 -16t80 -32.5t57.5 -42t39.5 -60t24 -71t12.5 -89.5t5 -102t1 -121.5v-80h-624q0 -40 1 -63.5t5.5 -48.5t11 -37.5t22 -25.5t33 -18t48.5 -9.5t65 -5.5t86 -1 q138 0 311 17v-230h2q-46 -29 -87.5 -78.5t-41.5 -91.5q0 -34 21 -51.5t76 -17.5q19 0 35 2v-166q-59 -6 -140 -6q-258 0 -258 172q0 99 99 205q-33 -2 -95 -2q-122 0 -207.5 11.5t-143.5 43t-91 67t-50 104.5t-21.5 134.5t-4.5 175.5zM416 610h317q0 101 -13.5 146t-43 58 t-98.5 13q-45 0 -71.5 -5t-46 -16.5t-28 -38.5t-12 -61.5t-4.5 -95.5z" />
<glyph unicode="&#x131;" horiz-adv-x="581" d="M125 0v1044h332v-1044h-332z" />
<glyph unicode="&#x141;" horiz-adv-x="1091" d="M31 494v237l121 45v633h354v-504l299 111v-236l-299 -110v-375h559v-295h-913v539z" />
<glyph unicode="&#x142;" horiz-adv-x="620" d="M33 557v236l110 38v691h332v-576l113 41v-237l-113 -41v-709h-332v596z" />
<glyph unicode="&#x143;" horiz-adv-x="1460" d="M145 0v1409h365l455 -756h10v756h340v-1409h-332l-489 825h-9v-825h-340zM575 1544v10l187 287h317v-10l-270 -287h-234z" />
<glyph unicode="&#x144;" d="M125 0v1044h311l8 -126h19q80 143 301 143q59 0 104.5 -9t78.5 -25t56.5 -43.5t38.5 -58.5t23 -76t11 -90t3 -106v-653h-327v553q0 61 -1 96t-7.5 65t-14 43t-26.5 22t-38.5 10.5t-56.5 1.5q-43 0 -70.5 -8t-45 -22.5t-25.5 -46.5t-11 -68.5t-3 -100.5v-545h-328z M428 1180v10l186 287h318v-11l-270 -286h-234z" />
<glyph unicode="&#x152;" horiz-adv-x="2068" d="M113 705q0 122 1.5 188t10 150.5t24 125t46 91t73.5 71.5t108.5 43t149 28.5t197.5 6.5h1233v-283h-522q-82 0 -148 17q38 -96 45 -291h529v-281h-527q-7 -210 -47 -305q79 17 148 17h522v-283h-1233q-114 0 -197.5 6.5t-149 28.5t-108.5 43t-73.5 71.5t-46 91.5 t-24 125.5t-10 150.5t-1.5 188zM471 593q0 -41 3 -89.5t5 -72t11 -52.5t15.5 -40t24 -25.5t31 -18t43 -8t53 -4.5h66.5h82t60.5 9t45.5 15t29 33.5t19.5 48.5t8.5 77t5 101v138v113t-3 89t-4.5 72t-10.5 52.5t-14.5 40t-23.5 25t-31 17.5t-43 7t-53 5h-67h-66.5t-53 -4.5 t-43 -8t-31.5 -17.5t-24 -25.5t-15 -40t-11 -52.5t-5 -72t-3 -89v-112v-112z" />
<glyph unicode="&#x153;" horiz-adv-x="1800" d="M92 524q0 121 3.5 188t20 137.5t46 103t84.5 61.5t133.5 38t195.5 9q239 0 343 -88q113 88 337 88q82 0 145 -6.5t110 -25t79.5 -37t54 -58t33.5 -72t18 -95.5t7.5 -111.5t1.5 -135.5v-80h-627q0 -40 1 -63.5t5.5 -48t11.5 -37.5t22 -26t33 -18t49 -9.5t65 -5.5t86 -1 q140 0 313 17v-230q-146 -34 -377 -34q-249 0 -366 86q-104 -86 -345 -86q-117 0 -195.5 9t-133.5 38.5t-84.5 62.5t-46 104t-20 138t-3.5 188zM420 524q0 -206 22 -249.5t142 -43.5t142 43.5t22 249.5q0 204 -22 246.5t-142 42.5t-142 -42.5t-22 -246.5zM1077 610h318 q0 77 -5.5 118.5t-25.5 64.5t-46 28.5t-79 5.5q-56 0 -85 -6.5t-47.5 -32t-23.5 -64.5t-6 -114z" />
<glyph unicode="&#x15a;" horiz-adv-x="1269" d="M94 995q0 81 14.5 145.5t38.5 109t63.5 77t81.5 51.5t101 29.5t113.5 14t126.5 3.5q235 0 471 -43v-264q-268 25 -399 25q-170 0 -216 -25q-25 -12 -31.5 -34.5t-6.5 -69.5q0 -41 2 -59t14.5 -33.5t34 -21t65.5 -11.5l301 -37q91 -13 149.5 -38t96.5 -85q60 -89 60 -280 q0 -89 -13.5 -158.5t-36 -118t-60 -83.5t-76.5 -55t-95.5 -31.5t-107 -15t-119.5 -3.5q-327 0 -531 34v273q262 -25 424 -25q183 0 229 35q19 19 24 43.5t5 69.5q0 75 -19 96t-104 31l-258 32q-86 10 -148 36.5t-99 62t-58.5 88.5t-29 107.5t-7.5 127.5zM463 1544v10 l186 287h318v-10l-271 -287h-233z" />
<glyph unicode="&#x15b;" horiz-adv-x="1017" d="M78 743q0 83 22 142t57.5 93t95 53t117.5 24.5t142 5.5q204 0 371 -31v-229q-187 18 -301 18q-127 0 -163 -13t-36 -67q0 -45 15 -58t79 -19l244 -31q46 -6 76 -15t59.5 -29.5t46.5 -53t27 -86t10 -128.5q0 -64 -10.5 -114t-28.5 -85t-47.5 -60t-61 -39.5t-77 -23 t-87 -11t-98.5 -2.5q-221 0 -419 28v230q183 -17 323 -17q95 0 137.5 8.5t53 24t10.5 53.5q0 47 -17 60t-90 22l-243 31q-52 7 -89 25t-60 43.5t-36 65t-17.5 82.5t-4.5 103zM334 1180v10l186 287h318v-11l-271 -286h-233z" />
<glyph unicode="&#x178;" horiz-adv-x="1296" d="M4 1409h365l278 -592h15l274 592h356l-467 -926v-483h-354v483zM297 1583v221h268v-221h-268zM731 1583v221h266v-221h-266z" />
<glyph unicode="&#x179;" horiz-adv-x="1265" d="M90 0v270l643 856h-620v283h1063v-260l-652 -866h656v-283h-1090zM463 1544v10l186 287h318v-10l-271 -287h-233z" />
<glyph unicode="&#x17a;" horiz-adv-x="1073" d="M88 0v233l477 564h-452v247h866v-233l-477 -563h481v-248h-895zM375 1180v10l186 287h318v-11l-271 -286h-233z" />
<glyph unicode="&#x17b;" horiz-adv-x="1265" d="M90 0v270l643 856h-620v283h1063v-260l-652 -866h656v-283h-1090zM500 1583v221h268v-221h-268z" />
<glyph unicode="&#x17c;" horiz-adv-x="1073" d="M88 0v233l477 564h-452v247h866v-233l-477 -563h481v-248h-895zM416 1219v221h268v-221h-268z" />
<glyph unicode="&#x18f;" horiz-adv-x="1392" d="M113 705v147h809q-2 70 -7 114.5t-20.5 79t-35.5 52t-61 29t-86 14t-122 2.5q-151 0 -322 -19v267q173 34 410 34q100 0 177.5 -8t139.5 -28t106 -47.5t76 -72.5t51.5 -96t31.5 -126t16 -154t4 -188q0 -141 -3 -219.5t-14 -169t-36 -134.5t-65 -90.5t-105 -65 t-152.5 -30.5t-210.5 -12q-108 0 -187.5 6.5t-141.5 28t-103 43t-70 72.5t-44 93.5t-23.5 128t-10 155t-1.5 194.5zM465 571q1 -49 2.5 -83.5t5 -67t7 -53.5t12.5 -39.5t15.5 -29t22.5 -19.5t28.5 -13t37 -6.5t44 -3t54.5 -0.5q59 0 87 1.5t60 12.5t43.5 28t23.5 55.5 t15 87.5t5 130h-463z" />
<glyph unicode="&#x192;" horiz-adv-x="1017" d="M-223 -399l47 225q72 0 111.5 2.5t71 9t46.5 23t24.5 37.5t18.5 61l180 838h-190l51 247h191v5q20 90 36 151t42 114t46 84t63.5 56.5t79 36.5t107.5 19t133 9t171 1l-48 -228h-66.5t-53 -2.5t-44 -4t-33 -10t-27 -14.5t-19.5 -23.5t-17 -31t-13 -42.5t-14 -52.5 t-14 -67.5h248l-51 -247h-250l-170 -799q-16 -76 -30 -128t-38 -96.5t-43.5 -70.5t-62 -47.5t-77 -31t-106 -15.5t-131.5 -7t-169 -1z" />
<glyph unicode="&#x19d;" horiz-adv-x="1460" d="M-23 -180q59 0 93 5t50.5 20t20.5 32t4 51v1481h365l455 -756h10v756h340v-1409h-332l-489 825h-9v-825q0 -73 -4 -125.5t-17 -96t-29.5 -72.5t-48 -50.5t-65 -33.5t-90 -19t-112.5 -9t-142 -2v228z" />
<glyph unicode="&#x1a0;" horiz-adv-x="1445" d="M113 705q0 125 1.5 192.5t10 153.5t24 128t46 93.5t73.5 73t108.5 44t149 29t197.5 6.5t198 -6.5t149.5 -29t108.5 -44t73 -73.5t45.5 -93t24 -128t10 -153.5t1.5 -192.5t-1.5 -192.5t-10 -153.5t-24 -128.5t-45.5 -93.5t-73 -73t-108.5 -44t-149.5 -29.5t-198 -6.5 q-113 0 -197 6.5t-149.5 29t-108.5 44t-73 73.5t-46 93.5t-24.5 128t-10 154t-1.5 192.5zM471 562.5q0 -49.5 5.5 -105.5t9.5 -80t20 -51.5t29.5 -34.5t46 -15.5t60 -9t81.5 -0.5h82t60.5 9.5t45.5 15.5t29 35t19.5 51t8.5 80t5 105v143v143t-5 105t-8.5 79.5t-19.5 50.5 t-29 35.5t-45.5 15.5t-60.5 9h-82h-66.5t-53 -5t-43 -8.5t-31.5 -18t-24 -26.5t-15 -41.5t-11 -54.5t-5 -75t-3 -92.5v-116.5v-142.5zM1358 1288v121h106q86 0 109.5 26t23.5 105v55h213v-36q0 -57 -4.5 -94t-18 -70t-36 -51t-62 -32t-93.5 -19t-132 -5h-106z" />
<glyph unicode="&#x1a1;" horiz-adv-x="1167" d="M92 524q0 121 4 188t20 137.5t46.5 103t86.5 61.5t136 38t199 9q147 0 233 -17q70 3 90.5 30t20.5 102v55h213v-37q0 -117 -25.5 -172.5t-105.5 -77.5q41 -57 53 -151t12 -269q0 -121 -3.5 -188t-20 -138t-46.5 -104t-86 -62.5t-136 -38.5t-199 -9q-71 0 -127 3.5 t-103 13t-82 20t-63 32.5t-46.5 42.5t-32 56.5t-20.5 68.5t-11.5 85.5t-5.5 100t-1 118zM420 524q0 -206 22 -249.5t142 -43.5t142 43.5t22 249.5q0 204 -22 246.5t-142 42.5t-142 -42.5t-22 -246.5z" />
<glyph unicode="&#x1af;" horiz-adv-x="1404" d="M137 635v774h355v-850q0 -46 0.5 -73.5t2 -60t4 -49.5t9 -37.5t13.5 -29.5t19.5 -20.5t26.5 -15t35.5 -7.5t44.5 -5t55 -1q33 0 56 0.5t44.5 5t35 8t26.5 15t19.5 20t12.5 30t8.5 37.5t4.5 49.5t2 59.5v74v850h226q86 0 109.5 26t23.5 105v55h213v-36q0 -71 -7.5 -114 t-30.5 -77.5t-66 -51t-113 -22.5v-659q0 -85 -1.5 -143.5t-7 -120.5t-14.5 -103t-25 -83t-37.5 -68t-53.5 -51t-72 -38.5t-93.5 -24.5t-116.5 -15t-143 -4t-143 4t-116.5 15t-93.5 24.5t-72 38.5t-54 51t-38 68t-25 83t-14.5 103t-7 121t-1.5 143z" />
<glyph unicode="&#x1b0;" d="M125 391v653h328v-552q0 -61 1 -96.5t7.5 -65t14.5 -42.5t27 -22t38.5 -10.5t56.5 -1.5q43 0 70 8t44.5 22.5t25.5 46.5t11 69t3 100v544h161q86 0 110 26.5t24 105.5v55h213v-37q0 -66 -6.5 -107t-25.5 -75t-55 -51.5t-94 -26.5v-934h-311l-8 127h-17 q-82 -143 -301 -143q-82 0 -139 18t-92 48.5t-54 84t-25.5 112t-6.5 144.5z" />
<glyph unicode="&#x1c4;" horiz-adv-x="2668" d="M152 0v1409h497q95 0 170 -4.5t136.5 -18.5t107.5 -27.5t81.5 -44t59.5 -56t40.5 -75.5t25.5 -89t13.5 -111t5.5 -127.5t1 -150.5q0 -120 -2 -185.5t-10.5 -149t-25.5 -125t-48.5 -92t-77 -72.5t-113.5 -44.5t-156.5 -29.5t-207.5 -7h-497zM504 283h135h95.5t69.5 8 t53.5 13.5t33 32.5t23.5 48t9.5 77t6.5 102.5v140.5v115t-3.5 90t-4.5 72.5t-12.5 52t-17 39.5t-28 24.5t-35.5 17t-50 6.5t-60.5 4h-77.5h-2h-135v-843zM1491 0v270l643 856h-621v283h1063v-260l-651 -866h655v-283h-1089zM1692 1827v14h211l133 -166l133 166h211v-14 l-193 -283h-305z" />
<glyph unicode="&#x1c5;" horiz-adv-x="2473" d="M152 0v1409h497q95 0 170 -4.5t136.5 -18.5t107.5 -27.5t81.5 -44t59.5 -56t40.5 -75.5t25.5 -89t13.5 -111t5.5 -127.5t1 -150.5q0 -120 -2 -185.5t-10.5 -149t-25.5 -125t-48.5 -92t-77 -72.5t-113.5 -44.5t-156.5 -29.5t-207.5 -7h-497zM504 283h135h95.5t69.5 8 t53.5 13.5t33 32.5t23.5 48t9.5 77t6.5 102.5v140.5v115t-3.5 90t-4.5 72.5t-12.5 52t-17 39.5t-28 24.5t-35.5 17t-50 6.5t-60.5 4h-77.5h-2h-135v-843zM1489 0v233l477 564h-453v247h867v-233l-477 -563h481v-248h-895zM1608 1462v15h211l133 -166l133 166h211v-15 l-193 -282h-305z" />
<glyph unicode="&#x1c6;" horiz-adv-x="2263" d="M92 520q0 209 35 327t106.5 166t196.5 48q103 0 174 -27t117 -100h16v588h328v-1522h-309l-8 125h-19q-42 -80 -118.5 -110.5t-178.5 -30.5q-95 0 -156.5 24.5t-104.5 85.5t-61 164t-18 262zM420 522q0 -69 1.5 -107.5t8 -73t15 -49t29 -25.5t43 -13t63.5 -2 q63 0 94.5 16t44.5 56q18 55 18 198q0 142 -16 191q-13 44 -45 61t-96 17q-40 0 -63 -2t-43.5 -13t-29 -26t-15 -49t-8 -72.5t-1.5 -106.5zM1280 0v233l477 564h-452v247h866v-233l-477 -563h481v-248h-895zM1399 1462v15h211l133 -166l133 166h211v-15l-193 -282h-305z" />
<glyph unicode="&#x1c7;" horiz-adv-x="1937" d="M152 0v1409h354v-1114h559v-295h-913zM1157 0v258q47 0 76.5 0.5t61 4.5t48.5 6t35.5 13t26.5 18t17 27.5t11.5 34.5t5.5 47t3 57.5v72.5v870h354v-776q0 -131 -1 -203.5t-14 -151.5t-24 -114t-51.5 -74t-75.5 -50.5t-115.5 -24t-152.5 -14t-205 -1.5z" />
<glyph unicode="&#x1c8;" horiz-adv-x="1693" d="M152 0v1409h354v-1114h559v-295h-913zM1069 -180q78 0 113.5 11.5t44 31t8.5 65.5v1116h332v-1044q0 -73 -4 -125.5t-17 -96t-28.5 -72.5t-47 -50.5t-64 -33.5t-88 -19t-110.5 -9t-139 -2v228zM1233 1257v265h336v-265h-336z" />
<glyph unicode="&#x1c9;" horiz-adv-x="1165" d="M125 0v1522h332v-1522h-332zM541 -180q78 0 113.5 11.5t44 31t8.5 65.5v1116h331v-1044q0 -73 -4 -125.5t-16.5 -96t-28.5 -72.5t-47 -50.5t-64 -33.5t-88 -19t-110 -9t-139 -2v228zM705 1257v265h335v-265h-335z" />
<glyph unicode="&#x1ca;" horiz-adv-x="2285" d="M145 0v1409h365l455 -756h10v756h340v-1409h-332l-489 825h-9v-825h-340zM1507 0v258q47 0 76.5 0.5t61 4.5t48.5 6t35.5 13t26.5 18t17 27.5t11.5 34.5t5.5 47t3 57.5v72.5v870h354v-776q0 -131 -1 -203.5t-14 -151.5t-24 -114t-51.5 -74t-75.5 -50.5t-115.5 -24 t-152.5 -14t-205 -1.5z" />
<glyph unicode="&#x1cb;" horiz-adv-x="2041" d="M145 0v1409h365l455 -756h10v756h340v-1409h-332l-489 825h-9v-825h-340zM1419 -180q78 0 113.5 11.5t44 31t8.5 65.5v1116h332v-1044q0 -73 -4 -125.5t-17 -96t-28.5 -72.5t-47 -50.5t-64 -33.5t-88 -19t-110.5 -9t-139 -2v228zM1583 1257v265h336v-265h-336z" />
<glyph unicode="&#x1cc;" horiz-adv-x="1787" d="M125 0v1044h311l8 -126h19q80 143 301 143q59 0 104.5 -9t78.5 -25t56.5 -43.5t38.5 -58.5t23 -76t11 -90t3 -106v-653h-327v553q0 61 -1 96t-7.5 65t-14 43t-26.5 22t-38.5 10.5t-56.5 1.5q-43 0 -70.5 -8t-45 -22.5t-25.5 -46.5t-11 -68.5t-3 -100.5v-545h-328z M1165 -180q78 0 113.5 11.5t44 31t8.5 65.5v1116h332v-1044q0 -73 -4 -125.5t-17 -96t-28.5 -72.5t-47 -50.5t-64 -33.5t-88 -19t-110.5 -9t-139 -2v228zM1329 1257v265h336v-265h-336z" />
<glyph unicode="&#x1cd;" horiz-adv-x="1415" d="M16 0l451 1409h481l451 -1409h-363l-84 274h-499l-82 -274h-355zM365 1827v14h210l134 -166l133 166h211v-14l-193 -283h-305zM535 557h335l-163 547h-13z" />
<glyph unicode="&#x1ce;" horiz-adv-x="1153" d="M80 297q0 93 14 151.5t51.5 98t100.5 55.5t162 16q102 0 290 -8v39q0 42 -2.5 67.5t-14.5 45t-25.5 29t-47.5 15t-66.5 6.5t-97.5 1q-153 0 -305 -16v231q207 33 410 33q73 0 132 -5.5t105 -14.5t81.5 -26t61 -36t43 -48t28 -57.5t16.5 -70t8 -80t2 -92.5v-631h-313 l-8 123h-17q-27 -45 -63.5 -74t-79.5 -42.5t-80 -18t-86 -4.5q-152 0 -225.5 73.5t-73.5 239.5zM238 1462v15h211l133 -166l133 166h211v-15l-193 -282h-305zM389 328q0 -70 25 -90.5t121 -20.5q108 0 141 57q22 40 22 134v38h-188q-79 0 -100 -20.5t-21 -97.5z" />
<glyph unicode="&#x1cf;" horiz-adv-x="645" d="M-20 1827v14h210l134 -166l133 166h211v-14l-193 -283h-305zM145 0v1409h355v-1409h-355z" />
<glyph unicode="&#x1d0;" horiz-adv-x="581" d="M-53 1462v15h211l133 -166l133 166h211v-15l-193 -282h-305zM125 0v1044h332v-1044h-332z" />
<glyph unicode="&#x1d1;" horiz-adv-x="1445" d="M113 705q0 125 1.5 192.5t10 153.5t24 128t46 93.5t73.5 73t108.5 44t149 29t197.5 6.5t198 -6.5t149.5 -29t108.5 -44t73 -73.5t45.5 -93t24 -128t10 -153.5t1.5 -192.5t-1.5 -192.5t-10 -153.5t-24 -128.5t-45.5 -93.5t-73 -73t-108.5 -44t-149.5 -29.5t-198 -6.5 q-113 0 -197 6.5t-149.5 29t-108.5 44t-73 73.5t-46 93.5t-24.5 128t-10 154t-1.5 192.5zM379 1827v14h211l133 -166l133 166h211v-14l-193 -283h-305zM471 562.5q0 -49.5 5.5 -105.5t9.5 -80t20 -51.5t29.5 -34.5t46 -15.5t60 -9t81.5 -0.5h82t60.5 9.5t45.5 15.5t29 35 t19.5 51t8.5 80t5 105v143v143t-5 105t-8.5 79.5t-19.5 50.5t-29 35.5t-45.5 15.5t-60.5 9h-82h-66.5t-53 -5t-43 -8.5t-31.5 -18t-24 -26.5t-15 -41.5t-11 -54.5t-5 -75t-3 -92.5v-116.5v-142.5z" />
<glyph unicode="&#x1d2;" horiz-adv-x="1167" d="M92 524q0 121 4 188t20 137.5t46.5 103t86.5 61.5t136 38t199 9t198.5 -9t136 -38t86.5 -61.5t46.5 -103t20 -137.5t3.5 -188t-3.5 -188t-20 -138t-46.5 -104t-86 -62.5t-136 -38.5t-199 -9q-71 0 -127 3.5t-103 13t-82 20t-63 32.5t-46.5 42.5t-32 56.5t-20.5 68.5 t-11.5 85.5t-5.5 100t-1 118zM240 1462v15h211l133 -166l133 166h211v-15l-193 -282h-305zM420 524q0 -206 22 -249.5t142 -43.5t142 43.5t22 249.5q0 204 -22 246.5t-142 42.5t-142 -42.5t-22 -246.5z" />
<glyph unicode="&#x1d3;" horiz-adv-x="1404" d="M137 635v774h355v-850q0 -46 0.5 -73.5t2 -60t4 -49.5t9 -37.5t13.5 -29.5t19.5 -20.5t26.5 -15t35.5 -7.5t44.5 -5t55 -1q33 0 56 0.5t44.5 5t35 8t26.5 15t19.5 20t12.5 30t8.5 37.5t4.5 49.5t2 59.5v74v850h355v-774q0 -85 -1.5 -143.5t-7 -120.5t-14.5 -103t-25 -83 t-37.5 -68t-53.5 -51t-72 -38.5t-93.5 -24.5t-116.5 -15t-143 -4t-143 4t-116.5 15t-93.5 24.5t-72 38.5t-54 51t-38 68t-25 83t-14.5 103t-7 121t-1.5 143zM358 1827v14h211l133 -166l134 166h211v-14l-193 -283h-305z" />
<glyph unicode="&#x1d4;" d="M125 391v653h328v-552q0 -61 1 -96.5t7.5 -65t14.5 -42.5t27 -22t38.5 -10.5t56.5 -1.5q43 0 70 8t44.5 22.5t25.5 46.5t11 69t3 100v544h327v-1044h-311l-8 127h-17q-82 -143 -301 -143q-82 0 -139 18t-92 48.5t-54 84t-25.5 112t-6.5 144.5zM258 1462v15h211l133 -166 l133 166h211v-15l-192 -282h-305z" />
<glyph unicode="&#x1d5;" horiz-adv-x="1404" d="M137 635v774h355v-850q0 -46 0.5 -73.5t2 -60t4 -49.5t9 -37.5t13.5 -29.5t19.5 -20.5t26.5 -15t35.5 -7.5t44.5 -5t55 -1q33 0 56 0.5t44.5 5t35 8t26.5 15t19.5 20t12.5 30t8.5 37.5t4.5 49.5t2 59.5v74v850h355v-774q0 -85 -1.5 -143.5t-7 -120.5t-14.5 -103t-25 -83 t-37.5 -68t-53.5 -51t-72 -38.5t-93.5 -24.5t-116.5 -15t-143 -4t-143 4t-116.5 15t-93.5 24.5t-72 38.5t-54 51t-38 68t-25 83t-14.5 103t-7 121t-1.5 143zM352 1583v221h269v-221h-269zM367 1956v166h673v-166h-673zM786 1583v221h267v-221h-267z" />
<glyph unicode="&#x1d6;" d="M125 391v653h328v-552q0 -61 1 -96.5t7.5 -65t14.5 -42.5t27 -22t38.5 -10.5t56.5 -1.5q43 0 70 8t44.5 22.5t25.5 46.5t11 69t3 100v544h327v-1044h-311l-8 127h-17q-82 -143 -301 -143q-82 0 -139 18t-92 48.5t-54 84t-25.5 112t-6.5 144.5zM258 1219v221h268v-221 h-268zM264 1544v191h674v-191h-674zM692 1219v221h266v-221h-266z" />
<glyph unicode="&#x1d7;" horiz-adv-x="1404" d="M137 635v774h355v-850q0 -46 0.5 -73.5t2 -60t4 -49.5t9 -37.5t13.5 -29.5t19.5 -20.5t26.5 -15t35.5 -7.5t44.5 -5t55 -1q33 0 56 0.5t44.5 5t35 8t26.5 15t19.5 20t12.5 30t8.5 37.5t4.5 49.5t2 59.5v74v850h355v-774q0 -85 -1.5 -143.5t-7 -120.5t-14.5 -103t-25 -83 t-37.5 -68t-53.5 -51t-72 -38.5t-93.5 -24.5t-116.5 -15t-143 -4t-143 4t-116.5 15t-93.5 24.5t-72 38.5t-54 51t-38 68t-25 83t-14.5 103t-7 121t-1.5 143zM352 1583v221h269v-221h-269zM530 1939v11l187 286h317v-10l-270 -287h-234zM786 1583v221h267v-221h-267z" />
<glyph unicode="&#x1d8;" d="M125 391v653h328v-552q0 -61 1 -96.5t7.5 -65t14.5 -42.5t27 -22t38.5 -10.5t56.5 -1.5q43 0 70 8t44.5 22.5t25.5 46.5t11 69t3 100v544h327v-1044h-311l-8 127h-17q-82 -143 -301 -143q-82 0 -139 18t-92 48.5t-54 84t-25.5 112t-6.5 144.5zM258 1219v221h268v-221 h-268zM426 1507v11l186 286h318v-10l-271 -287h-233zM692 1219v221h266v-221h-266z" />
<glyph unicode="&#x1d9;" horiz-adv-x="1404" d="M137 635v774h355v-850q0 -46 0.5 -73.5t2 -60t4 -49.5t9 -37.5t13.5 -29.5t19.5 -20.5t26.5 -15t35.5 -7.5t44.5 -5t55 -1q33 0 56 0.5t44.5 5t35 8t26.5 15t19.5 20t12.5 30t8.5 37.5t4.5 49.5t2 59.5v74v850h355v-774q0 -85 -1.5 -143.5t-7 -120.5t-14.5 -103t-25 -83 t-37.5 -68t-53.5 -51t-72 -38.5t-93.5 -24.5t-116.5 -15t-143 -4t-143 4t-116.5 15t-93.5 24.5t-72 38.5t-54 51t-38 68t-25 83t-14.5 103t-7 121t-1.5 143zM352 1583v221h269v-221h-269zM358 2222v14h211l133 -165l134 165h211v-14l-193 -283h-305zM786 1583v221h267v-221 h-267z" />
<glyph unicode="&#x1da;" d="M125 391v653h328v-552q0 -61 1 -96.5t7.5 -65t14.5 -42.5t27 -22t38.5 -10.5t56.5 -1.5q43 0 70 8t44.5 22.5t25.5 46.5t11 69t3 100v544h327v-1044h-311l-8 127h-17q-82 -143 -301 -143q-82 0 -139 18t-92 48.5t-54 84t-25.5 112t-6.5 144.5zM258 1219v221h268v-221 h-268zM258 1790v14h211l133 -166l133 166h211v-14l-192 -283h-305zM692 1219v221h266v-221h-266z" />
<glyph unicode="&#x1db;" horiz-adv-x="1404" d="M137 635v774h355v-850q0 -46 0.5 -73.5t2 -60t4 -49.5t9 -37.5t13.5 -29.5t19.5 -20.5t26.5 -15t35.5 -7.5t44.5 -5t55 -1q33 0 56 0.5t44.5 5t35 8t26.5 15t19.5 20t12.5 30t8.5 37.5t4.5 49.5t2 59.5v74v850h355v-774q0 -85 -1.5 -143.5t-7 -120.5t-14.5 -103t-25 -83 t-37.5 -68t-53.5 -51t-72 -38.5t-93.5 -24.5t-116.5 -15t-143 -4t-143 4t-116.5 15t-93.5 24.5t-72 38.5t-54 51t-38 68t-25 83t-14.5 103t-7 121t-1.5 143zM352 1583v221h269v-221h-269zM365 2226v10h317l186 -286v-11h-233zM786 1583v221h267v-221h-267z" />
<glyph unicode="&#x1dc;" d="M125 391v653h328v-552q0 -61 1 -96.5t7.5 -65t14.5 -42.5t27 -22t38.5 -10.5t56.5 -1.5q43 0 70 8t44.5 22.5t25.5 46.5t11 69t3 100v544h327v-1044h-311l-8 127h-17q-82 -143 -301 -143q-82 0 -139 18t-92 48.5t-54 84t-25.5 112t-6.5 144.5zM258 1219v221h268v-221 h-268zM268 1794v10h318l186 -286v-11h-233zM692 1219v221h266v-221h-266z" />
<glyph unicode="&#x1e6;" horiz-adv-x="1368" d="M113 705q0 145 10.5 246.5t37.5 186t71.5 136t116.5 87.5t166.5 50t227.5 14q49 0 101 -2.5t97.5 -6.5t87.5 -9t76.5 -10t59 -9t42 -7t18.5 -3v-264q-9 2 -67 8.5t-145 13.5t-141 7q-108 0 -158 -1.5t-106.5 -17.5t-74.5 -38t-37.5 -77t-22 -121t-2.5 -183 q0 -77 1.5 -129.5t7 -101.5t14 -79t24.5 -56.5t36 -40t51.5 -24t67.5 -13.5t87 -3t141 4v293h-194v266h524v-788q-105 -22 -243 -35.5t-245 -13.5q-102 0 -177 6t-141 22t-111 40t-81.5 65.5t-58 93t-36 126.5t-20 162.5t-5.5 205.5zM344 1827v14h211l133 -166l133 166h211 v-14l-192 -283h-305z" />
<glyph unicode="&#x1e7;" horiz-adv-x="1191" d="M92 530q0 126 12.5 215.5t37 151t66 97.5t96 51.5t130.5 15.5q222 0 295 -143h19l8 126h309v-925q0 -62 -1.5 -105.5t-6 -92.5t-13 -82t-22.5 -69.5t-34.5 -60t-49.5 -47t-66.5 -37.5t-86 -25.5t-109 -16.5t-133.5 -5q-231 0 -369 27v227q252 -6 285 -6q53 0 88.5 1t67 7 t49.5 11.5t33.5 20.5t22 29t11 41.5t5.5 53t1 69.5v74h-14q-44 -74 -114.5 -101.5t-172.5 -27.5q-128 0 -200.5 46t-108 160.5t-35.5 319.5zM252 1462v15h211l133 -166l133 166h211v-15l-192 -282h-306zM420 530q0 -66 1.5 -103.5t8 -70t15 -47t29 -25t43.5 -12.5t63 -2 q60 0 90 14t45 50q22 47 22 196t-20 195q-15 38 -46.5 53t-90.5 15q-40 0 -63 -2t-43.5 -13t-29 -25.5t-15 -47.5t-8 -71t-1.5 -104z" />
<glyph unicode="&#x1ea;" horiz-adv-x="1445" d="M113 705q0 125 1.5 192.5t10 153.5t24 128t46 93.5t73.5 73t108.5 44t149 29t197.5 6.5t198 -6.5t149.5 -29t108.5 -44t73 -73.5t45.5 -93t24 -128t10 -153.5t1.5 -192.5q0 -106 -1 -164t-6 -135.5t-14.5 -118t-27 -91.5t-43.5 -77t-64 -54t-88.5 -43t-117.5 -24 q-42 -33 -71.5 -74t-29.5 -76q0 -34 21 -51.5t76 -17.5q18 0 34 2v-166q-59 -6 -139 -6q-258 0 -258 172q0 100 96 203q-125 1 -213.5 14.5t-153.5 32.5t-105 67.5t-64 91.5t-35 135t-13.5 165.5t-2.5 214.5zM471 562.5q0 -49.5 5.5 -105.5t9.5 -80t20 -51.5t29.5 -34.5 t46 -15.5t60 -9t81.5 -0.5h82t60.5 9.5t45.5 15.5t29 35t19.5 51t8.5 80t5 105v143v143t-5 105t-8.5 79.5t-19.5 50.5t-29 35.5t-45.5 15.5t-60.5 9h-82h-66.5t-53 -5t-43 -8.5t-31.5 -18t-24 -26.5t-15 -41.5t-11 -54.5t-5 -75t-3 -92.5v-116.5v-142.5z" />
<glyph unicode="&#x1eb;" horiz-adv-x="1167" d="M92 524q0 121 4 188t20 137.5t46.5 103t86.5 61.5t136 38t199 9t198.5 -9t136 -38t86.5 -61.5t46.5 -103t20 -137.5t3.5 -188q0 -70 -1 -115.5t-4.5 -98t-11 -84.5t-19.5 -68t-30 -57t-43 -42.5t-59 -33.5t-77 -21t-97 -14q-43 -32 -77.5 -77t-34.5 -83q0 -34 20.5 -52 t75.5 -18q19 0 35 2v-165q-68 -7 -140 -7q-258 0 -258 172q0 110 117 224q-54 3 -97.5 9t-79.5 18t-63 25t-48 35.5t-35.5 44t-25 57t-16.5 67t-9 81t-4 93t-1 108.5zM420 524q0 -206 22 -249.5t142 -43.5t142 43.5t22 249.5q0 204 -22 246.5t-142 42.5t-142 -42.5 t-22 -246.5z" />
<glyph unicode="&#x1f1;" horiz-adv-x="2668" d="M152 0v1409h497q95 0 170 -4.5t136.5 -18.5t107.5 -27.5t81.5 -44t59.5 -56t40.5 -75.5t25.5 -89t13.5 -111t5.5 -127.5t1 -150.5q0 -120 -2 -185.5t-10.5 -149t-25.5 -125t-48.5 -92t-77 -72.5t-113.5 -44.5t-156.5 -29.5t-207.5 -7h-497zM504 283h135h95.5t69.5 8 t53.5 13.5t33 32.5t23.5 48t9.5 77t6.5 102.5v140.5v115t-3.5 90t-4.5 72.5t-12.5 52t-17 39.5t-28 24.5t-35.5 17t-50 6.5t-60.5 4h-77.5h-2h-135v-843zM1491 0v270l643 856h-621v283h1063v-260l-651 -866h655v-283h-1089z" />
<glyph unicode="&#x1f2;" horiz-adv-x="2473" d="M152 0v1409h497q95 0 170 -4.5t136.5 -18.5t107.5 -27.5t81.5 -44t59.5 -56t40.5 -75.5t25.5 -89t13.5 -111t5.5 -127.5t1 -150.5q0 -120 -2 -185.5t-10.5 -149t-25.5 -125t-48.5 -92t-77 -72.5t-113.5 -44.5t-156.5 -29.5t-207.5 -7h-497zM504 283h135h95.5t69.5 8 t53.5 13.5t33 32.5t23.5 48t9.5 77t6.5 102.5v140.5v115t-3.5 90t-4.5 72.5t-12.5 52t-17 39.5t-28 24.5t-35.5 17t-50 6.5t-60.5 4h-77.5h-2h-135v-843zM1489 0v233l477 564h-453v247h867v-233l-477 -563h481v-248h-895z" />
<glyph unicode="&#x1f3;" horiz-adv-x="2263" d="M92 520q0 209 35 327t106.5 166t196.5 48q103 0 174 -27t117 -100h16v588h328v-1522h-309l-8 125h-19q-42 -80 -118.5 -110.5t-178.5 -30.5q-95 0 -156.5 24.5t-104.5 85.5t-61 164t-18 262zM420 522q0 -69 1.5 -107.5t8 -73t15 -49t29 -25.5t43 -13t63.5 -2 q63 0 94.5 16t44.5 56q18 55 18 198q0 142 -16 191q-13 44 -45 61t-96 17q-40 0 -63 -2t-43.5 -13t-29 -26t-15 -49t-8 -72.5t-1.5 -106.5zM1280 0v233l477 564h-452v247h866v-233l-477 -563h481v-248h-895z" />
<glyph unicode="&#x1f4;" horiz-adv-x="1368" d="M113 705q0 145 10.5 246.5t37.5 186t71.5 136t116.5 87.5t166.5 50t227.5 14q49 0 101 -2.5t97.5 -6.5t87.5 -9t76.5 -10t59 -9t42 -7t18.5 -3v-264q-9 2 -67 8.5t-145 13.5t-141 7q-108 0 -158 -1.5t-106.5 -17.5t-74.5 -38t-37.5 -77t-22 -121t-2.5 -183 q0 -77 1.5 -129.5t7 -101.5t14 -79t24.5 -56.5t36 -40t51.5 -24t67.5 -13.5t87 -3t141 4v293h-194v266h524v-788q-105 -22 -243 -35.5t-245 -13.5q-102 0 -177 6t-141 22t-111 40t-81.5 65.5t-58 93t-36 126.5t-20 162.5t-5.5 205.5zM516 1544v10l186 287h318v-10l-270 -287 h-234z" />
<glyph unicode="&#x1f5;" horiz-adv-x="1191" d="M92 530q0 126 12.5 215.5t37 151t66 97.5t96 51.5t130.5 15.5q222 0 295 -143h19l8 126h309v-925q0 -62 -1.5 -105.5t-6 -92.5t-13 -82t-22.5 -69.5t-34.5 -60t-49.5 -47t-66.5 -37.5t-86 -25.5t-109 -16.5t-133.5 -5q-231 0 -369 27v227q252 -6 285 -6q53 0 88.5 1t67 7 t49.5 11.5t33.5 20.5t22 29t11 41.5t5.5 53t1 69.5v74h-14q-44 -74 -114.5 -101.5t-172.5 -27.5q-128 0 -200.5 46t-108 160.5t-35.5 319.5zM420 530q0 -66 1.5 -103.5t8 -70t15 -47t29 -25t43.5 -12.5t63 -2q60 0 90 14t45 50q22 47 22 196t-20 195q-15 38 -46.5 53 t-90.5 15q-40 0 -63 -2t-43.5 -13t-29 -25.5t-15 -47.5t-8 -71t-1.5 -104zM420 1180v10l186 287h318v-11l-271 -286h-233z" />
<glyph unicode="&#x1fa;" horiz-adv-x="1415" d="M16 0l447 1395q-51 26 -66.5 75.5t-15.5 145.5q0 45 2 73.5t9 59.5t21 49t37 35t57 26t81.5 14t111.5 5q74 0 127 -6t89 -21t57.5 -33.5t32.5 -51.5t14.5 -65.5t3.5 -84.5q0 -90 -14 -139t-60 -76l449 -1401h-363l-84 274h-499l-82 -274h-355zM530 1962v10l187 287h317 v-10l-270 -287h-234zM535 557h335l-163 547h-13zM567 1616q0 -29 0.5 -41.5t4.5 -29.5t11.5 -22.5t23 -13t37.5 -9t56 -1.5t57 1.5t38.5 8.5t23.5 13.5t12 23t4.5 29.5t0.5 41t-0.5 41t-4.5 30t-12 23.5t-23.5 13.5t-38.5 9t-57 2q-50 0 -77 -4.5t-39.5 -22t-14.5 -34 t-2 -58.5z" />
<glyph unicode="&#x1fb;" horiz-adv-x="1153" d="M80 297q0 93 14 151.5t51.5 98t100.5 55.5t162 16q102 0 290 -8v39q0 42 -2.5 67.5t-14.5 45t-25.5 29t-47.5 15t-66.5 6.5t-97.5 1q-153 0 -305 -16v231q207 33 410 33q73 0 132 -5.5t105 -14.5t81.5 -26t61 -36t43 -48t28 -57.5t16.5 -70t8 -80t2 -92.5v-631h-313 l-8 123h-17q-27 -45 -63.5 -74t-79.5 -42.5t-80 -18t-86 -4.5q-152 0 -225.5 73.5t-73.5 239.5zM281 1391q0 49 3 79t13 60.5t29.5 47.5t52.5 31t81.5 19.5t117.5 5.5q83 0 137.5 -9.5t87.5 -25.5t49.5 -48.5t21.5 -67t5 -92.5t-5 -92t-21.5 -66t-49.5 -48t-87.5 -25 t-137.5 -9q-82 0 -136 9.5t-86.5 25t-49 47.5t-21 66t-4.5 92zM389 328q0 -70 25 -90.5t121 -20.5q108 0 141 57q22 40 22 134v38h-188q-79 0 -100 -20.5t-21 -97.5zM406 1722v11l186 286h317v-10l-270 -287h-233zM453 1391q0 -37 2 -53t14.5 -31t37 -19t71.5 -4q39 0 62 4 t37 9t20 21t7 29t1 44q0 27 -0.5 38.5t-4 27.5t-11 21.5t-22 12.5t-36 8.5t-53.5 1.5q-47 0 -71.5 -4t-37 -19.5t-14.5 -32t-2 -54.5z" />
<glyph unicode="&#x1fc;" horiz-adv-x="2004" d="M-33 0l662 1409h1261v-283h-737l45 -276h596v-279h-553l45 -288h604v-283h-903l-45 276h-498l-127 -276h-350zM565 557h338l-82 551h-12zM924 1544v10l186 287h317v-10l-270 -287h-233z" />
<glyph unicode="&#x1fd;" horiz-adv-x="1751" d="M80 297q0 93 14 151.5t51.5 98t100.5 55.5t162 16q98 0 290 -8v39q0 42 -2.5 67.5t-14.5 45t-25.5 29t-47.5 15t-66.5 6.5t-97.5 1q-157 0 -305 -16v231q190 33 393 33q231 0 340 -86q111 86 338 86q73 0 129.5 -6.5t101 -16t77 -32.5t55.5 -42.5t38 -59.5t23.5 -71 t12.5 -89.5t5 -102t1 -121.5v-78h-625q0 -53 2 -81.5t12 -56t25 -39t48.5 -21t74.5 -11.5t110 -2q137 0 314 17v-230q-150 -34 -391 -34q-157 0 -251.5 24t-146.5 78q-70 -63 -162 -82.5t-217 -19.5q-204 0 -285 70.5t-81 242.5zM389 328q0 -70 25 -90.5t121 -20.5 q65 0 99.5 17t49.5 59q14 43 14 115v36h-188q-79 0 -100 -19.5t-21 -96.5zM700 1180v10l187 287h317v-11l-270 -286h-234zM1028 610h318q0 76 -6 118t-26 65t-46 28.5t-78 5.5q-56 0 -85 -6.5t-47.5 -32t-23.5 -64.5t-6 -114z" />
<glyph unicode="&#x1fe;" horiz-adv-x="1431" d="M113 -113l116 205q-33 30 -55 74.5t-34 91.5t-18 125t-7.5 143t-1.5 179q0 100 1 158.5t5.5 132.5t12.5 114.5t24 91.5t38 76t56 55.5t76.5 43.5t101 26.5t128.5 17.5t159 4q168 0 264 -16l63 113h277l-117 -205q33 -31 55 -75t34 -91.5t18.5 -124.5t8 -143t1.5 -178 q0 -99 -1 -158t-5.5 -133t-13 -114.5t-24.5 -91.5t-38 -76.5t-56 -56t-77 -43.5t-101.5 -26.5t-128.5 -17.5t-159 -4q-166 0 -262 16l-66 -113h-274zM467 585.5q0 -43.5 3 -94.5t5 -76.5t10.5 -56t15 -42.5t24 -27.5t31 -19t42 -8.5t52 -5h65.5q53 0 80 0.5t59.5 9 t45.5 16.5t29.5 35.5t20.5 52.5t9 81t5.5 108t0.5 146v119.5t-3 94.5t-5 76t-11 56t-15.5 42.5t-24 27.5t-31 18.5t-42.5 8.5t-52 5h-66h-66t-51.5 -5t-42 -8.5t-31 -18.5t-24 -27t-15 -42.5t-10.5 -56t-5 -76.5t-3 -94.5v-119.5v-119.5zM545 1544v10l186 287h318v-10 l-271 -287h-233z" />
<glyph unicode="&#x1ff;" horiz-adv-x="1167" d="M92 -113l101 179q-64 54 -82.5 154.5t-18.5 303.5q0 121 4 188t20 137.5t46.5 103t86.5 61.5t136 38t199 9q107 0 172 -8l59 104h260l-100 -176q64 -54 82 -153.5t18 -303.5q0 -121 -3.5 -188t-20 -138t-46.5 -104t-86 -62.5t-136 -38.5t-199 -9q-109 0 -174 8l-60 -105 h-258zM408 1180v10l186 287h317v-11l-270 -286h-233zM420 524q0 -206 22 -249.5t142 -43.5t142 43.5t22 249.5q0 204 -22 246.5t-142 42.5t-142 -42.5t-22 -246.5z" />
<glyph unicode="&#x200;" horiz-adv-x="1415" d="M16 0l451 1409h481l451 -1409h-363l-84 274h-499l-82 -274h-355zM221 1794v8h260l162 -248v-10h-192zM535 557h335l-163 547h-13zM610 1794v8h260l160 -248v-10h-190z" />
<glyph unicode="&#x201;" horiz-adv-x="1153" d="M80 297q0 93 14 151.5t51.5 98t100.5 55.5t162 16q102 0 290 -8v39q0 42 -2.5 67.5t-14.5 45t-25.5 29t-47.5 15t-66.5 6.5t-97.5 1q-153 0 -305 -16v231q207 33 410 33q73 0 132 -5.5t105 -14.5t81.5 -26t61 -36t43 -48t28 -57.5t16.5 -70t8 -80t2 -92.5v-631h-313 l-8 123h-17q-27 -45 -63.5 -74t-79.5 -42.5t-80 -18t-86 -4.5q-152 0 -225.5 73.5t-73.5 239.5zM86 1423v9h260l162 -242v-10h-193zM389 328q0 -70 25 -90.5t121 -20.5q108 0 141 57q22 40 22 134v38h-188q-79 0 -100 -20.5t-21 -97.5zM475 1423v9h260l160 -242v-10h-190z " />
<glyph unicode="&#x202;" horiz-adv-x="1415" d="M16 0l451 1409h481l451 -1409h-363l-84 274h-499l-82 -274h-355zM397 1544q0 59 6 101t25.5 83t53.5 65.5t91.5 40t137.5 15.5t137 -15.5t90 -40t52 -66t24.5 -83t5.5 -100.5h-180q0 31 -1 45.5t-7.5 34.5t-19.5 28.5t-38 15.5t-63 7q-47 0 -74.5 -8t-39.5 -28.5 t-14.5 -39t-2.5 -55.5h-183zM535 557h335l-163 547h-13z" />
<glyph unicode="&#x203;" horiz-adv-x="1153" d="M80 297q0 93 14 151.5t51.5 98t100.5 55.5t162 16q102 0 290 -8v39q0 42 -2.5 67.5t-14.5 45t-25.5 29t-47.5 15t-66.5 6.5t-97.5 1q-153 0 -305 -16v231q207 33 410 33q73 0 132 -5.5t105 -14.5t81.5 -26t61 -36t43 -48t28 -57.5t16.5 -70t8 -80t2 -92.5v-631h-313 l-8 123h-17q-27 -45 -63.5 -74t-79.5 -42.5t-80 -18t-86 -4.5q-152 0 -225.5 73.5t-73.5 239.5zM268 1180q0 59 6 101t25.5 83t53.5 65.5t91.5 40t137.5 15.5t137 -15.5t90 -40t52 -66t24.5 -83t5.5 -100.5h-180q0 31 -1 45.5t-7.5 34.5t-19.5 28.5t-38 15.5t-63 7 q-47 0 -74.5 -8t-39.5 -28.5t-14.5 -39t-2.5 -55.5h-183zM389 328q0 -70 25 -90.5t121 -20.5q108 0 141 57q22 40 22 134v38h-188q-79 0 -100 -20.5t-21 -97.5z" />
<glyph unicode="&#x204;" horiz-adv-x="1259" d="M141 1794v8h260l162 -248v-10h-192zM152 0v1409h995v-283h-643v-274h547v-281h-547v-288h643v-283h-995zM530 1794v8h261l159 -248v-10h-190z" />
<glyph unicode="&#x205;" horiz-adv-x="1136" d="M84 1423v9h260l162 -242v-10h-193zM92 520q0 79 2.5 132.5t10.5 111t22.5 94.5t39.5 74t60.5 58.5t86 39t116 24.5t150.5 7q76 0 135 -6.5t105.5 -16t80 -32.5t57.5 -42t39.5 -60t24 -71t12.5 -89.5t5 -102t1 -121.5v-80h-624q0 -40 1 -63.5t5.5 -48.5t11 -37.5t22 -25.5 t33 -18t48.5 -9.5t65 -5.5t86 -1q138 0 311 17v-230q-146 -34 -389 -34q-122 0 -207.5 11.5t-143.5 43t-91 67t-50 104.5t-21.5 134.5t-4.5 175.5zM416 610h317q0 101 -13.5 146t-43 58t-98.5 13q-45 0 -71.5 -5t-46 -16.5t-28 -38.5t-12 -61.5t-4.5 -95.5zM473 1423v9h260 l160 -242v-10h-191z" />
<glyph unicode="&#x206;" horiz-adv-x="1259" d="M152 0v1409h995v-283h-643v-274h547v-281h-547v-288h643v-283h-995zM317 1544q0 59 6 101t25.5 83t53.5 65.5t91.5 40t137.5 15.5t137 -15.5t90 -40t52 -66t24.5 -83t5.5 -100.5h-180q0 31 -1 45.5t-7.5 34.5t-19.5 28.5t-38 15.5t-63 7q-47 0 -74.5 -8t-39.5 -28.5 t-14.5 -39t-2.5 -55.5h-183z" />
<glyph unicode="&#x207;" horiz-adv-x="1136" d="M92 520q0 79 2.5 132.5t10.5 111t22.5 94.5t39.5 74t60.5 58.5t86 39t116 24.5t150.5 7q76 0 135 -6.5t105.5 -16t80 -32.5t57.5 -42t39.5 -60t24 -71t12.5 -89.5t5 -102t1 -121.5v-80h-624q0 -40 1 -63.5t5.5 -48.5t11 -37.5t22 -25.5t33 -18t48.5 -9.5t65 -5.5t86 -1 q138 0 311 17v-230q-146 -34 -389 -34q-122 0 -207.5 11.5t-143.5 43t-91 67t-50 104.5t-21.5 134.5t-4.5 175.5zM266 1180q0 59 6 101t25.5 83t53.5 65.5t91.5 40t137.5 15.5t137 -15.5t90 -40t52 -66t24.5 -83t5.5 -100.5h-180q0 31 -1 45.5t-7.5 34.5t-19.5 28.5 t-38 15.5t-63 7q-47 0 -74.5 -8t-39.5 -28.5t-14.5 -39t-2.5 -55.5h-183zM416 610h317q0 101 -13.5 146t-43 58t-98.5 13q-45 0 -71.5 -5t-46 -16.5t-28 -38.5t-12 -61.5t-4.5 -95.5z" />
<glyph unicode="&#x208;" horiz-adv-x="645" d="M-166 1794v8h260l162 -248v-10h-193zM145 0v1409h355v-1409h-355zM223 1794v8h260l160 -248v-10h-190z" />
<glyph unicode="&#x209;" horiz-adv-x="581" d="M-203 1423v9h260l162 -242v-10h-192zM125 0v1044h332v-1044h-332zM186 1423v9h260l160 -242v-10h-190z" />
<glyph unicode="&#x20a;" horiz-adv-x="645" d="M10 1544q0 59 6 101t25.5 83t53.5 65.5t91.5 40t137.5 15.5t137 -15.5t90 -40t52 -66t24.5 -83t5.5 -100.5h-180q0 31 -1 45.5t-7.5 34.5t-19.5 28.5t-38 15.5t-63 7q-47 0 -74.5 -8t-39.5 -28.5t-14.5 -39t-2.5 -55.5h-183zM145 0v1409h355v-1409h-355z" />
<glyph unicode="&#x20b;" horiz-adv-x="581" d="M-20 1180q0 59 6 101t25.5 83t53 65.5t91 40t137.5 15.5t137 -15.5t90 -40t52 -66t24.5 -83t5.5 -100.5h-180q0 31 -1 45.5t-7.5 34.5t-19.5 28.5t-38 15.5t-63 7q-47 0 -74.5 -8t-39.5 -28.5t-14.5 -39t-2.5 -55.5h-182zM125 0v1044h332v-1044h-332z" />
<glyph unicode="&#x20c;" horiz-adv-x="1445" d="M113 705q0 125 1.5 192.5t10 153.5t24 128t46 93.5t73.5 73t108.5 44t149 29t197.5 6.5t198 -6.5t149.5 -29t108.5 -44t73 -73.5t45.5 -93t24 -128t10 -153.5t1.5 -192.5t-1.5 -192.5t-10 -153.5t-24 -128.5t-45.5 -93.5t-73 -73t-108.5 -44t-149.5 -29.5t-198 -6.5 q-113 0 -197 6.5t-149.5 29t-108.5 44t-73 73.5t-46 93.5t-24.5 128t-10 154t-1.5 192.5zM236 1794v8h260l161 -248v-10h-192zM471 562.5q0 -49.5 5.5 -105.5t9.5 -80t20 -51.5t29.5 -34.5t46 -15.5t60 -9t81.5 -0.5h82t60.5 9.5t45.5 15.5t29 35t19.5 51t8.5 80t5 105v143 v143t-5 105t-8.5 79.5t-19.5 50.5t-29 35.5t-45.5 15.5t-60.5 9h-82h-66.5t-53 -5t-43 -8.5t-31.5 -18t-24 -26.5t-15 -41.5t-11 -54.5t-5 -75t-3 -92.5v-116.5v-142.5zM625 1794v8h260l159 -248v-10h-190z" />
<glyph unicode="&#x20d;" horiz-adv-x="1167" d="M90 1423v9h260l162 -242v-10h-193zM92 524q0 121 4 188t20 137.5t46.5 103t86.5 61.5t136 38t199 9t198.5 -9t136 -38t86.5 -61.5t46.5 -103t20 -137.5t3.5 -188t-3.5 -188t-20 -138t-46.5 -104t-86 -62.5t-136 -38.5t-199 -9q-71 0 -127 3.5t-103 13t-82 20t-63 32.5 t-46.5 42.5t-32 56.5t-20.5 68.5t-11.5 85.5t-5.5 100t-1 118zM420 524q0 -206 22 -249.5t142 -43.5t142 43.5t22 249.5q0 204 -22 246.5t-142 42.5t-142 -42.5t-22 -246.5zM479 1423v9h260l160 -242v-10h-190z" />
<glyph unicode="&#x20e;" horiz-adv-x="1445" d="M113 705q0 125 1.5 192.5t10 153.5t24 128t46 93.5t73.5 73t108.5 44t149 29t197.5 6.5t198 -6.5t149.5 -29t108.5 -44t73 -73.5t45.5 -93t24 -128t10 -153.5t1.5 -192.5t-1.5 -192.5t-10 -153.5t-24 -128.5t-45.5 -93.5t-73 -73t-108.5 -44t-149.5 -29.5t-198 -6.5 q-113 0 -197 6.5t-149.5 29t-108.5 44t-73 73.5t-46 93.5t-24.5 128t-10 154t-1.5 192.5zM412 1544q0 59 6 101t25.5 83t53 65.5t91 40t137.5 15.5t137 -15.5t90 -40t52 -66t24.5 -83t5.5 -100.5h-180q0 31 -1 45.5t-7.5 34.5t-19.5 28.5t-38 15.5t-63 7q-47 0 -74.5 -8 t-39.5 -28.5t-14.5 -39t-2.5 -55.5h-182zM471 562.5q0 -49.5 5.5 -105.5t9.5 -80t20 -51.5t29.5 -34.5t46 -15.5t60 -9t81.5 -0.5h82t60.5 9.5t45.5 15.5t29 35t19.5 51t8.5 80t5 105v143v143t-5 105t-8.5 79.5t-19.5 50.5t-29 35.5t-45.5 15.5t-60.5 9h-82h-66.5t-53 -5 t-43 -8.5t-31.5 -18t-24 -26.5t-15 -41.5t-11 -54.5t-5 -75t-3 -92.5v-116.5v-142.5z" />
<glyph unicode="&#x20f;" horiz-adv-x="1167" d="M92 524q0 121 4 188t20 137.5t46.5 103t86.5 61.5t136 38t199 9t198.5 -9t136 -38t86.5 -61.5t46.5 -103t20 -137.5t3.5 -188t-3.5 -188t-20 -138t-46.5 -104t-86 -62.5t-136 -38.5t-199 -9q-71 0 -127 3.5t-103 13t-82 20t-63 32.5t-46.5 42.5t-32 56.5t-20.5 68.5 t-11.5 85.5t-5.5 100t-1 118zM272 1180q0 59 6 101t25.5 83t53.5 65.5t91.5 40t137.5 15.5t137 -15.5t90 -40t52 -66t24.5 -83t5.5 -100.5h-180q0 31 -1 45.5t-7.5 34.5t-19.5 28.5t-38 15.5t-63 7q-47 0 -74.5 -8t-39.5 -28.5t-14.5 -39t-2.5 -55.5h-183zM420 524 q0 -206 22 -249.5t142 -43.5t142 43.5t22 249.5q0 204 -22 246.5t-142 42.5t-142 -42.5t-22 -246.5z" />
<glyph unicode="&#x210;" horiz-adv-x="1390" d="M152 0v1409h671q86 0 153.5 -11.5t115.5 -31t82.5 -51.5t55 -67.5t32.5 -85.5t16 -98t4 -112q0 -66 -6.5 -119.5t-25 -114.5t-58.5 -107t-100 -72l219 -539h-373l-188 496h-244v-496h-354zM207 1794v8h260l162 -248v-10h-193zM506 772h184q56 0 91.5 2.5t63.5 11t42 19 t23 33t11.5 47t2.5 65.5q0 43 -2 67t-10.5 47t-22 33t-41.5 18.5t-63.5 10.5t-92.5 2h-186v-356zM596 1794v8h260l160 -248v-10h-191z" />
<glyph unicode="&#x211;" horiz-adv-x="835" d="M-78 1423v9h260l162 -242v-10h-192zM125 0v1044h311l8 -178h19q41 111 117.5 153t207.5 42v-301q-194 0 -264.5 -76.5t-70.5 -288.5v-395h-328zM311 1423v9h260l160 -242v-10h-190z" />
<glyph unicode="&#x212;" horiz-adv-x="1390" d="M152 0v1409h671q86 0 153.5 -11.5t115.5 -31t82.5 -51.5t55 -67.5t32.5 -85.5t16 -98t4 -112q0 -66 -6.5 -119.5t-25 -114.5t-58.5 -107t-100 -72l219 -539h-373l-188 496h-244v-496h-354zM383 1544q0 59 6 101t25.5 83t53 65.5t91 40t137.5 15.5t137 -15.5t90.5 -40 t52 -66t24.5 -83t6 -100.5h-181q0 31 -1 45.5t-7.5 34.5t-19.5 28.5t-38 15.5t-63 7q-47 0 -74.5 -8t-39.5 -28.5t-14.5 -39t-2.5 -55.5h-182zM506 772h184q56 0 91.5 2.5t63.5 11t42 19t23 33t11.5 47t2.5 65.5q0 43 -2 67t-10.5 47t-22 33t-41.5 18.5t-63.5 10.5t-92.5 2 h-186v-356z" />
<glyph unicode="&#x213;" horiz-adv-x="835" d="M104 1180q0 59 6 101t25.5 83t53.5 65.5t91.5 40t137.5 15.5t137 -15.5t90 -40t52 -66t24.5 -83t5.5 -100.5h-180q0 31 -1 45.5t-7.5 34.5t-19.5 28.5t-38 15.5t-63 7q-47 0 -74.5 -8t-39.5 -28.5t-14.5 -39t-2.5 -55.5h-183zM125 0v1044h311l8 -178h19q41 111 117.5 153 t207.5 42v-301q-194 0 -264.5 -76.5t-70.5 -288.5v-395h-328z" />
<glyph unicode="&#x214;" horiz-adv-x="1404" d="M137 635v774h355v-850q0 -46 0.5 -73.5t2 -60t4 -49.5t9 -37.5t13.5 -29.5t19.5 -20.5t26.5 -15t35.5 -7.5t44.5 -5t55 -1q33 0 56 0.5t44.5 5t35 8t26.5 15t19.5 20t12.5 30t8.5 37.5t4.5 49.5t2 59.5v74v850h355v-774q0 -85 -1.5 -143.5t-7 -120.5t-14.5 -103t-25 -83 t-37.5 -68t-53.5 -51t-72 -38.5t-93.5 -24.5t-116.5 -15t-143 -4t-143 4t-116.5 15t-93.5 24.5t-72 38.5t-54 51t-38 68t-25 83t-14.5 103t-7 121t-1.5 143zM215 1794v8h260l162 -248v-10h-193zM604 1794v8h260l160 -248v-10h-190z" />
<glyph unicode="&#x215;" d="M109 1423v9h260l161 -242v-10h-192zM125 391v653h328v-552q0 -61 1 -96.5t7.5 -65t14.5 -42.5t27 -22t38.5 -10.5t56.5 -1.5q43 0 70 8t44.5 22.5t25.5 46.5t11 69t3 100v544h327v-1044h-311l-8 127h-17q-82 -143 -301 -143q-82 0 -139 18t-92 48.5t-54 84t-25.5 112 t-6.5 144.5zM498 1423v9h260l160 -242v-10h-191z" />
<glyph unicode="&#x216;" horiz-adv-x="1404" d="M137 635v774h355v-850q0 -46 0.5 -73.5t2 -60t4 -49.5t9 -37.5t13.5 -29.5t19.5 -20.5t26.5 -15t35.5 -7.5t44.5 -5t55 -1q33 0 56 0.5t44.5 5t35 8t26.5 15t19.5 20t12.5 30t8.5 37.5t4.5 49.5t2 59.5v74v850h355v-774q0 -85 -1.5 -143.5t-7 -120.5t-14.5 -103t-25 -83 t-37.5 -68t-53.5 -51t-72 -38.5t-93.5 -24.5t-116.5 -15t-143 -4t-143 4t-116.5 15t-93.5 24.5t-72 38.5t-54 51t-38 68t-25 83t-14.5 103t-7 121t-1.5 143zM391 1544q0 59 6 101t25.5 83t53.5 65.5t91.5 40t137.5 15.5t137 -15.5t90 -40t52 -66t24.5 -83t5.5 -100.5h-180 q0 31 -1 45.5t-7.5 34.5t-19.5 28.5t-38 15.5t-63 7t-63.5 -6.5t-39 -16t-20 -28.5t-8 -34.5t-1.5 -45.5h-182z" />
<glyph unicode="&#x217;" d="M125 391v653h328v-552q0 -61 1 -96.5t7.5 -65t14.5 -42.5t27 -22t38.5 -10.5t56.5 -1.5q43 0 70 8t44.5 22.5t25.5 46.5t11 69t3 100v544h327v-1044h-311l-8 127h-17q-82 -143 -301 -143q-82 0 -139 18t-92 48.5t-54 84t-25.5 112t-6.5 144.5zM291 1180q0 59 6 101 t25.5 83t53 65.5t91 40t137.5 15.5t137 -15.5t90 -40t52 -66t24.5 -83t5.5 -100.5h-180q0 31 -1 45.5t-7.5 34.5t-19.5 28.5t-38 15.5t-63 7q-47 0 -74.5 -8t-39.5 -28.5t-14.5 -39t-2.5 -55.5h-182z" />
<glyph unicode="&#x218;" horiz-adv-x="1269" d="M94 995q0 81 14.5 145.5t38.5 109t63.5 77t81.5 51.5t101 29.5t113.5 14t126.5 3.5q235 0 471 -43v-264q-268 25 -399 25q-170 0 -216 -25q-25 -12 -31.5 -34.5t-6.5 -69.5q0 -41 2 -59t14.5 -33.5t34 -21t65.5 -11.5l301 -37q91 -13 149.5 -38t96.5 -85q60 -89 60 -280 q0 -89 -13.5 -158.5t-36 -118t-60 -83.5t-76.5 -55t-95.5 -31.5t-107 -15t-119.5 -3.5q-327 0 -531 34v273q262 -25 424 -25q183 0 229 35q19 19 24 43.5t5 69.5q0 75 -19 96t-104 31l-258 32q-86 10 -148 36.5t-99 62t-58.5 88.5t-29 107.5t-7.5 127.5zM485 -477 q82 0 106.5 16.5t24.5 69.5v26h-118v197h282v-135q0 -61 -3.5 -100.5t-15 -75t-31 -55t-53.5 -34t-80 -19.5t-112 -5v115z" />
<glyph unicode="&#x219;" horiz-adv-x="1017" d="M78 743q0 83 22 142t57.5 93t95 53t117.5 24.5t142 5.5q204 0 371 -31v-229q-187 18 -301 18q-127 0 -163 -13t-36 -67q0 -45 15 -58t79 -19l244 -31q46 -6 76 -15t59.5 -29.5t46.5 -53t27 -86t10 -128.5q0 -64 -10.5 -114t-28.5 -85t-47.5 -60t-61 -39.5t-77 -23 t-87 -11t-98.5 -2.5q-221 0 -419 28v230q183 -17 323 -17q95 0 137.5 8.5t53 24t10.5 53.5q0 47 -17 60t-90 22l-243 31q-52 7 -89 25t-60 43.5t-36 65t-17.5 82.5t-4.5 103zM330 -469q85 0 111 15t26 63v26h-123v242h330v-164q0 -66 -4 -108t-17 -79t-35.5 -57.5t-62 -35.5 t-93 -20t-132.5 -5v123z" />
<glyph unicode="&#x21a;" horiz-adv-x="1198" d="M33 1114v295h1134v-295h-391v-1114h-354v1114h-389zM449 -477q82 0 106.5 16.5t24.5 69.5v26h-119v197h282v-135q0 -61 -3.5 -100.5t-15 -75t-31 -55t-53 -34t-79.5 -19.5t-112 -5v115z" />
<glyph unicode="&#x21b;" horiz-adv-x="829" d="M41 797v247h188v304h332v-304h225v-247h-225v-797h-332v797h-188zM217 -469q85 0 111 15t26 63v26h-123v242h330v-164q0 -66 -4 -108t-17 -79t-35.5 -57.5t-62 -35.5t-93 -20t-132.5 -5v123z" />
<glyph unicode="&#x22a;" horiz-adv-x="1445" d="M113 705q0 125 1.5 192.5t10 153.5t24 128t46 93.5t73.5 73t108.5 44t149 29t197.5 6.5t198 -6.5t149.5 -29t108.5 -44t73 -73.5t45.5 -93t24 -128t10 -153.5t1.5 -192.5t-1.5 -192.5t-10 -153.5t-24 -128.5t-45.5 -93.5t-73 -73t-108.5 -44t-149.5 -29.5t-198 -6.5 q-113 0 -197 6.5t-149.5 29t-108.5 44t-73 73.5t-46 93.5t-24.5 128t-10 154t-1.5 192.5zM373 1583v221h268v-221h-268zM385 1976v191h674v-191h-674zM471 562.5q0 -49.5 5.5 -105.5t9.5 -80t20 -51.5t29.5 -34.5t46 -15.5t60 -9t81.5 -0.5h82t60.5 9.5t45.5 15.5t29 35 t19.5 51t8.5 80t5 105v143v143t-5 105t-8.5 79.5t-19.5 50.5t-29 35.5t-45.5 15.5t-60.5 9h-82h-66.5t-53 -5t-43 -8.5t-31.5 -18t-24 -26.5t-15 -41.5t-11 -54.5t-5 -75t-3 -92.5v-116.5v-142.5zM807 1583v221h266v-221h-266z" />
<glyph unicode="&#x22b;" horiz-adv-x="1167" d="M92 524q0 121 4 188t20 137.5t46.5 103t86.5 61.5t136 38t199 9t198.5 -9t136 -38t86.5 -61.5t46.5 -103t20 -137.5t3.5 -188t-3.5 -188t-20 -138t-46.5 -104t-86 -62.5t-136 -38.5t-199 -9q-71 0 -127 3.5t-103 13t-82 20t-63 32.5t-46.5 42.5t-32 56.5t-20.5 68.5 t-11.5 85.5t-5.5 100t-1 118zM240 1219v221h268v-221h-268zM246 1544v191h674v-191h-674zM420 524q0 -206 22 -249.5t142 -43.5t142 43.5t22 249.5q0 204 -22 246.5t-142 42.5t-142 -42.5t-22 -246.5zM674 1219v221h266v-221h-266z" />
<glyph unicode="&#x22c;" horiz-adv-x="1445" d="M113 705q0 125 1.5 192.5t10 153.5t24 128t46 93.5t73.5 73t108.5 44t149 29t197.5 6.5t198 -6.5t149.5 -29t108.5 -44t73 -73.5t45.5 -93t24 -128t10 -153.5t1.5 -192.5t-1.5 -192.5t-10 -153.5t-24 -128.5t-45.5 -93.5t-73 -73t-108.5 -44t-149.5 -29.5t-198 -6.5 q-113 0 -197 6.5t-149.5 29t-108.5 44t-73 73.5t-46 93.5t-24.5 128t-10 154t-1.5 192.5zM336 1536q0 47 1 74.5t4.5 62.5t11 54.5t21 41t33.5 32t49 17.5t68 7q68 0 230 -37q114 -29 141 -29q37 0 45 16.5t8 73.5h162q0 -41 -0.5 -65.5t-3 -56.5t-8 -51t-14.5 -40.5 t-22.5 -33.5t-33 -23t-46 -15.5t-60.5 -4.5q-23 0 -46 2t-50.5 7t-42.5 8t-48 11t-41 10q-114 29 -143 29q-36 0 -43.5 -17t-7.5 -73h-164zM385 1946v190h674v-190h-674zM471 562.5q0 -49.5 5.5 -105.5t9.5 -80t20 -51.5t29.5 -34.5t46 -15.5t60 -9t81.5 -0.5h82t60.5 9.5 t45.5 15.5t29 35t19.5 51t8.5 80t5 105v143v143t-5 105t-8.5 79.5t-19.5 50.5t-29 35.5t-45.5 15.5t-60.5 9h-82h-66.5t-53 -5t-43 -8.5t-31.5 -18t-24 -26.5t-15 -41.5t-11 -54.5t-5 -75t-3 -92.5v-116.5v-142.5z" />
<glyph unicode="&#x22d;" horiz-adv-x="1167" d="M92 524q0 121 4 188t20 137.5t46.5 103t86.5 61.5t136 38t199 9t198.5 -9t136 -38t86.5 -61.5t46.5 -103t20 -137.5t3.5 -188t-3.5 -188t-20 -138t-46.5 -104t-86 -62.5t-136 -38.5t-199 -9q-71 0 -127 3.5t-103 13t-82 20t-63 32.5t-46.5 42.5t-32 56.5t-20.5 68.5 t-11.5 85.5t-5.5 100t-1 118zM195 1171q0 47 1 74.5t4.5 62.5t11 54.5t21 41t33.5 32t49 17.5t68 7q67 0 229 -37q110 -28 142 -28q37 0 45 16.5t8 73.5h162q0 -47 -1 -75t-4.5 -63t-11.5 -54.5t-21.5 -41t-33.5 -32.5t-49 -18t-68 -7q-28 0 -62 4.5t-52.5 8t-62 14 t-50.5 12.5q-114 29 -143 29q-36 0 -44 -17.5t-8 -73.5h-163zM246 1581v191h674v-191h-674zM420 524q0 -206 22 -249.5t142 -43.5t142 43.5t22 249.5q0 204 -22 246.5t-142 42.5t-142 -42.5t-22 -246.5z" />
<glyph unicode="&#x230;" horiz-adv-x="1445" d="M113 705q0 125 1.5 192.5t10 153.5t24 128t46 93.5t73.5 73t108.5 44t149 29t197.5 6.5t198 -6.5t149.5 -29t108.5 -44t73 -73.5t45.5 -93t24 -128t10 -153.5t1.5 -192.5t-1.5 -192.5t-10 -153.5t-24 -128.5t-45.5 -93.5t-73 -73t-108.5 -44t-149.5 -29.5t-198 -6.5 q-113 0 -197 6.5t-149.5 29t-108.5 44t-73 73.5t-46 93.5t-24.5 128t-10 154t-1.5 192.5zM385 1948v190h674v-190h-674zM471 562.5q0 -49.5 5.5 -105.5t9.5 -80t20 -51.5t29.5 -34.5t46 -15.5t60 -9t81.5 -0.5h82t60.5 9.5t45.5 15.5t29 35t19.5 51t8.5 80t5 105v143v143 t-5 105t-8.5 79.5t-19.5 50.5t-29 35.5t-45.5 15.5t-60.5 9h-82h-66.5t-53 -5t-43 -8.5t-31.5 -18t-24 -26.5t-15 -41.5t-11 -54.5t-5 -75t-3 -92.5v-116.5v-142.5zM588 1583v221h268v-221h-268z" />
<glyph unicode="&#x2c6;" horiz-adv-x="768" d="M41 1180v16l190 281h306l192 -281v-16h-213l-133 166l-131 -166h-211z" />
<glyph unicode="&#x2c7;" horiz-adv-x="768" d="M41 1462v15h211l133 -166l131 166h213v-15l-192 -282h-306z" />
<glyph unicode="&#x2d8;" horiz-adv-x="702" d="M41 1477h180q0 -30 1 -44.5t7.5 -34.5t19.5 -29t38 -16t63 -7q47 0 74.5 8.5t39.5 29t14.5 38.5t2.5 55h183q0 -59 -6 -101t-25.5 -83t-53.5 -66t-91.5 -40.5t-137.5 -15.5t-137 15.5t-90 40.5t-52 66.5t-24.5 83t-5.5 100.5z" />
<glyph unicode="&#x2d9;" horiz-adv-x="348" d="M41 1219v221h266v-221h-266z" />
<glyph unicode="&#x2da;" horiz-adv-x="677" d="M41 1391q0 49 3 79t13 61t29 47.5t52 30.5t82 19.5t118 5.5q83 0 137.5 -9.5t87.5 -25.5t49.5 -48.5t21.5 -67t5 -92.5t-5 -92t-21.5 -66t-49.5 -48t-87.5 -25t-137.5 -9t-137 9.5t-86.5 25t-48.5 48t-20.5 66t-4.5 91.5zM213 1391q0 -37 2 -53t14.5 -31t37 -19t71.5 -4 q39 0 62 4t37 9t20 21t7 29t1 44q0 27 -0.5 38.5t-4 27.5t-11 21.5t-22 12.5t-36 8.5t-53.5 1.5q-47 0 -71.5 -4t-37 -19.5t-14.5 -32t-2 -54.5z" />
<glyph unicode="&#x2db;" horiz-adv-x="477" d="M41 -229q0 64 41.5 131t112.5 127l239 -21q-46 -29 -86.5 -78.5t-40.5 -91.5q0 -34 20.5 -51.5t73.5 -17.5q21 0 35 2v-166q-58 -6 -139 -6q-256 0 -256 172z" />
<glyph unicode="&#x2dc;" horiz-adv-x="854" d="M41 1171q0 48 0.5 74.5t4.5 62.5t11 55t20.5 40.5t33.5 32t49.5 17.5t68.5 7q66 0 228 -37q114 -28 143 -28q36 0 43.5 16.5t7.5 73.5h164q0 -47 -1 -74.5t-4.5 -63t-11 -55t-21 -41t-33.5 -32.5t-49 -18t-68 -7q-23 0 -47 2t-51 7.5t-42.5 8.5t-47 11t-40.5 10 q-118 29 -143 29q-36 0 -43.5 -17t-7.5 -74h-164z" />
<glyph unicode="&#x2dd;" horiz-adv-x="888" d="M41 1180v10l158 248h260v-8l-228 -250h-190zM428 1180v10l160 248h262v-8l-229 -250h-193z" />
<glyph unicode="&#x3a9;" horiz-adv-x="1441" d="M115 0v272h28q160 -46 242 -69v14q-138 59 -202 197t-64 368q0 108 3 172t15 142t36.5 121t67.5 89t107.5 68t157 36.5t215.5 14.5t215.5 -14.5t157 -36.5t108 -68t68 -89t37 -120.5t15.5 -142t3 -172.5q0 -229 -64.5 -367t-201.5 -198v-14q40 11 119.5 34t119.5 35h31 v-272h-510v262q92 14 120 119t28 346q0 67 -0.5 108t-3 87t-5 71t-10 53.5t-15.5 41.5t-23.5 28t-31 20t-41.5 10t-52 6t-64 1q-39 0 -64.5 -1t-51.5 -6t-41.5 -10t-31 -20t-23.5 -27.5t-15.5 -41t-10 -53.5t-5 -71.5t-3 -87t-0.5 -108.5q0 -239 28.5 -345t119.5 -120v-262 h-508z" />
<glyph unicode="&#x3c0;" horiz-adv-x="1200" d="M129 0v1044h940v-1044h-330v797h-278v-797h-332z" />
<glyph unicode="&#x2000;" horiz-adv-x="1129" />
<glyph unicode="&#x2001;" horiz-adv-x="2259" />
<glyph unicode="&#x2002;" horiz-adv-x="1129" />
<glyph unicode="&#x2003;" horiz-adv-x="2259" />
<glyph unicode="&#x2004;" horiz-adv-x="753" />
<glyph unicode="&#x2005;" horiz-adv-x="564" />
<glyph unicode="&#x2006;" horiz-adv-x="376" />
<glyph unicode="&#x2007;" horiz-adv-x="376" />
<glyph unicode="&#x2008;" horiz-adv-x="282" />
<glyph unicode="&#x2009;" horiz-adv-x="451" />
<glyph unicode="&#x200a;" horiz-adv-x="125" />
<glyph unicode="&#x2010;" horiz-adv-x="761" d="M102 451v264h555v-264h-555z" />
<glyph unicode="&#x2011;" horiz-adv-x="761" d="M102 451v264h555v-264h-555z" />
<glyph unicode="&#x2012;" horiz-adv-x="761" d="M102 451v264h555v-264h-555z" />
<glyph unicode="&#x2013;" horiz-adv-x="974" d="M90 506v233h795v-233h-795z" />
<glyph unicode="&#x2014;" horiz-adv-x="1794" d="M90 506v233h1614v-233h-1614z" />
<glyph unicode="&#x2018;" horiz-adv-x="591" d="M131 844v209q0 77 4 126t17.5 92.5t36 67t62 41t93 23.5t131.5 6v-123q-85 0 -111 -25t-26 -104v-33h123v-280h-330z" />
<glyph unicode="&#x2019;" horiz-adv-x="591" d="M117 844v123q85 0 111 26t26 105v32h-123v279h330v-207q0 -77 -4 -126t-17.5 -93t-36 -67.5t-62 -41.5t-93 -24t-131.5 -6z" />
<glyph unicode="&#x201a;" horiz-adv-x="591" d="M117 -164q85 0 111 26t26 105v33h-123v279h330v-207q0 -77 -4 -126t-17.5 -93t-36 -68t-62 -42t-93 -24t-131.5 -6v123z" />
<glyph unicode="&#x201c;" horiz-adv-x="1044" d="M131 844v209q0 77 4 126t17.5 92.5t36 67t62 41t93 23.5t131.5 6v-123q-85 0 -111 -25t-26 -104v-33h123v-280h-330zM584 844v209q0 77 4 126t17 92.5t35.5 67t62 41t93 23.5t132.5 6v-123q-85 0 -111 -25t-26 -104v-33h120v-280h-327z" />
<glyph unicode="&#x201d;" horiz-adv-x="1044" d="M117 844v123q85 0 111 26t26 105v32h-123v279h330v-207q0 -77 -4 -126t-17.5 -93t-36 -67.5t-62 -41.5t-93 -24t-131.5 -6zM567 844v123q85 0 111.5 26t26.5 105v32h-121v279h327v-207q0 -77 -4 -126t-17 -93t-35.5 -67.5t-62 -41.5t-93 -24t-132.5 -6z" />
<glyph unicode="&#x201e;" horiz-adv-x="1044" d="M117 -164q85 0 111 26t26 105v33h-123v279h330v-207q0 -77 -4 -126t-17.5 -93t-36 -68t-62 -42t-93 -24t-131.5 -6v123zM567 -164q85 0 111.5 26t26.5 105v33h-121v279h327v-207q0 -77 -4 -126t-17 -93t-35.5 -68t-62 -42t-93 -24t-132.5 -6v123z" />
<glyph unicode="&#x2020;" horiz-adv-x="1046" d="M133 887v192l273 21l20 309h197l16 -309l274 -21v-192l-274 -19l-16 -868h-197l-20 868z" />
<glyph unicode="&#x2021;" horiz-adv-x="1046" d="M133 328v192l273 21v327l-273 19v192l273 21l20 309h197l16 -309l274 -21v-192l-274 -19v-327l274 -21v-192l-274 -21l-16 -307h-197l-20 307z" />
<glyph unicode="&#x2022;" horiz-adv-x="800" d="M152 700q0 63 1.5 95t10 66t22.5 47.5t43 26t67.5 15t100.5 2.5q48 0 80.5 -1.5t60.5 -8t44.5 -12.5t30 -23t19.5 -31.5t10 -45t4.5 -57t0.5 -73.5t-0.5 -72.5t-4.5 -55.5t-10 -44t-19.5 -30t-30 -22t-44.5 -12t-60.5 -7.5t-80.5 -1.5q-62 0 -100 2.5t-68 14.5t-43.5 25 t-22 46t-10 64t-1.5 93z" />
<glyph unicode="&#x2026;" horiz-adv-x="1828" d="M131 0v297h348v-297h-348zM739 0v297h351v-297h-351zM1352 0v297h348v-297h-348z" />
<glyph unicode="&#x202f;" horiz-adv-x="451" />
<glyph unicode="&#x2030;" horiz-adv-x="2091" d="M100 1081q0 58 1 95.5t6 76t12.5 61t21.5 44.5t33 32.5t47.5 19.5t64 12t83.5 3q49 0 84 -3t64 -12t48 -19.5t33.5 -32.5t22 -44t12 -61t5.5 -76t1 -96q0 -79 -2.5 -124.5t-12 -89.5t-26 -65t-48 -38t-74 -22t-107.5 -5t-107 5t-73.5 22t-48 38t-26 65t-12 89.5 t-2.5 124.5zM164 0l940 1409h205l-940 -1409h-205zM272 1081q0 -58 0.5 -87.5t4.5 -57.5t8.5 -38t18 -18.5t26 -9t39.5 -0.5q70 0 83 28.5t13 182.5q0 155 -12.5 183t-83.5 28q-27 0 -39.5 -0.5t-26 -9t-18 -18.5t-8.5 -38t-4.5 -57.5t-0.5 -87.5zM834 328q0 79 2.5 124 t12 89t25.5 65t47.5 38.5t73.5 22.5t107 5q49 0 84 -3t64 -12t48 -19.5t33.5 -32.5t22 -44t12 -61t5.5 -76t1 -96t-1 -96t-5.5 -76t-12 -61t-22 -44t-33.5 -32.5t-48 -19.5t-64 -12t-84 -3q-65 0 -107 5t-73.5 22.5t-47.5 38.5t-25.5 65t-12 89t-2.5 124zM1008 328 q0 -154 12.5 -182.5t81.5 -28.5q71 0 83.5 28t12.5 183t-12.5 183t-83.5 28q-69 0 -81.5 -28.5t-12.5 -182.5zM1454 328q0 68 2 108.5t7 82t17 63.5t30.5 42.5t48.5 29t68.5 13.5t94.5 5q49 0 84 -3t64 -12t48 -19.5t33 -32.5t21.5 -44t12 -61t5.5 -76t1 -96t-1 -96 t-5.5 -76t-12 -61t-21.5 -44t-33 -32.5t-48 -19.5t-64 -12t-84 -3q-56 0 -94.5 5t-68.5 13.5t-48.5 29t-30.5 42.5t-17 63.5t-7 82t-2 108.5zM1626 328q0 -154 13 -182.5t83 -28.5h30.5t23 4.5t17.5 8t11 16.5t7.5 24.5t3.5 38.5t2 50.5v68.5q0 155 -12.5 183t-82.5 28 t-83 -28.5t-13 -182.5z" />
<glyph unicode="&#x2039;" horiz-adv-x="632" d="M47 623l268 421h211l-213 -421l213 -420h-211z" />
<glyph unicode="&#x203a;" horiz-adv-x="632" d="M106 203l213 420l-213 421h211l269 -421l-269 -420h-211z" />
<glyph unicode="&#x2044;" horiz-adv-x="329" d="M-395 0l913 1409h207l-913 -1409h-207z" />
<glyph unicode="&#x205f;" horiz-adv-x="564" />
<glyph unicode="&#x20ac;" horiz-adv-x="1243" d="M66 465v170h147v141h-147v170h153q9 109 30.5 185t62 134.5t106 92.5t157.5 50.5t222 16.5q109 0 209 -12.5t141 -23.5v-252q-129 18 -266 18q-77 0 -121.5 -3.5t-84.5 -15t-60 -35t-32.5 -60.5t-17.5 -95h482v-170h-488v-141h488v-170h-482q4 -42 11 -72.5t17 -53.5 t29 -38t40 -24.5t56.5 -14.5t71 -6.5t91.5 -1.5q126 0 274 16v-256q-161 -30 -358 -30q-165 0 -269 22.5t-171 80.5t-97 146.5t-41 231.5h-153z" />
<glyph unicode="&#x2122;" horiz-adv-x="1626" d="M121 1260v149h547v-149h-189v-467h-172v467h-186zM750 793v616h227l135 -365h12l131 365h228v-616h-162v403h-8l-146 -403h-104l-145 403h-9v-403h-159z" />
<glyph unicode="&#x2202;" horiz-adv-x="1167" d="M92 520q0 90 3 151t12 122.5t26.5 100t45.5 73t69 53t97 29t130 10.5q113 0 199 -27l8 6q-52 148 -136.5 259t-201.5 216v9h352q130 -114 215.5 -250t124.5 -322q39 -189 39 -415q0 -92 -2 -147.5t-9.5 -118.5t-21 -97.5t-38 -71.5t-59.5 -55t-87.5 -34t-118.5 -21.5 t-155 -5.5q-119 0 -199 9.5t-136 39.5t-86.5 63t-46.5 103.5t-20 136.5t-4 184zM420 520q0 -204 22 -246.5t142 -42.5t143 43t23 246v70t-1.5 57t-3.5 48t-6.5 36.5t-10 30t-15 20.5t-21 15.5t-28.5 8.5t-35.5 6t-44.5 1q-120 0 -142 -43.5t-22 -249.5z" />
<glyph unicode="&#x2206;" horiz-adv-x="1404" d="M16 0l445 1409h483l445 -1409h-1373zM424 268h547l-269 869h-14z" />
<glyph unicode="&#x220f;" horiz-adv-x="1464" d="M147 -387v1796h1170v-1796h-356v1526h-457v-1526h-357z" />
<glyph unicode="&#x2211;" horiz-adv-x="1445" d="M137 -125l578 635l-578 637v262h1170v-270h-736l570 -629l-570 -627h736v-270h-1170v262z" />
<glyph unicode="&#x221a;" horiz-adv-x="1482" d="M59 555l369 162l309 -641l377 1501h291l-461 -1794h-379l-327 668l-117 -50z" />
<glyph unicode="&#x221e;" horiz-adv-x="2113" d="M104 524q0 89 12.5 155.5t44.5 123t85 92t136.5 55t197.5 19.5q334 0 477 -262q32 57 71 100.5t95.5 82t136.5 59t178 20.5q141 0 234.5 -28.5t145 -89t71.5 -137.5t20 -190q0 -114 -20 -191.5t-71.5 -137t-145 -87.5t-234.5 -28q-98 0 -178 20t-136.5 58t-96 82 t-70.5 102q-64 -121 -176.5 -191.5t-300.5 -70.5q-142 0 -236.5 28t-146.5 87.5t-72.5 137t-20.5 191.5zM350 524q0 -127 49.5 -175t194.5 -48q63 0 113.5 13t83.5 32.5t60.5 51t43.5 59.5t33 67q-22 50 -43.5 84t-59 69t-95.5 53t-136 18q-144 0 -194 -48.5t-50 -175.5z M1190 524q20 -49 41.5 -83.5t59 -69t96 -52.5t137.5 -18q143 0 191 47.5t48 175.5q0 127 -48.5 175.5t-190.5 48.5q-78 0 -137 -18t-96.5 -53t-59 -69.5t-41.5 -83.5z" />
<glyph unicode="&#x222b;" horiz-adv-x="909" d="M80 -164q112 0 161.5 7.5t68 27t18.5 63.5q0 5 -6 113l-78 975q-4 62 -4 96q0 51 4.5 88t17 69.5t31.5 54t52.5 39.5t74.5 28t102.5 16.5t131.5 9t167 2.5v-225q-113 0 -163 -7.5t-68.5 -27.5t-18.5 -65q0 -14 4 -72l80 -985q7 -110 7 -125q0 -68 -8 -113t-33.5 -81.5 t-63.5 -56.5t-107 -33.5t-154.5 -18t-215.5 -4.5v225z" />
<glyph unicode="&#x2248;" horiz-adv-x="1015" d="M109 174q0 48 0.5 74.5t4.5 62.5t11 55t20.5 40.5t33.5 32t49.5 17.5t68.5 7q71 0 242 -37q122 -29 153 -29q36 0 43.5 16.5t7.5 73.5h164q0 -41 -0.5 -65.5t-3 -56.5t-8 -51t-14.5 -40.5t-22.5 -33.5t-33 -23t-46 -15.5t-60.5 -4.5q-29 0 -65.5 4.5t-55.5 8t-68 14.5 t-55 12q-114 28 -151 28q-36 0 -44 -17t-8 -73h-163zM109 551q0 48 0.5 74.5t4.5 62.5t11 55t20.5 40.5t33.5 32t49.5 17.5t68.5 7q82 0 242 -39q15 -3 42 -9t42.5 -9t35 -6t33.5 -3q36 0 43.5 16t7.5 74h164q0 -48 -1 -75.5t-4.5 -63t-11 -55t-21 -41t-33.5 -32t-49 -17.5 t-68 -7q-82 0 -242 39q-114 27 -153 27q-36 0 -44 -17t-8 -71h-163z" />
<glyph unicode="&#x2260;" horiz-adv-x="1103" d="M143 188v236h254l88 186h-342v238h453l92 194h199l-92 -194h166v-238h-277l-86 -186h363v-236h-474l-86 -186h-200l86 186h-144z" />
<glyph unicode="&#x2264;" horiz-adv-x="1105" d="M143 2v236h818v-236h-818zM143 662v239l818 305v-237l-539 -187l539 -186v-240z" />
<glyph unicode="&#x2265;" horiz-adv-x="1105" d="M143 2v236h818v-236h-818zM143 356v240l539 186l-539 187v237l818 -305v-239z" />
<glyph unicode="&#x25ca;" horiz-adv-x="1101" d="M80 705l346 704h250l346 -704l-346 -705h-250zM317 705l234 -500l233 500l-233 499z" />
<glyph unicode="&#x25fc;" horiz-adv-x="1044" d="M0 0v1044h1044v-1044h-1044z" />
<glyph unicode="&#xf8ff;" horiz-adv-x="1722" d="M147 0v1430h1428v-1430h-1428zM459 647q0 -159 109.5 -265t295.5 -106q185 0 293.5 106t108.5 265v135q0 159 -108.5 265t-293.5 106q-186 0 -295.5 -106t-109.5 -265v-135zM737 594v242q0 51 36.5 86.5t90.5 35.5q52 0 88.5 -35.5t36.5 -86.5v-242q0 -51 -36.5 -87 t-88.5 -36q-54 0 -90.5 36t-36.5 87z" />
<glyph unicode="&#xfb03;" horiz-adv-x="2301" d="M41 797v247h190v72q0 60 2.5 106.5t12.5 86t19.5 67.5t33 51t43 37.5t59.5 25.5t73 16.5t93 9t109.5 4t132.5 0.5v-226q-62 0 -97 -1t-66.5 -6.5t-45.5 -12.5t-24.5 -24t-12.5 -36.5t-2 -52.5v-117h248v-247h-248v-797h-330v797h-190zM901 797v247h191v72q0 60 2.5 106 t12.5 86t19.5 68t32.5 51t42.5 37.5t59.5 25.5t73 16.5t93 9t109.5 4t132.5 0.5v-226q-62 0 -97 -1t-66.5 -6.5t-45.5 -12.5t-24.5 -24t-12.5 -36.5t-2 -52.5v-117h248v-247h-248v-797h-329v797h-191zM1843 1255v267h336v-267h-336zM1845 0v1044h332v-1044h-332z" />
<glyph unicode="&#xfb04;" horiz-adv-x="2260" d="M41 797v247h190v72q0 60 2.5 106.5t12.5 86t19.5 67.5t33 51t43 37.5t59.5 25.5t73 16.5t93 9t109.5 4t132.5 0.5v-226q-62 0 -97 -1t-66.5 -6.5t-45.5 -12.5t-24.5 -24t-12.5 -36.5t-2 -52.5v-117h248v-247h-248v-797h-330v797h-190zM901 797v247h191v72q0 60 2.5 106 t12.5 86t19.5 68t32.5 51t42.5 37.5t59.5 25.5t73 16.5t93 9t109.5 4t132.5 0.5v-226q-62 0 -97 -1t-66.5 -6.5t-45.5 -12.5t-24.5 -24t-12.5 -36.5t-2 -52.5v-117h248v-247h-248v-797h-329v797h-191zM1804 0v1522h332v-1522h-332z" />
</font>
</defs>
</svg>
