<?xml version="1.0" encoding="UTF-8"?>
<!DOCTYPE svg PUBLIC "-//W3C//DTD SVG 1.1//EN" "http://www.w3.org/Graphics/SVG/1.1/DTD/svg11.dtd">
<!-- Creator: CorelDRAW 2019 (64-Bit) -->
<svg xmlns="http://www.w3.org/2000/svg" xml:space="preserve" width="54.9999mm" height="54.9999mm" version="1.1" style="shape-rendering:geometricPrecision; text-rendering:geometricPrecision; image-rendering:optimizeQuality; fill-rule:evenodd; clip-rule:evenodd"
viewBox="0 0 773.02 773.02"
 xmlns:xlink="http://www.w3.org/1999/xlink">
 <defs>
  <style type="text/css">
   <![CDATA[
    .fil0 {fill:none}
    .fil1 {fill:white;fill-rule:nonzero}
   ]]>
  </style>
 </defs>
 <g id="Warstwa_x0020_1">
  <metadata id="CorelCorpID_0Corel-Layer"/>
  <g id="_1514774934800">
   <g>
    <rect class="fil0" x="-0" y="-0" width="773.02" height="773.02"/>
   </g>
   <path class="fil1" d="M68.92 380.7c27.51,-42.2 61.62,-76.25 99.87,-102.32 63.74,-43.44 138.98,-64.74 214.39,-64.66 75.35,0.08 150.9,21.51 215.33,63.51 40.48,26.4 76.57,60.88 105.46,103.27l4.11 6.02 -4.11 6.02c-28.89,42.38 -64.98,76.87 -105.46,103.27 -64.43,42.01 -139.98,63.43 -215.33,63.51 -75.41,0.08 -150.66,-21.22 -214.39,-64.67 -38.25,-26.07 -72.35,-60.12 -99.87,-102.32l-3.79 -5.81 3.79 -5.81zm310.66 -53.63c1.01,-0.12 2.16,-0.22 3.45,-0.29 1.43,-0.09 2.59,-0.13 3.49,-0.13 16.53,0 31.5,6.7 42.33,17.54 10.83,10.83 17.54,25.8 17.54,42.33 0,16.53 -6.7,31.5 -17.54,42.33 -10.83,10.83 -25.8,17.54 -42.33,17.54 -16.53,0 -31.5,-6.7 -42.33,-17.54 -10.83,-10.83 -17.54,-25.8 -17.54,-42.33 0,-3.4 0.33,-6.95 0.99,-10.59 0.63,-3.5 1.57,-6.94 2.81,-10.28l20 7.45c-0.8,2.15 -1.41,4.36 -1.81,6.59 -0.38,2.09 -0.57,4.38 -0.57,6.83 0,10.62 4.3,20.23 11.26,27.19 6.96,6.96 16.57,11.26 27.19,11.26 10.62,0 20.23,-4.3 27.19,-11.26 6.96,-6.96 11.26,-16.57 11.26,-27.19 0,-10.62 -4.3,-20.23 -11.26,-27.19 -6.96,-6.96 -16.57,-11.26 -27.19,-11.26 -1.01,0 -1.76,0.02 -2.23,0.04l-0.04 0c-0.6,0.03 -1.35,0.11 -2.23,0.21l-2.43 -21.25zm6.93 -58.88c32.67,0 62.26,13.25 83.67,34.66 21.41,21.41 34.66,51 34.66,83.67 0,32.67 -13.25,62.26 -34.66,83.67 -21.41,21.41 -51,34.66 -83.67,34.66 -32.67,0 -62.26,-13.25 -83.67,-34.66 -21.41,-21.41 -34.66,-51 -34.66,-83.67 0,-32.67 13.25,-62.26 34.66,-83.67 21.41,-21.41 51,-34.66 83.67,-34.66zm68.53 49.8c-17.54,-17.54 -41.77,-28.38 -68.53,-28.38 -26.76,0 -50.99,10.85 -68.53,28.38 -17.54,17.54 -28.38,41.77 -28.38,68.53 0,26.76 10.85,50.99 28.38,68.53 17.54,17.54 41.77,28.38 68.53,28.38 26.76,0 50.99,-10.85 68.53,-28.38 17.54,-17.54 28.38,-41.77 28.38,-68.53 0,-26.76 -10.85,-50.99 -28.38,-68.53zm-274.21 -21.96c-34.25,23.34 -64.95,53.46 -90.14,90.49 25.19,37.02 55.89,67.14 90.14,90.48 60.1,40.97 131.12,61.06 202.35,60.98 71.28,-0.07 142.76,-20.35 203.7,-60.08 36.21,-23.61 68.7,-54.12 95.24,-91.39 -26.54,-37.27 -59.04,-67.78 -95.24,-91.39 -60.95,-39.74 -132.42,-60.01 -203.7,-60.08 -71.22,-0.07 -142.24,20.01 -202.35,60.98z"/>
  </g>
 </g>
</svg>
