<?xml version="1.0" encoding="UTF-8"?>
<!DOCTYPE svg PUBLIC "-//W3C//DTD SVG 1.1//EN" "http://www.w3.org/Graphics/SVG/1.1/DTD/svg11.dtd">
<!-- Creator: CorelDRAW 2019 (64-Bit) -->
<svg xmlns="http://www.w3.org/2000/svg" xml:space="preserve" width="54.9999mm" height="54.9999mm" version="1.1" style="shape-rendering:geometricPrecision; text-rendering:geometricPrecision; image-rendering:optimizeQuality; fill-rule:evenodd; clip-rule:evenodd"
viewBox="0 0 1103.63 1103.63"
 xmlns:xlink="http://www.w3.org/1999/xlink">
 <defs>
  <style type="text/css">
   <![CDATA[
    .fil0 {fill:none}
    .fil1 {fill:white;fill-rule:nonzero}
   ]]>
  </style>
 </defs>
 <g id="Warstwa_x0020_1">
  <metadata id="CorelCorpID_0Corel-Layer"/>
  <g id="_1514843805824">
   <rect class="fil0" transform="matrix(2.75272E-14 -1.03937 1.03937 2.75272E-14 -0.00119112 1103.63)" width="1061.83" height="1061.83"/>
   <path class="fil1" d="M571.09 963.57l0 -198.23 -57.08 0 0 87.6 -205.78 0 0 -15.29 0 -190.49 205.78 0 0 87.6 57.08 0 0 -365.88 -57.08 0 0 87.6 -205.78 0 0 -15.29 0 -190.49 205.78 0 0 87.6 57.08 0 0 -198.23 30.46 0 -0 396.46 57.08 0 0 -87.6 205.78 0 0 15.29 0 190.49 -205.78 0 0 -87.6 -57.08 0 -0 396.46 -30.46 0zm-232.27 -682.29l0 144.62 144.62 0 0 -144.62 -144.62 0zm0 396.46l0 144.62 144.62 0 0 -144.62 -144.62 0zm495.01 -53.61l0 -144.62 -144.62 0 0 144.62 144.62 0z"/>
  </g>
 </g>
</svg>
