<?xml version="1.0" encoding="UTF-8"?>
<!DOCTYPE svg PUBLIC "-//W3C//DTD SVG 1.1//EN" "http://www.w3.org/Graphics/SVG/1.1/DTD/svg11.dtd">
<!-- Creator: CorelDRAW 2019 (64-Bit) -->
<svg xmlns="http://www.w3.org/2000/svg" xml:space="preserve" width="54.9999mm" height="54.9999mm" version="1.1" style="shape-rendering:geometricPrecision; text-rendering:geometricPrecision; image-rendering:optimizeQuality; fill-rule:evenodd; clip-rule:evenodd"
viewBox="0 0 113092.16 113092.16"
 xmlns:xlink="http://www.w3.org/1999/xlink">
 <defs>
  <style type="text/css">
   <![CDATA[
    .fil0 {fill:none}
    .fil1 {fill:white;fill-rule:nonzero}
   ]]>
  </style>
 </defs>
 <g id="Warstwa_x0020_1">
  <metadata id="CorelCorpID_0Corel-Layer"/>
  <g id="_1514783066176">
   <g>
    <rect class="fil0" x="-0.11" y="-0.12" width="113092.18" height="113092.18"/>
   </g>
   <path class="fil1" d="M53408.79 46918.11c-1777.61,-1096.38 -3602.71,-2108.25 -5483.13,-3018.33l-6135.77 10627.6 -2705.17 -1554.51 5980.53 -10358.64c-787.53,-326.73 -1584.53,-635.58 -2392.01,-924.89 -1187.06,-425.23 -2397.35,-808.92 -3633.14,-1147.78l-5371.27 9303.18 -2705.17 -1566.84 4903.89 -8493.85c-1915.17,-390.27 -3890.17,-672.39 -5930.56,-834.83l-17601.08 30485.59c4455.43,3572.28 9045.54,6704.12 13762.72,9417.1 4870.79,2801.19 9895.17,5163.8 15064.31,7111.66 1548.13,-773.96 3141.09,-1604.47 4732.61,-2434.16 6248.04,-3257.27 12481.08,-6506.92 23967.36,-10184.07 -40.92,-736.95 -149.49,-1472.26 -306.79,-2188.23 -196.78,-895.28 -471.9,-1755.19 -787.95,-2547.66 -2777.75,56.55 -5524.46,464.09 -8250.19,1104.4 -3090.3,726.05 -6145.03,1750.46 -9184.13,2902.16l-4096.82 1552.86 23076.19 -39968.49c-280.06,-1557.59 -723.59,-2973.71 -1364.92,-4173.52 -337.84,-631.88 -732.84,-1207.62 -1190.76,-1715.71l-11715.55 20291.44 -2.26 -1.44 -6128.58 10615.05 -2705.17 -1554.51 6202.81 -10743.57zm26549.56 17043.43l9241.91 -9241.91 9241.91 9241.91 -2215.38 2215.38 -5459.69 -5459.69 0 17231.99 -3133.69 0 0 -17231.99 -5459.69 5459.69 -2215.38 -2215.38zm2215.38 -27819.69l5459.69 5459.69 0 -17231.99 3133.69 0 0 17231.99 5459.69 -5459.69 2215.38 2215.38 -9241.91 9241.91 -9241.91 -9241.91 2215.38 -2215.38zm-38447.7 2609.97c3977.56,1425.17 7705.7,3284.41 11242,5458.66l11871.2 -20561.22 1392.48 949.56c1474.11,1005.29 2613.87,2356.23 3470.7,3959.06 896.51,1677.06 1473.7,3614.02 1795.08,5702.73l82.04 534.62c-6436.81,11153.58 -12877.93,22304.49 -19316.59,33456.83 1835.8,-608.44 3682.49,-1148.4 5545.23,-1585.97 3263.85,-766.56 6587.12,-1220.58 10001.48,-1182.95l993.16 11.1 414.33 888.7c562.79,1207.62 1069.03,2610.79 1399.06,4113.27 282.94,1287.81 433.86,2658.08 377.52,4053.64l-44.62 1102.75 -1050.94 329.2c-11909.45,3731.43 -18225.97,7024.68 -24558.31,10325.95 -1698.24,885.41 -3398.53,1771.85 -5398.82,2759.45l-604.53 298.56 -625.5 -231.33c-5524.87,-2041.63 -10916.91,-4558.03 -16166.86,-7577.39 -5235.77,-3011.34 -10312.38,-6517.2 -15219.15,-10544.94l-1024.21 -840.58 19900.97 -34469.11 961.9 58.19c5215.2,316.25 10042.4,1371.71 14562.39,2991.19z"/>
  </g>
 </g>
</svg>
