<?xml version="1.0" encoding="UTF-8"?>
<!DOCTYPE svg PUBLIC "-//W3C//DTD SVG 1.1//EN" "http://www.w3.org/Graphics/SVG/1.1/DTD/svg11.dtd">
<!-- Creator: CorelDRAW 2019 (64-Bit) -->
<svg xmlns="http://www.w3.org/2000/svg" xml:space="preserve" width="54.9999mm" height="54.9999mm" version="1.1" style="shape-rendering:geometricPrecision; text-rendering:geometricPrecision; image-rendering:optimizeQuality; fill-rule:evenodd; clip-rule:evenodd"
viewBox="0 0 387.06 387.06"
 xmlns:xlink="http://www.w3.org/1999/xlink">
 <defs>
  <style type="text/css">
   <![CDATA[
    .fil0 {fill:none}
    .fil1 {fill:white;fill-rule:nonzero}
   ]]>
  </style>
 </defs>
 <g id="Warstwa_x0020_1">
  <metadata id="CorelCorpID_0Corel-Layer"/>
  <g id="_1514868123856">
   <g>
    <rect class="fil0" x="-0" y="-0" width="387.06" height="387.06"/>
   </g>
   <path class="fil1" d="M86.6 206.82l39.14 0 0 10.72 -39.14 0 0 -10.72zm5.36 -111.72l82.73 0 0 88.09 -88.09 0 0 -88.09 5.36 0zm72 10.72l-66.64 0 0 66.64 66.64 0 0 -66.64zm136.5 74.48l-37.69 0 0 -10.72 37.69 0 0 10.72zm-59.71 0l-48.94 0 0 -10.72 48.94 0 0 10.72zm59.71 -37.24l-108.65 0 0 -10.72 108.65 0 0 10.72zm0 -37.24l-39.14 0 0 -10.72 39.14 0 0 10.72zm-61.16 0l-47.49 0 0 -10.72 47.49 0 0 10.72zm-152.7 175.47l37.69 0 0 10.72 -37.69 0 0 -10.72zm59.71 0l154.15 0 0 10.72 -154.15 0 0 -10.72zm-59.71 -37.24l149.54 0 0 10.72 -149.54 0 0 -10.72zm171.56 0l42.3 0 0 10.72 -42.3 0 0 -10.72zm-110.4 -37.24l41.73 0 0 10.72 -41.73 0 0 -10.72zm63.75 0l88.95 0 0 10.72 -88.95 0 0 -10.72z"/>
  </g>
 </g>
</svg>
