<?xml version="1.0" encoding="UTF-8"?>
<!DOCTYPE svg PUBLIC "-//W3C//DTD SVG 1.1//EN" "http://www.w3.org/Graphics/SVG/1.1/DTD/svg11.dtd">
<!-- Creator: CorelDRAW 2019 (64-Bit) -->
<svg xmlns="http://www.w3.org/2000/svg" xml:space="preserve" width="54.9999mm" height="54.9999mm" version="1.1" style="shape-rendering:geometricPrecision; text-rendering:geometricPrecision; image-rendering:optimizeQuality; fill-rule:evenodd; clip-rule:evenodd"
viewBox="0 0 465.7 465.7"
 xmlns:xlink="http://www.w3.org/1999/xlink">
 <defs>
  <style type="text/css">
   <![CDATA[
    .fil0 {fill:none}
    .fil1 {fill:white;fill-rule:nonzero}
   ]]>
  </style>
 </defs>
 <g id="Warstwa_x0020_1">
  <metadata id="CorelCorpID_0Corel-Layer"/>
  <g id="_1514861220480">
   <g>
    <rect class="fil0" x="-0" y="-0" width="465.7" height="465.7"/>
   </g>
   <path class="fil1" d="M246.25 107.19l-24.62 0c-14.77,11.11 -28.88,23.34 -42.29,36.79 -13.94,13.98 -27.11,29.28 -39.45,46l-1.94 2.62 -46.55 0 0 80.5 46.55 0 1.94 2.62c12.34,16.72 25.52,32.01 39.45,46 13.41,13.45 27.52,25.68 42.29,36.79l24.62 0 0 -251.31zm38.71 72.13c7.07,7.07 12.61,15.44 16.4,24.58 3.78,9.12 5.78,18.94 5.78,28.94 0,10 -2,19.83 -5.78,28.94 -3.78,9.14 -9.33,17.51 -16.4,24.58l-9.12 -9.12c5.91,-5.91 10.52,-12.84 13.62,-20.35 3.12,-7.52 4.77,-15.69 4.77,-24.05 0,-8.36 -1.65,-16.53 -4.77,-24.05 -3.11,-7.51 -7.71,-14.44 -13.62,-20.35l9.12 -9.12zm9.1 -54.96c19.4,11.2 35.06,27.13 45.87,45.84l0 0.03c10.83,18.75 16.8,40.28 16.8,62.62 0,22.34 -5.98,43.87 -16.8,62.62l0 0.03c-10.8,18.71 -26.47,34.64 -45.87,45.84l-6.4 -11.14c17.37,-10.03 31.42,-24.33 41.13,-41.15l0.01 0.01c9.68,-16.78 15.03,-36.09 15.03,-56.2 0,-20.11 -5.35,-39.42 -15.03,-56.2l-0.01 0.01c-9.71,-16.82 -23.76,-31.13 -41.13,-41.15l6.4 -11.14zm-74.54 -30.07l39.63 0 0 277.12 -41.74 0 -1.73 -1.29c-15.91,-11.83 -31.09,-24.91 -45.47,-39.34 -13.64,-13.68 -26.56,-28.58 -38.71,-44.79l-53.01 0 0 -106.3 53.01 0c12.15,-16.21 25.08,-31.11 38.71,-44.79 14.38,-14.43 29.56,-27.5 45.47,-39.34l1.73 -1.29 2.1 0z"/>
  </g>
 </g>
</svg>
