<?xml version="1.0" encoding="UTF-8"?>
<!DOCTYPE svg PUBLIC "-//W3C//DTD SVG 1.1//EN" "http://www.w3.org/Graphics/SVG/1.1/DTD/svg11.dtd">
<!-- Creator: CorelDRAW 2019 (64-Bit) -->
<svg xmlns="http://www.w3.org/2000/svg" xml:space="preserve" width="54.9999mm" height="54.9999mm" version="1.1" style="shape-rendering:geometricPrecision; text-rendering:geometricPrecision; image-rendering:optimizeQuality; fill-rule:evenodd; clip-rule:evenodd"
viewBox="0 0 1257.86 1257.86"
 xmlns:xlink="http://www.w3.org/1999/xlink">
 <defs>
  <style type="text/css">
   <![CDATA[
    .fil0 {fill:none}
    .fil1 {fill:white}
   ]]>
  </style>
 </defs>
 <g id="Warstwa_x0020_1">
  <metadata id="CorelCorpID_0Corel-Layer"/>
  <g id="_1514916648784">
   <rect class="fil0" x="-0" y="-0" width="1257.86" height="1257.86"/>
   <path class="fil1" d="M719.35 939.85l-154.52 89.22 0 -76.31c-21.32,-4.21 -41.96,-10.48 -61.65,-18.61 -27.01,-11.15 -52.26,-25.74 -75.12,-43.28 -28.48,-21.85 -53.42,-48.35 -73.62,-78.57 -19.72,-29.51 -34.9,-62.45 -44.41,-97.95 -7.58,-28.3 -11.28,-57.01 -11.28,-85.41 0,-28.88 3.83,-57.61 11.28,-85.44 7.39,-27.59 18.47,-54.38 33.04,-79.6 14.38,-24.92 31.91,-47.98 52.38,-68.45l17.8 -17.8 57.98 57.98 -17.8 17.8c-15.65,15.65 -28.88,32.96 -39.53,51.39 -10.85,18.78 -19.15,38.91 -24.75,59.83 -5.57,20.81 -8.44,42.43 -8.44,64.3 0,21.49 2.77,43.09 8.44,64.26 7.2,26.87 18.57,51.63 33.26,73.64 15.15,22.68 33.88,42.58 55.29,59.01 16.89,12.96 35.32,23.72 54.85,31.94 10.4,4.38 21.18,8.07 32.28,11.01l0 -61.63 192.16 110.95 -37.64 21.73zm-180.85 -621.84l154.52 -89.21 0 76.3c21.32,4.21 41.96,10.48 61.65,18.61 27.01,11.15 52.26,25.74 75.12,43.28 28.48,21.85 53.42,48.35 73.62,78.57 19.72,29.51 34.9,62.45 44.41,97.95 7.58,28.3 11.28,57.01 11.28,85.41 0,28.88 -3.83,57.61 -11.28,85.44 -7.39,27.59 -18.47,54.38 -33.04,79.6 -14.38,24.92 -31.91,47.98 -52.38,68.45l-17.8 17.8 -57.98 -57.98 17.8 -17.8c15.65,-15.65 28.88,-32.96 39.53,-51.39 10.85,-18.78 19.15,-38.91 24.75,-59.83 5.57,-20.81 8.44,-42.43 8.44,-64.3 0,-21.49 -2.77,-43.09 -8.44,-64.26 -7.2,-26.87 -18.57,-51.63 -33.26,-73.64 -15.15,-22.68 -33.88,-42.58 -55.29,-59.01 -16.89,-12.96 -35.32,-23.72 -54.85,-31.94 -10.4,-4.38 -21.18,-8.07 -32.28,-11.01l0 61.63 -192.16 -110.95 37.64 -21.73z"/>
  </g>
 </g>
</svg>
