<?xml version="1.0" encoding="UTF-8"?>
<!DOCTYPE svg PUBLIC "-//W3C//DTD SVG 1.1//EN" "http://www.w3.org/Graphics/SVG/1.1/DTD/svg11.dtd">
<!-- Creator: CorelDRAW 2019 (64-Bit) -->
<svg xmlns="http://www.w3.org/2000/svg" xml:space="preserve" width="54.9999mm" height="54.9999mm" version="1.1" style="shape-rendering:geometricPrecision; text-rendering:geometricPrecision; image-rendering:optimizeQuality; fill-rule:evenodd; clip-rule:evenodd"
viewBox="0 0 113092.16 113092.16"
 xmlns:xlink="http://www.w3.org/1999/xlink">
 <defs>
  <style type="text/css">
   <![CDATA[
    .fil0 {fill:none}
    .fil1 {fill:white;fill-rule:nonzero}
   ]]>
  </style>
 </defs>
 <g id="Warstwa_x0020_1">
  <metadata id="CorelCorpID_0Corel-Layer"/>
  <g id="_1514782073152">
   <g>
    <rect class="fil0" x="-0.11" y="-0.12" width="113092.18" height="113092.18"/>
   </g>
   <path class="fil1" d="M50997.46 40554.3c5044.12,-158.53 10099.15,136.74 15153.97,1054.23 5625.83,1020.92 11227.81,2804.69 16783.73,5578.33l869.17 434.07 0 47140.6 -1315.98 217.34c-7465.12,1233.32 -14797.83,1826.54 -22003.25,1814.82 -7220.23,-11.51 -14289.73,-628.59 -21216.13,-1814.82l-660.67 -113.09 -373.62 -560.12c-1360.4,-2038.34 -2648.01,-4062.28 -3934.38,-6084.16 -4582.09,-7202.13 -9152.87,-14385.97 -19294.38,-25414.12l-743.12 -807.89 510.56 -973.01c763.68,-1455.81 1726,-2765.42 2775.08,-3914.64 1211.73,-1327.29 2559.38,-2462.74 3859.12,-3373.03l806.45 -564.84 851.89 479.31c3524.37,1983.02 6678.41,4430.34 9596.4,7172.52 1851.22,1739.77 3607.24,3600.04 5303,5536.18l0 -23157.2 6.17 0 -0.62 -23729.04 342.98 -427.28c1565.82,-1951.56 3294.07,-3589.35 5182.1,-4763.24 1801.66,-1120.03 3743.77,-1820.58 5824.05,-1976.85l1676.85 -126.05 0.62 28371.99zm22429.51 6101.64l0 12149 -3133.69 0 0 -13076.77c-1563.76,-416.18 -3128.13,-763.27 -4692.51,-1047.24 -1127.43,-204.59 -2256.09,-376.7 -3385.78,-518.37l0 14642.38 -3133.69 0 0 -14958.83c-2689.13,-207.27 -5382.79,-253.33 -8078.29,-165.53l0 15124.36 -3133.69 0 0 -16293.73 6.79 0 -0.41 -26787.88c-943.4,260.32 -1853.07,674.44 -2727.38,1218.11 -1445.53,898.78 -2799.76,2148.96 -4055.9,3647.33l0.41 22616 6.17 0 0 31822.55 -2778.58 -3402.02c-2464.59,-3017.51 -5023.36,-5913.09 -7800.29,-8522.85 -2497.9,-2347.39 -5174.28,-4461.39 -8120.65,-6219.26 -860.74,666.83 -1729.29,1448.2 -2537.79,2333.82 -653.26,715.57 -1260.05,1491.17 -1781.51,2317.98 9766.25,10730 14303.92,17861.19 18851.67,25009.45 1133.8,1782.34 2268.84,3566.52 3524.16,5461.33 6572.52,1089.39 13247.23,1655.67 20029.07,1666.57 6601.92,10.9 13328.86,-502.13 20185.55,-1567.05l0 -42540.62c-2411.75,-1156.83 -4826.78,-2119.35 -7243.67,-2908.74z"/>
  </g>
 </g>
</svg>
