<?xml version="1.0" encoding="UTF-8"?>
<!DOCTYPE svg PUBLIC "-//W3C//DTD SVG 1.1//EN" "http://www.w3.org/Graphics/SVG/1.1/DTD/svg11.dtd">
<!-- Creator: CorelDRAW 2019 (64-Bit) -->
<svg xmlns="http://www.w3.org/2000/svg" xml:space="preserve" width="54.9999mm" height="54.9999mm" version="1.1" style="shape-rendering:geometricPrecision; text-rendering:geometricPrecision; image-rendering:optimizeQuality; fill-rule:evenodd; clip-rule:evenodd"
viewBox="0 0 452.33 452.33"
 xmlns:xlink="http://www.w3.org/1999/xlink">
 <defs>
  <style type="text/css">
   <![CDATA[
    .fil0 {fill:none}
    .fil1 {fill:white;fill-rule:nonzero}
   ]]>
  </style>
 </defs>
 <g id="Warstwa_x0020_1">
  <metadata id="CorelCorpID_0Corel-Layer"/>
  <g id="_1514886434432">
   <g>
    <rect class="fil0" x="-0" y="-0" width="452.33" height="452.33"/>
   </g>
   <path class="fil1" d="M226.17 52.09c48.07,0 91.59,19.48 123.09,50.99 31.5,31.5 50.99,75.02 50.99,123.09 0,48.07 -19.49,91.59 -50.99,123.09 -31.5,31.5 -75.02,50.99 -123.09,50.99 -48.07,0 -91.59,-19.48 -123.09,-50.99 -31.5,-31.5 -50.99,-75.02 -50.99,-123.09 0,-48.07 19.48,-91.59 50.99,-123.09 31.5,-31.5 75.02,-50.99 123.09,-50.99zm2.82 264.02c14.92,-3.59 29.56,-7.95 43.91,-13.14 14.36,-5.19 28.4,-11.21 42.08,-18.11l-37 -101.65 -71.38 71.38 22.39 61.52zm90.28 -19.44c-13.76,6.88 -27.8,12.88 -42.12,18.05 -14.33,5.18 -28.96,9.56 -43.87,13.2l5.46 14.99c14.44,-3.27 28.79,-7.47 43.05,-12.64 14.37,-5.21 28.68,-11.42 42.91,-18.68l-5.43 -14.93zm-134.93 -103.21c13.81,-6.82 27.83,-12.88 42.08,-18.1 14.33,-5.25 28.94,-9.69 43.87,-13.26l-2.91 -7.98c-14.95,3.51 -29.57,7.92 -43.87,13.16 -14.39,5.27 -28.41,11.34 -42.09,18.15l2.92 8.03zm83.52 -17.86c-12.61,3.21 -24.99,7.06 -37.14,11.51 -14.39,5.27 -28.41,11.34 -42.09,18.15l13.23 36.34 66 -66zm-97.05 1.21c14.05,-7.21 28.32,-13.63 42.82,-19.19l9.76 -20.56 -26.14 10.82 -13.88 -28.41 -7.83 27.16 -30.87 -6.86 16.37 23.08 -24.61 19.85 28.23 1.59 0.18 31.65 10.23 -11.44 -9.16 -25.17 4.91 -2.52zm59.5 -25.16c13,-4.34 26.24,-8.01 39.73,-10.97l5.32 -1.17 7.63 20.96 52.88 -52.88c-28.81,-26.67 -67.36,-42.97 -109.71,-42.97 -44.61,0 -85,18.08 -114.23,47.31 -29.23,29.23 -47.31,69.62 -47.31,114.23 0,42.35 16.3,80.9 42.97,109.71l84.53 -84.53 -12.21 -33.54 -27.38 30.62 -0.29 -52.31 -48.93 -2.76 40.74 -32.86 -28.33 -39.95 51.09 11.36 13.58 -47.09 22.97 47.02 45.26 -18.73 -18.29 38.54zm57.41 21.82l52.46 144.15 -4.82 2.55c-16.3,8.6 -32.74,15.87 -49.31,21.87 -16.57,6.01 -33.26,10.74 -50.04,14.28l-5.29 1.11 -33.88 -93.08 -80.39 80.39c28.81,26.67 67.36,42.97 109.71,42.97 44.61,0 85,-18.08 114.23,-47.31 29.23,-29.23 47.31,-69.62 47.31,-114.23 0,-42.35 -16.3,-80.9 -42.97,-109.71l-57.01 57.01z"/>
  </g>
 </g>
</svg>
