<?xml version="1.0" encoding="UTF-8"?>
<!DOCTYPE svg PUBLIC "-//W3C//DTD SVG 1.1//EN" "http://www.w3.org/Graphics/SVG/1.1/DTD/svg11.dtd">
<!-- Creator: CorelDRAW 2019 (64-Bit) -->
<svg xmlns="http://www.w3.org/2000/svg" xml:space="preserve" width="54.9999mm" height="54.9999mm" version="1.1" style="shape-rendering:geometricPrecision; text-rendering:geometricPrecision; image-rendering:optimizeQuality; fill-rule:evenodd; clip-rule:evenodd"
viewBox="0 0 441.7 441.7"
 xmlns:xlink="http://www.w3.org/1999/xlink">
 <defs>
  <style type="text/css">
   <![CDATA[
    .fil0 {fill:none}
    .fil1 {fill:white;fill-rule:nonzero}
   ]]>
  </style>
 </defs>
 <g id="Warstwa_x0020_1">
  <metadata id="CorelCorpID_0Corel-Layer"/>
  <g id="_1514545755616">
   <rect class="fil0" x="-0" y="-0" width="441.7" height="441.7"/>
   <path class="fil1" d="M234.85 133.09c3.66,0.3 7.12,0.73 10.37,1.26 3.48,0.57 6.6,1.24 9.36,1.97l4.34 1.15 0.2 4.49c0.97,21.9 6.78,43.64 12.82,66.29 7.48,28.03 15.33,57.42 15.33,91.1l0 4.57 -41.23 11.9c-0.53,7.74 -1.56,17.18 -2.81,26.78 -1.75,13.44 -3.93,27.16 -5.79,36.91l-0.95 5 -31.28 0 -0.95 -5c-1.86,-9.75 -4.04,-23.47 -5.79,-36.91 -1.25,-9.59 -2.28,-19.03 -2.81,-26.78l-41.23 -11.9 0 -4.57c0,-33.69 7.84,-63.07 15.33,-91.1 6.05,-22.65 11.85,-44.4 12.82,-66.29l0.2 -4.49 4.34 -1.15c2.76,-0.73 5.88,-1.4 9.36,-1.97 3.25,-0.53 6.71,-0.96 10.37,-1.26l3.63 -0.3 1.99 3.12c1.01,1.58 2.47,3.18 4.33,4.69 1.21,0.97 2.56,1.89 4.05,2.71 1.49,-0.82 2.85,-1.73 4.05,-2.71 1.86,-1.5 3.33,-3.11 4.33,-4.69l1.99 -3.12 3.63 0.3zm-14 -75.9c9.24,0 17.61,3.75 23.66,9.8 6.06,6.06 9.8,14.42 9.8,23.66 0,9.24 -3.75,17.61 -9.8,23.66 -6.06,6.06 -14.42,9.8 -23.66,9.8 -9.24,0 -17.61,-3.75 -23.66,-9.8 -6.06,-6.06 -9.8,-14.42 -9.8,-23.66 0,-9.24 3.75,-17.61 9.8,-23.66 6.06,-6.06 14.42,-9.8 23.66,-9.8zm15.01 18.45c-3.84,-3.84 -9.15,-6.22 -15.01,-6.22 -5.86,0 -11.17,2.38 -15.01,6.22 -3.84,3.84 -6.22,9.15 -6.22,15.01 0,5.86 2.38,11.17 6.22,15.01 3.84,3.84 9.15,6.22 15.01,6.22 5.86,0 11.17,-2.38 15.01,-6.22 3.84,-3.84 6.22,-9.15 6.22,-15.01 0,-5.86 -2.38,-11.17 -6.22,-15.01zm7.4 70.75c-1.86,-0.3 -3.87,-0.57 -6.06,-0.81 -1.34,1.58 -2.89,3.11 -4.65,4.52 -2.63,2.12 -5.74,4.04 -9.26,5.58l-2.44 1.07 -2.44 -1.07c-3.53,-1.54 -6.64,-3.46 -9.26,-5.58 -1.76,-1.42 -3.31,-2.94 -4.65,-4.52 -2.19,0.23 -4.21,0.5 -6.06,0.81 -1.37,0.22 -2.69,0.47 -3.94,0.73 -1.56,21.66 -7.14,42.57 -12.93,64.28 -6.93,25.95 -14.17,53.09 -14.85,83.39l40.67 11.74 0.2 4.38c0.37,8.06 1.51,18.96 2.97,30.11 1.43,10.96 3.17,22.2 4.78,31.24l11.02 0c1.61,-9.05 3.35,-20.28 4.78,-31.24 1.45,-11.15 2.6,-22.06 2.97,-30.11l0.2 -4.38 40.67 -11.74c-0.67,-30.3 -7.92,-57.44 -14.85,-83.39 -5.8,-21.71 -11.38,-42.62 -12.93,-64.28 -1.25,-0.26 -2.57,-0.5 -3.94,-0.73z"/>
  </g>
 </g>
</svg>
