<?xml version="1.0" encoding="UTF-8"?>
<!DOCTYPE svg PUBLIC "-//W3C//DTD SVG 1.1//EN" "http://www.w3.org/Graphics/SVG/1.1/DTD/svg11.dtd">
<!-- Creator: CorelDRAW 2019 (64-Bit) -->
<svg xmlns="http://www.w3.org/2000/svg" xml:space="preserve" width="54.9999mm" height="54.9999mm" version="1.1" style="shape-rendering:geometricPrecision; text-rendering:geometricPrecision; image-rendering:optimizeQuality; fill-rule:evenodd; clip-rule:evenodd"
viewBox="0 0 790.21 790.21"
 xmlns:xlink="http://www.w3.org/1999/xlink">
 <defs>
  <style type="text/css">
   <![CDATA[
    .fil0 {fill:none}
    .fil1 {fill:white;fill-rule:nonzero}
   ]]>
  </style>
 </defs>
 <g id="Warstwa_x0020_1">
  <metadata id="CorelCorpID_0Corel-Layer"/>
  <g id="_1514916621776">
   <rect class="fil0" x="-0" y="-0" width="790.21" height="790.21"/>
   <path class="fil1" d="M138.45 435.94l0 -97.74 54.87 -9.34c0.59,-1.8 1.21,-3.6 1.85,-5.39 1.19,-3.31 2.42,-6.51 3.7,-9.6 1.35,-3.27 2.75,-6.43 4.18,-9.45 0.79,-1.68 1.64,-3.4 2.53,-5.16l-32.18 -45.38 80.48 -80.48 45.38 32.18c1.75,-0.89 3.47,-1.73 5.15,-2.52 3.03,-1.43 6.19,-2.82 9.47,-4.18 3.08,-1.27 6.28,-2.51 9.59,-3.69 1.79,-0.64 3.59,-1.26 5.4,-1.85l9.34 -54.87 113.83 0 9.34 54.87c1.81,0.59 3.61,1.21 5.41,1.86 3.31,1.19 6.51,2.42 9.59,3.7 3.27,1.35 6.43,2.75 9.46,4.18 1.68,0.79 3.39,1.63 5.14,2.52l45.38 -32.17 80.47 80.47 -32.17 45.38c0.89,1.75 1.73,3.47 2.52,5.14 1.43,3.03 2.82,6.19 4.18,9.47 1.27,3.08 2.51,6.28 3.69,9.58 0.65,1.8 1.26,3.6 1.86,5.41l54.87 9.34 0 113.83 -54.87 9.34c-0.59,1.8 -1.21,3.6 -1.85,5.4 -1.19,3.31 -2.42,6.51 -3.69,9.59 -1.36,3.28 -2.75,6.45 -4.19,9.48 -0.79,1.68 -1.63,3.39 -2.52,5.14l32.18 45.38 -80.48 80.48 -45.38 -32.18c-1.76,0.89 -3.48,1.73 -5.16,2.53 -3.03,1.43 -6.18,2.82 -9.45,4.18 -3.08,1.28 -6.29,2.51 -9.6,3.7 -1.79,0.64 -3.59,1.26 -5.39,1.85l-9.34 54.87 -113.83 0 -9.34 -54.87c-1.8,-0.59 -3.61,-1.21 -5.4,-1.85 -3.31,-1.18 -6.51,-2.42 -9.59,-3.69 -3.28,-1.36 -6.44,-2.75 -9.47,-4.18 -1.68,-0.79 -3.4,-1.63 -5.15,-2.52l-45.38 32.18 -80.48 -80.48 32.18 -45.38c-0.89,-1.75 -1.73,-3.47 -2.52,-5.15 -1.43,-3.03 -2.82,-6.19 -4.18,-9.47 -1.27,-3.07 -2.5,-6.27 -3.69,-9.58 -0.64,-1.8 -1.26,-3.6 -1.86,-5.41l-54.87 -9.34 0 -16.09zm214.08 1.75c5.78,5.78 12.42,10.13 19.48,13.06 7.33,3.04 15.2,4.56 23.1,4.56 15.4,0 30.81,-5.87 42.56,-17.62 5.81,-5.81 10.17,-12.44 13.08,-19.47 3.04,-7.33 4.55,-15.2 4.55,-23.1 0,-15.4 -5.87,-30.81 -17.62,-42.56 -5.81,-5.81 -12.44,-10.17 -19.47,-13.08 -7.33,-3.04 -15.2,-4.55 -23.1,-4.55 -15.4,0 -30.81,5.87 -42.56,17.62 -5.81,5.81 -10.17,12.44 -13.08,19.47 -3.04,7.33 -4.55,15.2 -4.55,23.1 0,7.91 1.52,15.77 4.55,23.1 2.91,7.02 7.27,13.65 13.07,19.46l-0.02 0.02zm-26.82 26.84c-9.37,-9.37 -16.46,-20.22 -21.28,-31.85 -4.99,-12.04 -7.48,-24.83 -7.48,-37.56 0,-12.74 2.5,-25.52 7.48,-37.56 4.82,-11.63 11.91,-22.48 21.27,-31.84 9.37,-9.37 20.22,-16.46 31.85,-21.28 12.04,-4.99 24.83,-7.48 37.56,-7.48 12.74,0 25.52,2.5 37.56,7.48 11.63,4.82 22.48,11.91 31.84,21.27 9.37,9.37 16.46,20.22 21.28,31.85 4.99,12.04 7.48,24.83 7.48,37.56 0,12.74 -2.5,25.52 -7.48,37.56 -4.82,11.63 -11.91,22.48 -21.27,31.84 -9.37,9.37 -20.22,16.46 -31.85,21.28 -12.04,4.99 -24.83,7.48 -37.56,7.48 -12.74,0 -25.52,-2.5 -37.56,-7.48 -11.63,-4.82 -22.48,-11.91 -31.84,-21.27zm-149.04 -94.16l0 49.48 46.84 7.97 3.13 11.88c1.01,3.84 2.13,7.6 3.36,11.25 1.24,3.68 2.6,7.33 4.09,10.91 1.44,3.49 3.05,7.01 4.81,10.56 1.71,3.46 3.57,6.91 5.57,10.33l6.15 10.56 -27.47 38.74 35.01 35.01 38.75 -27.47 10.56 6.15c3.43,1.99 6.88,3.85 10.34,5.57 3.55,1.76 7.07,3.36 10.55,4.8 3.59,1.48 7.24,2.85 10.92,4.09 3.65,1.23 7.41,2.35 11.25,3.36l11.88 3.13 7.97 46.84 49.48 0 7.97 -46.84 11.88 -3.14c3.84,-1.01 7.6,-2.14 11.26,-3.37 3.68,-1.24 7.33,-2.6 10.91,-4.09 3.49,-1.44 7.01,-3.05 10.57,-4.81 3.45,-1.71 6.9,-3.57 10.32,-5.56l10.56 -6.15 38.75 27.47 35.01 -35.01 -27.48 -38.74 6.15 -10.56c1.99,-3.43 3.85,-6.87 5.56,-10.33 1.76,-3.55 3.37,-7.08 4.81,-10.56 1.48,-3.59 2.85,-7.23 4.09,-10.91 1.23,-3.65 2.35,-7.41 3.36,-11.25l3.13 -11.88 46.84 -7.97 0 -49.48 -46.84 -7.97 -3.13 -11.88c-1.01,-3.84 -2.14,-7.6 -3.37,-11.26 -1.24,-3.69 -2.6,-7.33 -4.09,-10.92 -1.44,-3.48 -3.05,-7.01 -4.81,-10.56 -1.71,-3.45 -3.57,-6.9 -5.56,-10.32l-6.15 -10.56 27.48 -38.75 -35.01 -35.01 -38.75 27.48 -10.56 -6.15c-3.42,-1.99 -6.87,-3.85 -10.33,-5.56 -3.55,-1.76 -7.07,-3.36 -10.55,-4.8 -3.59,-1.48 -7.23,-2.85 -10.92,-4.09 -3.66,-1.23 -7.42,-2.35 -11.26,-3.37l-11.88 -3.13 -7.97 -46.84 -49.48 0 -7.97 46.84 -11.88 3.13c-3.84,1.01 -7.6,2.14 -11.25,3.36 -3.68,1.24 -7.33,2.6 -10.91,4.09 -3.48,1.44 -7,3.04 -10.55,4.8 -3.46,1.72 -6.92,3.58 -10.35,5.57l-10.56 6.15 -38.74 -27.48 -35.01 35.01 27.47 38.75 -6.15 10.56c-1.99,3.42 -3.85,6.87 -5.56,10.32 -1.76,3.55 -3.37,7.08 -4.81,10.57 -1.48,3.59 -2.85,7.23 -4.09,10.91 -1.23,3.65 -2.35,7.41 -3.37,11.26l-3.14 11.88 -46.84 7.97z"/>
  </g>
 </g>
</svg>
