<?xml version="1.0" encoding="UTF-8"?>
<!DOCTYPE svg PUBLIC "-//W3C//DTD SVG 1.1//EN" "http://www.w3.org/Graphics/SVG/1.1/DTD/svg11.dtd">
<!-- Creator: CorelDRAW 2019 (64-Bit) -->
<svg xmlns="http://www.w3.org/2000/svg" xml:space="preserve" width="54.9999mm" height="54.9999mm" version="1.1" style="shape-rendering:geometricPrecision; text-rendering:geometricPrecision; image-rendering:optimizeQuality; fill-rule:evenodd; clip-rule:evenodd"
viewBox="0 0 314.86 314.86"
 xmlns:xlink="http://www.w3.org/1999/xlink">
 <defs>
  <style type="text/css">
   <![CDATA[
    .fil0 {fill:none}
    .fil1 {fill:white;fill-rule:nonzero}
   ]]>
  </style>
 </defs>
 <g id="Warstwa_x0020_1">
  <metadata id="CorelCorpID_0Corel-Layer"/>
  <g id="_1890957706160">
   <g>
    <rect class="fil0" x="-0" y="-0" width="314.86" height="314.86"/>
   </g>
   <path class="fil1" d="M218.84 96.23l0 59.42 -8.72 0 0 -59.42 -19.63 19.63 -6.17 -6.17 30.16 -30.16 30.16 30.16 -6.17 6.17 -19.63 -19.63zm-53.66 -0.66c1.43,14.39 2.13,28.6 2.12,42.66 -0.01,14.06 -0.72,27.91 -2.09,41.55l-0.4 3.94 -12.78 0c-1.26,13.07 -3.09,27.04 -5.36,40.54 -2.34,13.92 -5.16,27.35 -8.3,38.8l-0.88 3.22 -35.7 0 -0.88 -3.22c-3.14,-11.45 -5.96,-24.88 -8.3,-38.8 -2.27,-13.5 -4.1,-27.47 -5.36,-40.54l-12.78 0 -0.4 -3.94c-1.37,-13.64 -2.08,-27.49 -2.09,-41.55 -0.01,-14.05 0.68,-28.27 2.12,-42.66l0.3 -3.02 2.94 -0.77c13.46,-3.52 27.9,-5.27 42.3,-5.27 14.4,0 28.84,1.76 42.3,5.27l2.94 0.77 0.3 3.02zm-6.57 42.66c0.01,-12.74 -0.58,-25.65 -1.79,-38.76 -11.84,-2.82 -24.49,-4.23 -37.18,-4.23 -12.69,0 -25.34,1.41 -37.18,4.23 -1.21,13.11 -1.8,26.02 -1.79,38.76 0.01,12.38 0.58,24.63 1.68,36.76l12.86 0 0.35 3.99c1.25,14.1 3.19,29.31 5.63,43.85 2.09,12.43 4.54,24.37 7.23,34.73l22.42 0c2.69,-10.35 5.14,-22.3 7.23,-34.73 2.44,-14.53 4.38,-29.74 5.63,-43.85l0.35 -3.99 12.86 0c1.1,-12.13 1.67,-24.38 1.68,-36.76zm-38.97 -105.28c6.59,0 12.55,2.67 16.87,6.99 4.32,4.32 6.99,10.28 6.99,16.87 0,6.59 -2.67,12.55 -6.99,16.87 -4.32,4.32 -10.28,6.99 -16.87,6.99 -6.59,0 -12.55,-2.67 -16.87,-6.99 -4.32,-4.32 -6.99,-10.28 -6.99,-16.87 0,-6.59 2.67,-12.55 6.99,-16.87 4.32,-4.32 10.28,-6.99 16.87,-6.99zm10.7 13.16c-2.74,-2.74 -6.52,-4.43 -10.7,-4.43 -4.18,0 -7.96,1.69 -10.7,4.43 -2.74,2.74 -4.43,6.52 -4.43,10.7 0,4.18 1.69,7.96 4.43,10.7 2.74,2.74 6.52,4.43 10.7,4.43 4.18,0 7.96,-1.69 10.7,-4.43 2.74,-2.74 4.43,-6.52 4.43,-10.7 0,-4.18 -1.69,-7.96 -4.43,-10.7zm114.3 182.77l-30.16 30.16 -30.16 -30.16 6.17 -6.17 19.63 19.63 0 -59.42 8.72 0 0 59.42 19.63 -19.63 6.17 6.17z"/>
  </g>
 </g>
</svg>
