<?xml version="1.0" encoding="UTF-8"?>
<!DOCTYPE svg PUBLIC "-//W3C//DTD SVG 1.1//EN" "http://www.w3.org/Graphics/SVG/1.1/DTD/svg11.dtd">
<!-- Creator: CorelDRAW 2019 (64-Bit) -->
<svg xmlns="http://www.w3.org/2000/svg" xml:space="preserve" width="54.9999mm" height="54.9999mm" version="1.1" style="shape-rendering:geometricPrecision; text-rendering:geometricPrecision; image-rendering:optimizeQuality; fill-rule:evenodd; clip-rule:evenodd"
viewBox="0 0 546.59 546.59"
 xmlns:xlink="http://www.w3.org/1999/xlink">
 <defs>
  <style type="text/css">
   <![CDATA[
    .fil0 {fill:none}
    .fil1 {fill:white;fill-rule:nonzero}
   ]]>
  </style>
 </defs>
 <g id="Warstwa_x0020_1">
  <metadata id="CorelCorpID_0Corel-Layer"/>
  <g id="_1514784466288">
   <g>
    <rect class="fil0" x="-0" y="-0" width="546.59" height="546.59"/>
   </g>
   <path class="fil1" d="M116.3 101.83c9.94,0 18.95,4.03 25.47,10.55 6.52,6.52 10.55,15.53 10.55,25.47 0,9.94 -4.03,18.95 -10.55,25.47 -6.52,6.52 -15.53,10.55 -25.47,10.55 -9.95,0 -18.95,-4.03 -25.47,-10.55 -6.52,-6.52 -10.55,-15.52 -10.55,-25.47 0,-9.95 4.03,-18.95 10.55,-25.47 6.52,-6.52 15.52,-10.55 25.47,-10.55zm171.76 206.95c3.81,-0.93 7.62,-1.62 11.38,-2.07 3.92,-0.46 7.85,-0.7 11.73,-0.7 9.41,0 18.91,1.35 27.81,4.06l4.92 1.49 0.44 5.1c1.72,20.04 0.83,40.76 -1.64,60.45 -2.94,23.36 -8.11,45.11 -13.81,62.44l-1.71 5.21 -26.52 0 0 -15.15 15.51 0c4.82,-15.7 9.07,-34.48 11.57,-54.33 2.12,-16.88 3,-34.63 1.92,-52.09 -5.92,-1.35 -12.17,-2.03 -18.47,-2.03 -3.37,0 -6.7,0.19 -9.95,0.58 -3.35,0.4 -6.57,0.97 -9.61,1.71l-3.55 -14.67zm23.11 -67.87c8.01,0 15.26,3.25 20.51,8.49 5.25,5.25 8.49,12.5 8.49,20.51 0,8.01 -3.25,15.26 -8.49,20.51 -5.25,5.25 -12.5,8.49 -20.51,8.49 -8.01,0 -15.26,-3.25 -20.51,-8.49 -5.25,-5.25 -8.49,-12.5 -8.49,-20.51 0,-8.01 3.25,-15.26 8.49,-20.51 5.25,-5.25 12.5,-8.49 20.51,-8.49zm9.8 19.2c-2.51,-2.51 -5.97,-4.06 -9.8,-4.06 -3.83,0 -7.29,1.55 -9.8,4.06 -2.51,2.51 -4.06,5.97 -4.06,9.8 0,3.83 1.55,7.29 4.06,9.8 2.51,2.51 5.97,4.06 9.8,4.06 3.83,0 7.29,-1.55 9.8,-4.06 2.51,-2.51 4.06,-5.97 4.06,-9.8 0,-3.83 -1.55,-7.29 -4.06,-9.8zm-81.89 184.65l-17.22 0 -1.71 -5.21c-6.35,-19.31 -12.11,-43.52 -15.38,-69.53 -2.76,-21.91 -3.74,-44.98 -1.83,-67.29l0.44 -5.1 4.92 -1.49c4.94,-1.5 10,-2.62 15.08,-3.35 5.24,-0.75 10.51,-1.13 15.71,-1.13 5.21,0 10.47,0.38 15.71,1.13 5.08,0.73 10.14,1.85 15.08,3.35l4.92 1.49 0.44 5.1c1.92,22.32 0.93,45.39 -1.83,67.3 -3.27,26 -9.03,50.22 -15.38,69.53l-1.71 5.21 -17.22 0zm-6.22 -15.15l12.44 0c5.47,-17.69 10.3,-38.93 13.13,-61.42 2.41,-19.11 3.38,-39.22 2.1,-58.96 -2.56,-0.6 -5.19,-1.1 -7.87,-1.49 -4.41,-0.64 -8.97,-0.96 -13.58,-0.96 -4.62,0 -9.17,0.32 -13.58,0.96 -2.69,0.39 -5.31,0.88 -7.87,1.49 -1.28,19.74 -0.3,39.85 2.1,58.96 2.83,22.49 7.66,43.74 13.13,61.42zm6.22 -208.34c8.69,0 16.57,3.53 22.27,9.22 5.7,5.7 9.23,13.57 9.23,22.27 0,8.67 -3.53,16.54 -9.22,22.24l-0.03 0.03c-5.7,5.7 -13.56,9.22 -22.24,9.22 -8.69,0 -16.57,-3.53 -22.27,-9.22l0 -0.03c-5.7,-5.7 -9.22,-13.56 -9.22,-22.24 0,-8.67 3.53,-16.54 9.22,-22.24l0.03 -0.03c5.7,-5.7 13.56,-9.22 22.24,-9.22zm11.56 19.93c-2.96,-2.96 -7.04,-4.79 -11.56,-4.79 -4.53,0 -8.62,1.82 -11.57,4.77 -2.95,2.96 -4.77,7.05 -4.77,11.57 0,4.53 1.82,8.62 4.77,11.57l0.01 -0.01c2.96,2.96 7.04,4.79 11.56,4.79 4.53,0 8.62,-1.82 11.57,-4.77 2.95,-2.96 4.77,-7.05 4.77,-11.57 0,-4.51 -1.83,-8.6 -4.79,-11.56zm180.13 -139.38c9.94,0 18.95,4.03 25.47,10.55 6.52,6.52 10.55,15.53 10.55,25.47 0,9.94 -4.03,18.95 -10.55,25.47 -6.52,6.52 -15.53,10.55 -25.47,10.55 -9.94,0 -18.95,-4.03 -25.47,-10.55 -6.52,-6.52 -10.55,-15.53 -10.55,-25.47 0,-9.94 4.03,-18.95 10.55,-25.47 6.52,-6.52 15.53,-10.55 25.47,-10.55zm14.76 21.26c-3.78,-3.78 -9,-6.11 -14.76,-6.11 -5.77,0 -10.99,2.34 -14.76,6.11 -3.78,3.78 -6.11,9 -6.11,14.76 0,5.77 2.34,10.99 6.11,14.76 3.78,3.78 9,6.11 14.76,6.11 5.77,0 10.99,-2.34 14.76,-6.11 3.78,-3.78 6.11,-9 6.11,-14.76 0,-5.77 -2.34,-10.99 -6.11,-14.76zm-0.1 57.71c3.83,0.31 7.46,0.77 10.89,1.32 3.67,0.6 6.94,1.3 9.85,2.07l5.37 1.43 0.25 5.55c1,22.64 7.03,45.2 13.3,68.7 7.8,29.24 15.99,59.89 15.99,95.09l0 5.66 -42.96 12.39c-0.57,7.92 -1.61,17.44 -2.87,27.1 -1.83,14.02 -4.1,28.31 -6.04,38.46l-1.18 6.18 -34.53 0 -1.18 -6.18c-1.94,-10.15 -4.21,-24.44 -6.04,-38.46 -1.26,-9.66 -2.3,-19.17 -2.87,-27.09l-42.96 -12.39 0 -5.66c0,-35.2 8.18,-65.85 15.99,-95.09 6.27,-23.5 12.3,-46.07 13.3,-68.71l0.25 -5.56 5.37 -1.43c2.91,-0.77 6.18,-1.48 9.85,-2.07 3.42,-0.56 7.06,-1.01 10.89,-1.32l4.49 -0.37 2.46 3.86c0.98,1.53 2.41,3.1 4.25,4.59 1.04,0.84 2.2,1.64 3.46,2.37 1.26,-0.73 2.42,-1.53 3.46,-2.37 1.84,-1.48 3.27,-3.05 4.25,-4.59l2.46 -3.86 4.49 0.37zm8.46 16.23c-1.72,-0.28 -3.6,-0.54 -5.62,-0.76 -1.34,1.53 -2.87,3 -4.58,4.38 -2.81,2.27 -6.14,4.32 -9.91,5.97l-3.02 1.32 -3.02 -1.32c-3.77,-1.65 -7.1,-3.7 -9.91,-5.97 -1.7,-1.38 -3.24,-2.85 -4.58,-4.38 -2.02,0.22 -3.89,0.48 -5.62,0.76 -1.09,0.18 -2.14,0.37 -3.16,0.57 -1.72,22.33 -7.46,43.85 -13.42,66.19 -7.12,26.66 -14.56,54.53 -15.38,85.55l42.25 12.19 0.25 5.41c0.39,8.35 1.57,19.66 3.08,31.23 1.43,10.98 3.16,22.23 4.79,31.45l9.45 0c1.62,-9.22 3.36,-20.47 4.79,-31.45 1.51,-11.57 2.69,-22.88 3.08,-31.23l0.25 -5.41 42.24 -12.19c-0.82,-31.01 -8.26,-58.89 -15.38,-85.55 -5.96,-22.34 -11.71,-43.86 -13.42,-66.19 -1.02,-0.2 -2.07,-0.39 -3.16,-0.57zm-269.94 -2.72c2.1,21.03 3.11,41.82 3.1,62.37 -0.01,20.57 -1.05,40.82 -3.05,60.75l-0.69 6.83 -18.64 0c-1.84,18.78 -4.48,38.78 -7.73,58.16 -3.42,20.34 -7.54,39.97 -12.14,56.74l-1.53 5.59 -53.93 0 -1.53 -5.59c-4.6,-16.77 -8.72,-36.4 -12.14,-56.74 -3.26,-19.37 -5.9,-39.38 -7.73,-58.16l-18.64 0 -0.69 -6.83c-2,-19.94 -3.04,-40.19 -3.05,-60.75 -0.01,-20.56 1,-41.35 3.1,-62.37l0.52 -5.24 5.1 -1.33c19.75,-5.16 40.93,-7.74 62.03,-7.74 21.11,0 42.29,2.58 62.03,7.74l5.1 1.33 0.52 5.24zm-11.99 62.37c0.01,-18.26 -0.82,-36.79 -2.53,-55.59 -16.94,-3.96 -35,-5.94 -53.13,-5.94 -18.13,0 -36.2,1.98 -53.13,5.94 -1.71,18.8 -2.54,37.33 -2.53,55.59 0.01,17.64 0.81,35.12 2.35,52.44l18.78 0 0.61 6.92c1.82,20.57 4.65,42.74 8.2,63.89 2.98,17.76 6.47,34.82 10.3,49.67l30.87 0c3.83,-14.85 7.31,-31.91 10.3,-49.67 3.55,-21.16 6.38,-43.32 8.2,-63.89l0.61 -6.92 18.77 0c1.54,-17.32 2.34,-34.8 2.35,-52.44zm-40.9 -133.6c-3.78,-3.78 -9,-6.11 -14.76,-6.11 -5.77,0 -10.99,2.34 -14.76,6.11 -3.78,3.78 -6.11,9 -6.11,14.76 0,5.77 2.34,10.99 6.11,14.76 3.78,3.78 9,6.11 14.76,6.11 5.77,0 10.99,-2.34 14.76,-6.11 3.78,-3.78 6.11,-9 6.11,-14.76 0,-5.77 -2.34,-10.99 -6.11,-14.76z"/>
  </g>
 </g>
</svg>
