<?xml version="1.0" encoding="UTF-8"?>
<!DOCTYPE svg PUBLIC "-//W3C//DTD SVG 1.1//EN" "http://www.w3.org/Graphics/SVG/1.1/DTD/svg11.dtd">
<!-- Creator: CorelDRAW 2019 (64-Bit) -->
<svg xmlns="http://www.w3.org/2000/svg" xml:space="preserve" width="54.9999mm" height="54.9999mm" version="1.1" style="shape-rendering:geometricPrecision; text-rendering:geometricPrecision; image-rendering:optimizeQuality; fill-rule:evenodd; clip-rule:evenodd"
viewBox="0 0 583.03 583.03"
 xmlns:xlink="http://www.w3.org/1999/xlink">
 <defs>
  <style type="text/css">
   <![CDATA[
    .fil0 {fill:none}
    .fil1 {fill:white;fill-rule:nonzero}
   ]]>
  </style>
 </defs>
 <g id="Warstwa_x0020_1">
  <metadata id="CorelCorpID_0Corel-Layer"/>
  <g id="_1514784408736">
   <g>
    <rect class="fil0" x="-0" y="-0" width="583.03" height="583.03"/>
   </g>
   <path class="fil1" d="M291.51 92.01c55.09,0 104.97,22.33 141.07,58.43 36.1,36.1 58.43,85.98 58.43,141.07 0,55.09 -22.33,104.97 -58.43,141.07 -36.1,36.1 -85.98,58.43 -141.07,58.43 -55.09,0 -104.97,-22.33 -141.07,-58.43 -36.1,-36.1 -58.43,-85.98 -58.43,-141.07 0,-55.09 22.33,-104.97 58.43,-141.07 36.1,-36.1 85.98,-58.43 141.07,-58.43zm94.92 211.57l-64.08 37 0.01 0.02 -99.23 57.29 0 -212.77 99.23 57.29 -0.01 0.02 84.99 49.07 -20.91 12.07zm-79.2 27.15l67.94 -39.22 -135.88 -78.45 0 156.9 67.95 -39.23zm113.93 -168.87c-33.18,-33.18 -79.02,-53.7 -129.65,-53.7 -50.63,0 -96.47,20.52 -129.65,53.7 -33.18,33.18 -53.7,79.02 -53.7,129.65 0,50.63 20.52,96.47 53.7,129.65 33.18,33.18 79.02,53.7 129.65,53.7 50.63,0 96.47,-20.52 129.65,-53.7 33.18,-33.18 53.7,-79.02 53.7,-129.65 0,-50.63 -20.52,-96.47 -53.7,-129.65z"/>
  </g>
 </g>
</svg>
