<?xml version="1.0" encoding="UTF-8"?>
<!DOCTYPE svg PUBLIC "-//W3C//DTD SVG 1.1//EN" "http://www.w3.org/Graphics/SVG/1.1/DTD/svg11.dtd">
<!-- Creator: CorelDRAW 2019 (64-Bit) -->
<svg xmlns="http://www.w3.org/2000/svg" xml:space="preserve" width="54.9999mm" height="54.9999mm" version="1.1" style="shape-rendering:geometricPrecision; text-rendering:geometricPrecision; image-rendering:optimizeQuality; fill-rule:evenodd; clip-rule:evenodd"
viewBox="0 0 113092.16 113092.16"
 xmlns:xlink="http://www.w3.org/1999/xlink">
 <defs>
  <style type="text/css">
   <![CDATA[
    .fil0 {fill:none}
    .fil1 {fill:white;fill-rule:nonzero}
   ]]>
  </style>
 </defs>
 <g id="Warstwa_x0020_1">
  <metadata id="CorelCorpID_0Corel-Layer"/>
  <g id="_1516089700016">
   <rect class="fil0" x="-0.11" y="-0.12" width="113092.18" height="113092.18"/>
   <path class="fil1" d="M20842.31 31471.96c3692.57,-5260.85 8451.91,-9573.78 13885.89,-12710.96l6.17 0c6528.92,-3769.47 14026.13,-5850.37 21811.61,-5850.37 7785.48,0 15282.68,2080.9 21811.61,5850.37 5441.18,3141.29 10202.99,7452.99 13892.88,12707.06l1626.68 -7530.92 3060.07 660.87 -2759.04 12774.3 -12774.3 -2758.84 660.87 -3060.07 7575.13 1635.93c-3420.32,-4849.19 -7819,-8826.14 -12836.81,-11723.15 -6050.65,-3493.32 -13013.23,-5421.85 -20257.1,-5421.85 -7242.02,0 -14202.96,1927.51 -20252.37,5419.18l1.44 2.67c-5026.65,2902.16 -9428.82,6879.72 -12847.09,11724.39l7579.24 -1636.96 660.87 3060.07 -12774.09 2758.84 -2759.25 -12774.3 3060.07 -660.87 1627.5 7534.62zm48918.82 15899.55l2538.62 9474.06 -3023.47 807.69 -2778.58 -10369.34c-1279.59,8.22 -2547.87,66.21 -3805.46,169.84 -853.33,70.32 -1701.32,161.82 -2544.17,272.86l3093.8 11546.11 -3023.47 807.69 -3175.84 -11852.29c-2051.91,391.3 -4073.79,894.25 -6069.15,1490.97l3210.38 11980.8 -3023.47 807.69 -3527.25 -13163.54 0.62 -0.21 -5710.55 -21311.12c-573.69,372.18 -1104.19,825.99 -1594.19,1349.09l0 6.17c-930.03,992.75 -1723.94,2242.52 -2396.12,3669.13l11945.84 44580.8 -3557.89 -2562.06c-2632.38,-1895.43 -5316.99,-3674.27 -8122.09,-5179.63 -2466.03,-1323.39 -5013.08,-2427.58 -7681.44,-3200.51 -511.38,684.72 -1000.15,1444.91 -1422.09,2258.97 -335.58,647.71 -629.82,1328.73 -859.91,2031.76 10127.73,6514.94 15316.2,11275.31 20517.42,16046.98 1315.78,1206.8 2633,2415.24 3940.75,3574.54 5472.64,-541.82 10937.27,-1525.72 16392.64,-2977.82 5254.89,-1398.85 10497.23,-3235.26 15726.01,-5532.48l-9110.93 -34001.94c-2008.31,-369.71 -3987.64,-606.59 -5940.02,-724.2zm-19596.03 -671.56c3987.84,-1188.5 8070.48,-2021.27 12270.11,-2367.54 4768.18,-392.94 9701.68,-160.8 14837.31,886.85l949.77 193.9 10301.48 38445.44 -1212.35 549.22c-5779.43,2619.42 -11590.53,4691.48 -17429.59,6245.78 -5824.05,1550.39 -11682.85,2582.82 -17573.32,3127.31l-666.63 61.69 -502.34 -441.06c-1658.55,-1456.22 -3081.87,-2762.13 -4504.37,-4066.8 -5253.65,-4819.79 -10493.94,-9627.66 -21050.81,-16326.63l-927.56 -588.49 242.22 -1076.23c305.56,-1357.31 807.89,-2643.48 1417.77,-3820.67 707.75,-1365.74 1558.62,-2588.79 2413.6,-3607.85l631.26 -752.37 953.88 244.28c3310.73,847.99 6406.37,2148.14 9364.05,3735.34 1681.79,902.48 3324.71,1901.6 4941.31,2965.28l-9998.6 -37313.9 221.66 -503.98c851.69,-1936.35 1910.44,-3658.23 3208.33,-5043.71l3.08 2.88c1241.75,-1325.03 2692.01,-2333.61 4375.44,-2923.13l1589.67 -556.62 6144.62 22931.02z"/>
  </g>
 </g>
</svg>
