<?xml version="1.0" encoding="UTF-8"?>
<!DOCTYPE svg PUBLIC "-//W3C//DTD SVG 1.1//EN" "http://www.w3.org/Graphics/SVG/1.1/DTD/svg11.dtd">
<!-- Creator: CorelDRAW 2019 (64-Bit) -->
<svg xmlns="http://www.w3.org/2000/svg" xml:space="preserve" width="54.9999mm" height="54.9999mm" version="1.1" style="shape-rendering:geometricPrecision; text-rendering:geometricPrecision; image-rendering:optimizeQuality; fill-rule:evenodd; clip-rule:evenodd"
viewBox="0 0 720.1 720.1"
 xmlns:xlink="http://www.w3.org/1999/xlink">
 <defs>
  <style type="text/css">
   <![CDATA[
    .fil0 {fill:none}
    .fil1 {fill:white;fill-rule:nonzero}
   ]]>
  </style>
 </defs>
 <g id="Warstwa_x0020_1">
  <metadata id="CorelCorpID_0Corel-Layer"/>
  <g id="_1514856008992">
   <g>
    <rect class="fil0" x="-0" y="-0" width="720.1" height="720.1"/>
   </g>
   <path class="fil1" d="M216.6 105.5c47.6,-5.98 95.42,-9.17 143.45,-9.28 47.89,-0.1 95.75,2.9 143.57,9.32l8.65 1.16 0 505.97 -8.65 1.19c-49.61,6.81 -98.34,10.08 -146.23,10.02 -47.97,-0.07 -94.95,-3.47 -140.98,-10.02l-8.57 -1.22 0 -506.04 8.77 -1.1zm11.19 411.85c44.27,5.24 88.37,8.03 132.26,8.13 44.06,0.09 88.15,-2.5 132.26,-8.03l0 -335.57c-44.12,-5.53 -88.21,-8.13 -132.26,-8.04 -43.9,0.09 -87.99,2.88 -132.26,8.13l0 335.39zm264.53 20.14c-44.06,5.41 -88.15,7.96 -132.26,7.86 -44.27,-0.09 -88.35,-2.81 -132.26,-7.92l0 57.89c42.54,5.67 85.73,8.62 129.6,8.68 44.13,0.06 89.09,-2.79 134.93,-8.71l0 -57.8zm-264.53 -375.61c43.91,-5.11 87.99,-7.83 132.26,-7.92 44.12,-0.09 88.21,2.45 132.26,7.86l0 -37.69c-44.12,-5.53 -88.21,-8.13 -132.26,-8.04 -43.9,0.09 -87.99,2.88 -132.26,8.13l0 37.65zm169.25 420.82c-12.32,0.63 -24.74,0.95 -37.24,0.96 -12.47,0.01 -24.7,-0.28 -36.7,-0.88l0.93 -19.87c11.99,0.59 23.92,0.89 35.77,0.88 11.81,-0.01 23.89,-0.33 36.22,-0.96l1.01 19.87z"/>
  </g>
 </g>
</svg>
