<?xml version="1.0" encoding="UTF-8"?>
<!DOCTYPE svg PUBLIC "-//W3C//DTD SVG 1.1//EN" "http://www.w3.org/Graphics/SVG/1.1/DTD/svg11.dtd">
<!-- Creator: CorelDRAW 2019 (64-Bit) -->
<svg xmlns="http://www.w3.org/2000/svg" xml:space="preserve" width="54.9999mm" height="54.9999mm" version="1.1" style="shape-rendering:geometricPrecision; text-rendering:geometricPrecision; image-rendering:optimizeQuality; fill-rule:evenodd; clip-rule:evenodd"
viewBox="0 0 2087.43 2087.43"
 xmlns:xlink="http://www.w3.org/1999/xlink">
 <defs>
  <style type="text/css">
   <![CDATA[
    .fil0 {fill:none}
    .fil1 {fill:white;fill-rule:nonzero}
   ]]>
  </style>
 </defs>
 <g id="Warstwa_x0020_1">
  <metadata id="CorelCorpID_0Corel-Layer"/>
  <g id="_1514782049856">
   <g>
    <rect class="fil0" x="-0" y="-0" width="2087.43" height="2087.43"/>
   </g>
   <path class="fil1" d="M351.98 1157.64l0 -252.19 147.41 -25.09c5.46,-18.21 11.88,-36.26 19.25,-54.09 7.34,-17.74 15.56,-35.09 24.65,-51.98l-86.46 -121.93 195.52 -195.52 121.93 86.46c16.9,-9.09 34.25,-17.31 51.99,-24.65 17.82,-7.37 35.87,-13.79 54.08,-19.25l25.09 -147.41 276.54 0 25.09 147.41c18.21,5.46 36.28,11.88 54.11,19.26 17.72,7.34 35.07,15.55 51.95,24.64l121.93 -86.46 195.52 195.52 -86.47 121.93c9.09,16.88 17.31,34.23 24.64,51.96 7.38,17.83 13.8,35.9 19.26,54.11l147.41 25.09 0 276.54 -147.41 25.09c-5.46,18.2 -11.88,36.26 -19.25,54.08 -7.34,17.74 -15.56,35.1 -24.66,51.99l86.47 121.94 -195.52 195.52 -121.93 -86.47c-16.89,9.09 -34.25,17.31 -51.98,24.65 -17.83,7.38 -35.88,13.8 -54.09,19.25l-25.09 147.41 -276.54 0 -25.09 -147.41c-18.21,-5.45 -36.27,-11.88 -54.09,-19.25 -17.73,-7.34 -35.08,-15.56 -51.97,-24.65l-121.93 86.47 -195.52 -195.52 86.47 -121.94c-9.09,-16.89 -17.32,-34.25 -24.66,-51.99 -7.37,-17.82 -13.79,-35.88 -19.25,-54.08l-147.41 -25.09 0 -24.35zm699.69 -250.4c-19.45,-1.12 -38.73,1.95 -56.61,8.76 -17.89,6.82 -34.29,17.3 -47.98,30.99l0 0.11c-26.67,26.67 -40.02,61.65 -40.02,96.63 0,34.97 13.34,69.95 40.02,96.63 26.67,26.67 61.65,40.02 96.63,40.02 34.97,0 69.95,-13.34 96.63,-40.02l2.78 -2.76 2.66 -2.95 43.15 38.41 -7.7 8.2c-37.98,37.98 -87.75,56.97 -137.52,56.97 -49.76,0 -99.54,-18.99 -137.52,-56.97 -37.98,-37.98 -56.97,-87.75 -56.97,-137.52 0,-49.76 18.99,-99.54 56.97,-137.52l0.06 0.06c19.69,-19.68 43.01,-34.65 68.26,-44.26 25.28,-9.63 52.64,-13.97 80.33,-12.37l-3.17 57.61zm-205.85 334.36c54.66,54.65 126.27,81.97 197.89,81.97 71.61,0 143.24,-27.32 197.87,-81.95l0.03 -0.03c54.63,-54.63 81.95,-126.25 81.95,-197.87 0,-71.61 -27.32,-143.24 -81.95,-197.87l-0.03 -0.03c-54.63,-54.63 -126.25,-81.95 -197.87,-81.95 -71.61,0 -143.24,27.32 -197.87,81.95l-0.03 0.03c-54.63,54.63 -81.95,126.25 -81.95,197.87 0,71.61 27.32,143.24 81.96,197.88zm-40.87 40.91l-0.03 -0.03c-65.92,-65.93 -98.9,-152.36 -98.9,-238.76 0,-86.41 32.97,-172.83 98.9,-238.76l0.03 -0.03c65.93,-65.92 152.36,-98.9 238.76,-98.9 86.41,0 172.83,32.97 238.76,98.9l0.03 0.03c65.92,65.93 98.9,152.36 98.9,238.76 0,86.41 -32.97,172.83 -98.9,238.76l-0.03 0.03c-65.93,65.92 -152.36,98.9 -238.76,98.9 -86.41,0 -172.83,-32.97 -238.76,-98.9zm-395.13 -328.36l0 179.14 135.56 23.08 4.74 17.98c5.83,22.11 13.11,43.81 21.84,64.9 8.59,20.76 18.72,41.22 30.38,61.25l9.31 15.99 -79.51 112.12 126.7 126.7 112.13 -79.51 15.98 9.31c20.01,11.66 40.48,21.79 61.23,30.37 21.09,8.73 42.79,16.01 64.91,21.84l17.99 4.74 23.07 135.55 179.14 0 23.08 -135.55 17.98 -4.74c22.12,-5.83 43.81,-13.12 64.9,-21.85 20.75,-8.59 41.22,-18.71 61.24,-30.37l15.99 -9.31 112.12 79.51 126.7 -126.7 -79.5 -112.13 9.3 -15.99c11.66,-20.02 21.79,-40.5 30.38,-61.25 8.73,-21.08 16.01,-42.78 21.84,-64.89l4.74 -17.98 135.55 -23.08 0 -179.14 -135.55 -23.08 -4.74 -17.99c-5.83,-22.12 -13.12,-43.83 -21.85,-64.92 -8.59,-20.75 -18.71,-41.21 -30.37,-61.21l-9.31 -15.98 79.51 -112.13 -126.7 -126.7 -112.12 79.51 -15.99 -9.31c-20.01,-11.65 -40.47,-21.78 -61.21,-30.36 -21.1,-8.73 -42.81,-16.02 -64.93,-21.85l-17.98 -4.74 -23.08 -135.55 -179.14 0 -23.07 135.56 -17.99 4.74c-22.11,5.83 -43.81,13.11 -64.89,21.84 -20.76,8.59 -41.22,18.72 -61.25,30.38l-15.98 9.31 -112.13 -79.51 -126.7 126.7 79.51 112.13 -9.31 15.98c-11.66,20.02 -21.78,40.48 -30.37,61.24 -8.73,21.09 -16.02,42.79 -21.85,64.9l-4.74 17.99 -135.55 23.08z"/>
  </g>
 </g>
</svg>
