<?xml version="1.0" encoding="UTF-8"?>
<!DOCTYPE svg PUBLIC "-//W3C//DTD SVG 1.1//EN" "http://www.w3.org/Graphics/SVG/1.1/DTD/svg11.dtd">
<!-- Creator: CorelDRAW 2019 (64-Bit) -->
<svg xmlns="http://www.w3.org/2000/svg" xml:space="preserve" width="54.9999mm" height="54.9999mm" version="1.1" style="shape-rendering:geometricPrecision; text-rendering:geometricPrecision; image-rendering:optimizeQuality; fill-rule:evenodd; clip-rule:evenodd"
viewBox="0 0 2167.44 2167.44"
 xmlns:xlink="http://www.w3.org/1999/xlink">
 <defs>
  <style type="text/css">
   <![CDATA[
    .fil0 {fill:none}
    .fil1 {fill:white;fill-rule:nonzero}
   ]]>
  </style>
 </defs>
 <g id="Warstwa_x0020_1">
  <metadata id="CorelCorpID_0Corel-Layer"/>
  <g id="_1514775025248">
   <g>
    <rect class="fil0" x="-0" y="-0" width="2167.44" height="2167.44"/>
   </g>
   <path class="fil1" d="M925.16 1528.32c-4.97,-26.59 -12.45,-53.33 -23.55,-79.53 -10.94,-25.83 -25.6,-51.42 -45.09,-76.18 -7.6,-9.67 -14.1,-16.82 -20.85,-23.3 -7.38,-7.09 -15.15,-13.62 -24.74,-21.52 -48.64,-40.09 -88.27,-90.65 -115.4,-148.17 -26.21,-55.58 -40.87,-117.59 -40.87,-182.86 0,-118.47 48.03,-225.74 125.68,-303.39 77.65,-77.65 184.91,-125.68 303.39,-125.68 118.47,0 225.74,48.03 303.39,125.68 77.65,77.65 125.68,184.91 125.68,303.39 0,65.27 -14.66,127.28 -40.87,182.86 -27.13,57.53 -66.76,108.09 -115.4,148.17 -9.58,7.9 -17.35,14.42 -24.74,21.52 -6.75,6.48 -13.25,13.63 -20.85,23.3 -19.48,24.74 -34.13,50.31 -45.07,76.12 -11.07,26.11 -18.55,52.88 -23.55,79.58l-2.25 12.02 0 296.67 -17.01 8.24c-16.77,8.13 -33.59,14.8 -50.45,20l0 32.66 -21.11 6.64c-22.32,7.02 -44.92,10.58 -67.76,10.6 -22.66,0.02 -45.3,-3.53 -67.88,-10.72l-21 -6.68 0 -32.42c-16.89,-5.23 -33.74,-11.95 -50.57,-20.2l-16.89 -8.28 0 -296.62 -2.22 -11.91zm-13.17 -774.99c25.17,-17.76 52.74,-31.4 81.66,-40.57l0.03 0.1c29.21,-9.27 59.57,-14.06 90.04,-14.06 82.27,0 156.77,33.35 210.69,87.28 53.92,53.92 87.28,128.42 87.28,210.69 0,23.1 -2.81,46.4 -8.33,69.39 -5.51,22.99 -13.58,45.06 -24.09,65.72l-53.48 -27.22c8.64,-16.98 15.14,-34.55 19.4,-52.34 4.26,-17.78 6.44,-36.42 6.44,-55.55 0,-65.7 -26.63,-125.18 -69.68,-168.23 -43.05,-43.05 -102.53,-69.68 -168.23,-69.68 -24.84,0 -49.12,3.76 -72,11.03l0 0.11c-23.19,7.36 -45.22,18.24 -65.24,32.37l-34.48 -49.03zm-249.31 521.04l-182.88 105.58 -29.79 -51.85 182.88 -105.58 29.79 51.85zm1024.96 105.58l-182.88 -105.58 29.79 -51.85 182.88 105.58 -29.79 51.85zm110.63 -353.17l-211.16 0 0 -60.06 211.16 0 0 60.06zm-80.83 -361.38l-182.88 105.58 -29.79 -51.85 182.88 -105.58 29.79 51.85zm-250.52 -272.57l-105.58 182.88 -51.85 -29.79 105.58 -182.88 51.85 29.79zm-353.17 -110.63l0 211.16 -60.06 0 0 -211.16 60.06 0zm-307.64 293.5l-105.58 -182.88 51.85 -29.79 105.58 182.88 -51.85 29.79zm-173.22 195.27l-182.88 -105.58 29.79 -51.85 182.88 105.58 -29.79 51.85zm-52.55 255.8l-211.16 0 0 -60.06 211.16 0 0 60.06zm599.66 679.91c-30.54,14.29 -61.19,23.71 -91.94,28.21 -33.52,4.9 -67.06,3.94 -100.62,-2.94l0 67.1c32.24,13.45 64.34,20.11 96.28,20.07 31.85,-0.04 63.95,-6.81 96.28,-20.21l0 -92.23zm-192.56 -36.13c30.63,7.83 61.28,9.46 91.94,4.98 33.35,-4.88 66.9,-17.01 100.62,-36.29l0 -74.05c-64.18,17.36 -128.37,17.52 -192.56,0.17l0 105.2zm-30.7 -245.02c10.55,24.89 18.25,50.02 23.83,75.01 68.76,23.64 137.53,23.4 206.31,-0.16 5.57,-24.89 13.28,-49.99 23.85,-74.91 13.08,-30.88 30.35,-61.14 53.04,-89.96 9.23,-11.73 17.52,-20.79 26.48,-29.4 8.33,-8 17.24,-15.48 28.25,-24.56 41.75,-34.41 75.82,-77.93 99.22,-127.53 22.45,-47.6 35,-100.92 35,-157.29 0,-101.9 -41.31,-194.16 -108.08,-260.93 -66.77,-66.77 -159.03,-108.08 -260.93,-108.08 -101.9,0 -194.16,41.31 -260.93,108.08 -66.77,66.77 -108.08,159.03 -108.08,260.93 0,56.37 12.55,109.69 35,157.29 23.4,49.61 57.46,93.12 99.22,127.53 11.01,9.08 19.92,16.56 28.25,24.56 8.97,8.61 17.26,17.67 26.48,29.4 22.71,28.85 39.98,59.13 53.07,90.02z"/>
  </g>
 </g>
</svg>
