<?xml version="1.0" encoding="UTF-8"?>
<!DOCTYPE svg PUBLIC "-//W3C//DTD SVG 1.1//EN" "http://www.w3.org/Graphics/SVG/1.1/DTD/svg11.dtd">
<!-- Creator: CorelDRAW 2019 (64-Bit) -->
<svg xmlns="http://www.w3.org/2000/svg" xml:space="preserve" width="54.9999mm" height="54.9999mm" version="1.1" style="shape-rendering:geometricPrecision; text-rendering:geometricPrecision; image-rendering:optimizeQuality; fill-rule:evenodd; clip-rule:evenodd"
viewBox="0 0 441.7 441.7"
 xmlns:xlink="http://www.w3.org/1999/xlink">
 <defs>
  <style type="text/css">
   <![CDATA[
    .fil0 {fill:none}
    .fil1 {fill:white;fill-rule:nonzero}
   ]]>
  </style>
 </defs>
 <g id="Warstwa_x0020_1">
  <metadata id="CorelCorpID_0Corel-Layer"/>
  <g id="_1514725297312">
   <g>
    <rect class="fil0" x="-0" y="-0" width="441.7" height="441.7"/>
   </g>
   <path class="fil1" d="M187.71 63.46c8.68,0 16.53,3.52 22.22,9.2 5.69,5.69 9.2,13.54 9.2,22.22 0,8.68 -3.52,16.53 -9.2,22.22 -5.69,5.69 -13.54,9.2 -22.22,9.2 -8.68,0 -16.53,-3.52 -22.22,-9.2 -5.69,-5.69 -9.2,-13.54 -9.2,-22.22 0,-8.68 3.52,-16.53 9.2,-22.22 5.69,-5.69 13.54,-9.2 22.22,-9.2zm99.6 255.14c-9.34,12.72 -21.44,22.85 -35.15,29.79 -13.72,6.95 -29.03,10.71 -44.79,10.71 -27.39,0 -52.19,-11.1 -70.14,-29.05 -17.95,-17.95 -29.05,-42.75 -29.05,-70.14 0,-17.43 4.59,-34.24 12.94,-48.95 8.33,-14.68 20.41,-27.24 35.39,-36.19l6.26 10.47c-13.14,7.85 -23.73,18.86 -31.04,31.74 -7.29,12.86 -11.31,27.6 -11.31,42.92 0,24.01 9.73,45.75 25.47,61.48 15.73,15.73 37.47,25.47 61.48,25.47 13.86,0 27.29,-3.29 39.29,-9.37 12.01,-6.08 22.61,-14.95 30.8,-26.11l9.85 7.22zm-91.81 -182.06l0 88.22 80.1 0 1.78 2.99c8.51,14.26 16.17,29.81 22.82,45.37 6.73,15.75 12.44,31.51 16.97,45.94l40.27 -12.59 3.63 11.66 -52.04 16.26 -1.77 -5.93c-4.67,-15.64 -10.85,-33.14 -18.3,-50.57 -6,-14.02 -12.81,-28 -20.3,-40.9l-85.41 0 0 -100.46 12.24 0zm5.77 -55.23c-3.47,-3.47 -8.27,-5.62 -13.57,-5.62 -5.3,0 -10.1,2.15 -13.57,5.62 -3.47,3.47 -5.62,8.27 -5.62,13.57 0,5.3 2.15,10.1 5.62,13.57 3.47,3.47 8.27,5.62 13.57,5.62 5.3,0 10.1,-2.15 13.57,-5.62 3.47,-3.47 5.62,-8.27 5.62,-13.57 0,-5.3 -2.15,-10.1 -5.62,-13.57z"/>
  </g>
 </g>
</svg>
