<?xml version="1.0" encoding="UTF-8"?>
<!DOCTYPE svg PUBLIC "-//W3C//DTD SVG 1.1//EN" "http://www.w3.org/Graphics/SVG/1.1/DTD/svg11.dtd">
<!-- Creator: CorelDRAW 2019 (64-Bit) -->
<svg xmlns="http://www.w3.org/2000/svg" xml:space="preserve" width="54.9999mm" height="54.9999mm" version="1.1" style="shape-rendering:geometricPrecision; text-rendering:geometricPrecision; image-rendering:optimizeQuality; fill-rule:evenodd; clip-rule:evenodd"
viewBox="0 0 325.44 325.44"
 xmlns:xlink="http://www.w3.org/1999/xlink">
 <defs>
  <style type="text/css">
   <![CDATA[
    .fil0 {fill:none}
    .fil1 {fill:white;fill-rule:nonzero}
   ]]>
  </style>
 </defs>
 <g id="Warstwa_x0020_1">
  <metadata id="CorelCorpID_0Corel-Layer"/>
  <g id="_1514018403520">
   <rect class="fil0" x="-0" y="-0" width="325.44" height="325.44"/>
   <path class="fil1" d="M85.88 96.31c14.85,-7.62 29.97,-14.3 45.4,-19.96 15.52,-5.69 31.4,-10.36 47.68,-13.93l3.83 -0.84 19.93 54.75 38.93 -38.93c-20.73,-19.19 -48.46,-30.92 -78.93,-30.92 -32.09,0 -61.15,13.01 -82.18,34.04 -21.03,21.03 -34.04,50.09 -34.04,82.18 0,30.47 11.73,58.21 30.92,78.93l41.92 -41.92 -36.98 -101.61 3.54 -1.81zm120.24 29.38c12.29,33.76 24.57,67.53 36.87,101.29l-3.47 1.83c-15.29,8.07 -30.71,14.88 -46.25,20.52 -15.54,5.63 -31.18,10.07 -46.92,13.39l-3.81 0.8 -19.81 -54.43 -38.95 38.95c20.73,19.19 48.46,30.92 78.93,30.92 32.09,0 61.15,-13.01 82.18,-34.04 21.03,-21.03 34.04,-50.09 34.04,-82.18 0,-30.47 -11.73,-58.21 -30.92,-78.93l-41.9 41.9zm-79.78 67.03l69.36 -69.36 -11.86 -32.6c-14.55,3.36 -28.76,7.62 -42.67,12.72 -13.96,5.12 -27.58,11.04 -40.87,17.7l26.04 71.54zm72.77 -60.02l-69.36 69.36 9.39 25.8c14.51,-3.45 28.75,-7.66 42.69,-12.7 13.95,-5.05 27.59,-10.91 40.87,-17.68l-23.58 -64.78zm-36.39 -95.23c34.58,0 65.9,14.02 88.56,36.68 22.66,22.66 36.68,53.98 36.68,88.56 0,34.58 -14.02,65.9 -36.68,88.56 -22.66,22.66 -53.98,36.68 -88.56,36.68 -34.58,0 -65.9,-14.02 -88.56,-36.68 -22.66,-22.66 -36.68,-53.98 -36.68,-88.56 0,-34.58 14.02,-65.9 36.68,-88.56 22.66,-22.66 53.98,-36.68 88.56,-36.68zm63.07 168.51c-13.34,6.74 -26.98,12.6 -40.9,17.63 -13.93,5.04 -28.16,9.26 -42.66,12.75l6.08 16.72c14.05,-3.13 28.01,-7.18 41.89,-12.21 13.96,-5.06 27.84,-11.11 41.65,-18.21l-6.07 -16.67zm-128.57 -93.3c13.39,-6.67 27,-12.58 40.87,-17.66 13.92,-5.1 28.13,-9.39 42.66,-12.79l-3.69 -10.14c-14.55,3.36 -28.76,7.62 -42.67,12.72 -13.96,5.12 -27.58,11.04 -40.87,17.7l3.7 10.18zm104.08 118.62c-4.04,1.71 -8.03,3.28 -11.98,4.72 -3.99,1.46 -8,2.81 -12.03,4.05l-2.64 -8.59c3.87,-1.19 7.74,-2.5 11.61,-3.91 3.91,-1.43 7.77,-2.94 11.55,-4.54l3.49 8.28z"/>
  </g>
 </g>
</svg>
