<?xml version="1.0" encoding="UTF-8"?>
<!DOCTYPE svg PUBLIC "-//W3C//DTD SVG 1.1//EN" "http://www.w3.org/Graphics/SVG/1.1/DTD/svg11.dtd">
<!-- Creator: CorelDRAW 2019 (64-Bit) -->
<svg xmlns="http://www.w3.org/2000/svg" xml:space="preserve" width="54.9999mm" height="54.9999mm" version="1.1" style="shape-rendering:geometricPrecision; text-rendering:geometricPrecision; image-rendering:optimizeQuality; fill-rule:evenodd; clip-rule:evenodd"
viewBox="0 0 1042.17 1042.17"
 xmlns:xlink="http://www.w3.org/1999/xlink">
 <defs>
  <style type="text/css">
   <![CDATA[
    .fil0 {fill:none}
    .fil1 {fill:white;fill-rule:nonzero}
   ]]>
  </style>
 </defs>
 <g id="Warstwa_x0020_1">
  <metadata id="CorelCorpID_0Corel-Layer"/>
  <g id="_1514588564704">
   <g>
    <rect class="fil0" x="-0" y="-0" width="1042.17" height="1042.17"/>
   </g>
   <path class="fil1" d="M277.94 375.55l453.42 0 0 14.44c0,29.07 -2.02,58.52 -6.11,88.02l89.47 1.16 0 14.2c0,26.34 -3.5,52.09 -9.69,77.63 -6.12,25.24 -14.87,50.06 -25.45,74.94l-26.51 -11.28c10.05,-23.6 18.29,-46.97 23.99,-70.43 4.52,-18.61 7.45,-37.43 8.43,-56.67l-64.86 -0.84c-2.97,16.12 -6.57,32.22 -10.79,48.24 -13.88,52.61 -34.61,104.36 -62.48,153.26l-4.18 7.33 -291.47 0 -4.18 -7.33c-27.87,-48.9 -48.6,-100.65 -62.48,-153.26 -14.47,-54.85 -21.53,-110.58 -21.53,-164.97l0 -14.44 14.44 0zm255.66 -34.41c-6.08,-8.15 -10.9,-19.39 -14.13,-32.37 -3.05,-12.27 -4.74,-26.22 -4.74,-40.56 0,-14.34 1.69,-28.29 4.74,-40.56 3.23,-12.97 8.05,-24.22 14.13,-32.37l23.12 17.26c-3.81,5.11 -6.99,12.77 -9.28,21.99 -2.47,9.93 -3.83,21.5 -3.83,33.68 0,12.18 1.36,23.76 3.83,33.68 2.29,9.23 5.47,16.88 9.28,21.99l-23.12 17.26zm-95.19 0c-7.52,-10.08 -13.51,-24.08 -17.54,-40.29 -3.86,-15.51 -5.99,-33.18 -5.99,-51.39 0,-18.21 2.13,-35.88 5.99,-51.39 4.03,-16.21 10.02,-30.2 17.54,-40.28l23.12 17.26c-5.25,7.05 -9.6,17.45 -12.69,29.91 -3.27,13.16 -5.08,28.46 -5.08,44.5 0,16.05 1.81,31.34 5.08,44.5 3.1,12.46 7.44,22.87 12.69,29.91l-23.12 17.26zm-196.53 414.87l511.11 0 0 28.88 -511.11 0 0 -28.88zm460.43 -351.58l-409.76 0c1.13,47.49 7.83,95.75 20.35,143.2 12.57,47.66 31.01,94.54 55.55,139.04l257.97 0c24.54,-44.5 42.98,-91.39 55.55,-139.04 12.52,-47.45 19.22,-95.71 20.35,-143.2z"/>
  </g>
 </g>
</svg>
