<?xml version="1.0" encoding="UTF-8"?>
<!DOCTYPE svg PUBLIC "-//W3C//DTD SVG 1.1//EN" "http://www.w3.org/Graphics/SVG/1.1/DTD/svg11.dtd">
<!-- Creator: CorelDRAW 2019 (64-Bit) -->
<svg xmlns="http://www.w3.org/2000/svg" xml:space="preserve" width="54.9999mm" height="54.9999mm" version="1.1" style="shape-rendering:geometricPrecision; text-rendering:geometricPrecision; image-rendering:optimizeQuality; fill-rule:evenodd; clip-rule:evenodd"
viewBox="0 0 113092.16 113092.16"
 xmlns:xlink="http://www.w3.org/1999/xlink">
 <defs>
  <style type="text/css">
   <![CDATA[
    .fil0 {fill:none}
    .fil1 {fill:white;fill-rule:nonzero}
   ]]>
  </style>
 </defs>
 <g id="Warstwa_x0020_1">
  <metadata id="CorelCorpID_0Corel-Layer"/>
  <g id="_1514732264784">
   <rect class="fil0" x="-0.11" y="-0.12" width="113092.18" height="113092.18"/>
   <path class="fil1" d="M44551.81 44992.05c4291.14,-2660.14 8817.09,-4932.06 13651.69,-6664.22 5376.41,-1926.48 11119.86,-3182.01 17325.96,-3558.3l958.41 -57.99 23570.5 40825.52 -1021.53 838.53c-5853.87,4805.19 -11909.45,8987.14 -18154.41,12578.95 -6258.94,3599.83 -12690.2,6600.89 -19282.45,9036.9l-625.71 231.33 -604.32 -298.56c-2366.51,-1168.55 -4408.55,-2233.27 -6449.14,-3296.95 -7582.12,-3952.89 -15145.12,-7895.7 -29412.44,-12366.14l-1051.14 -329.2 -44.41 -1102.75c-66,-1639.22 112.27,-3251.92 445.58,-4770.03 389.24,-1771.64 986.58,-3427.11 1651.15,-4853.1l414.12 -888.7 993.36 -11.1c4054.05,-44.83 8003.85,495.14 11886.01,1407.07 2476.72,581.91 4930,1315.57 7368.48,2145.46l-7645.25 -13241.88 0 -6.17 -3930.68 -6808.37 -2.67 1.64 -11867.09 -20553.2 82.25 -534.62c379.17,-2465.41 1058.96,-4748.23 2112.77,-6719.74 1001.38,-1873.63 2332.79,-3451.58 4052.82,-4624.86l1392.27 -949.56 14185.89 24570.04zm22468.37 -5930.56l6074.7 10521.7 -2705.17 1566.84 -6539.41 -11326.3c-1564.17,422.35 -3094.41,904.33 -4594.02,1441.62 -1078.9,386.57 -2142.59,801.93 -3191.88,1244.02l7320.78 12679.92 -2705.17 1566.84 -7480.96 -12957.09c-2436.63,1166.7 -4795.32,2475.28 -7088.01,3901.07l7564.03 13101.24 -2705.17 1554.51 -7488.36 -12970.46 -2.26 1.44 -14051.62 -24337.89c-687.6,697.47 -1268.28,1510.09 -1752.73,2416.48 -798.23,1493.23 -1344.36,3254.59 -1683.64,5189.09l11306.77 19582.66 0 6.17 3930.68 6808.37 2.67 -1.64 11977.3 20745.66 -4096.62 -1552.86c-3645.48,-1381.58 -7310.29,-2610.58 -11018.9,-3481.81 -3346.09,-786.09 -6720.98,-1280.41 -10138.83,-1331.41 -416.59,1015.57 -780.34,2127.78 -1035.93,3290.37 -207.88,946.89 -345.65,1922.98 -384.1,2901.33 13848.67,4417.39 21331.07,8317.63 28830.74,12227.55 1936.76,1009.61 3875.78,2020.65 5783.13,2972.07 6236.53,-2342.45 12300.34,-5189.91 18179.7,-8571.58 5727,-3293.87 11297.1,-7101.99 16701.07,-11451.94l-21270.21 -36840.97c-2669.6,203.77 -5246.25,578.42 -7738.6,1105.02z"/>
  </g>
 </g>
</svg>
