<?xml version="1.0" encoding="UTF-8"?>
<!DOCTYPE svg PUBLIC "-//W3C//DTD SVG 1.1//EN" "http://www.w3.org/Graphics/SVG/1.1/DTD/svg11.dtd">
<!-- Creator: CorelDRAW 2019 (64-Bit) -->
<svg xmlns="http://www.w3.org/2000/svg" xml:space="preserve" width="54.9999mm" height="54.9999mm" version="1.1" style="shape-rendering:geometricPrecision; text-rendering:geometricPrecision; image-rendering:optimizeQuality; fill-rule:evenodd; clip-rule:evenodd"
viewBox="0 0 572.71 572.71"
 xmlns:xlink="http://www.w3.org/1999/xlink">
 <defs>
  <style type="text/css">
   <![CDATA[
    .fil0 {fill:none}
    .fil1 {fill:white;fill-rule:nonzero}
   ]]>
  </style>
 </defs>
 <g id="Warstwa_x0020_1">
  <metadata id="CorelCorpID_0Corel-Layer"/>
  <g id="_1514782117344">
   <g>
    <rect class="fil0" x="-0" y="-0" width="572.71" height="572.71"/>
   </g>
   <path class="fil1" d="M295.75 124.37c23.13,23.13 34.7,53.45 34.7,83.77 0,23.54 -6.97,47.08 -20.92,67.25l28.24 28.47 9.25 -9.25 5.61 5.61 127.75 127.75 -1.63 4.69c-4.27,12.3 -10.55,22.65 -18.88,31 -8.37,8.39 -18.71,14.72 -31.06,18.94l-4.67 1.6 -133.36 -133.36 9.3 -9.3 -29.93 -30.18c-18,10.15 -38.09,15.24 -58.17,15.24 -30.32,0 -60.64,-11.57 -83.77,-34.7 -23.13,-23.13 -34.7,-53.45 -34.7,-83.77 0,-30.32 11.57,-60.64 34.7,-83.77 23.13,-23.13 53.45,-34.7 83.77,-34.7 30.32,0 60.64,11.57 83.77,34.7zm-129 17.27c8.15,-5.67 17.23,-9.73 26.75,-12.07 9.48,-2.33 19.41,-2.93 29.3,-1.67 22.05,2.79 40.88,14.26 53.5,30.54 12.61,16.26 19.01,37.35 16.22,59.4 -2.79,22.05 -14.26,40.88 -30.54,53.5 -16.26,12.61 -37.35,19.01 -59.4,16.22 -9.49,-1.2 -18.58,-4.06 -26.9,-8.36 -8.32,-4.31 -15.91,-10.1 -22.37,-17.17l11.65 -10.66c5.15,5.63 11.25,10.28 17.97,13.76 6.73,3.49 14.05,5.79 21.63,6.75 17.71,2.24 34.66,-2.91 47.75,-13.06 13.07,-10.13 22.28,-25.26 24.52,-42.97 2.24,-17.71 -2.91,-34.66 -13.06,-47.75 -10.13,-13.07 -25.26,-22.28 -42.97,-24.52 -7.91,-1 -15.88,-0.51 -23.53,1.36 -7.61,1.87 -14.9,5.14 -21.48,9.71l-9.05 -13.02zm159.82 173.41l-26.97 -27.19c-1.25,1.37 -2.53,2.72 -3.86,4.05 -3.85,3.85 -7.9,7.38 -12.11,10.58l27.64 27.87 15.31 -15.31zm135.48 117.05l-115.04 -115.05 -33.79 33.79 115.04 115.05c8,-3.32 14.79,-7.78 20.37,-13.38 5.61,-5.62 10.08,-12.43 13.41,-20.41zm-147.48 -223.97c0,-26.26 -10.02,-52.52 -30.05,-72.55 -20.03,-20.03 -46.29,-30.05 -72.55,-30.05 -26.26,0 -52.51,10.02 -72.55,30.05 -20.03,20.03 -30.05,46.29 -30.05,72.55 0,26.26 10.02,52.51 30.05,72.55 20.03,20.03 46.29,30.05 72.55,30.05 26.26,0 52.51,-10.02 72.55,-30.05 20.03,-20.03 30.05,-46.29 30.05,-72.55z"/>
  </g>
 </g>
</svg>
