<?xml version="1.0" encoding="UTF-8"?>
<!DOCTYPE svg PUBLIC "-//W3C//DTD SVG 1.1//EN" "http://www.w3.org/Graphics/SVG/1.1/DTD/svg11.dtd">
<!-- Creator: CorelDRAW 2019 (64-Bit) -->
<svg xmlns="http://www.w3.org/2000/svg" xml:space="preserve" width="54.9999mm" height="54.9999mm" version="1.1" style="shape-rendering:geometricPrecision; text-rendering:geometricPrecision; image-rendering:optimizeQuality; fill-rule:evenodd; clip-rule:evenodd"
viewBox="0 0 441.7 441.7"
 xmlns:xlink="http://www.w3.org/1999/xlink">
 <defs>
  <style type="text/css">
   <![CDATA[
    .fil0 {fill:none}
    .fil1 {fill:white;fill-rule:nonzero}
   ]]>
  </style>
 </defs>
 <g id="Warstwa_x0020_1">
  <metadata id="CorelCorpID_0Corel-Layer"/>
  <g id="_1514725285088">
   <g>
    <rect class="fil0" x="-0" y="-0" width="441.7" height="441.7"/>
   </g>
   <path class="fil1" d="M220.85 57.19c9.24,0 17.61,3.75 23.66,9.8 6.06,6.06 9.8,14.42 9.8,23.66 0,9.24 -3.75,17.61 -9.8,23.66 -6.06,6.06 -14.42,9.8 -23.66,9.8 -9.24,0 -17.61,-3.75 -23.66,-9.8 -6.06,-6.06 -9.8,-14.42 -9.8,-23.66 0,-9.24 3.75,-17.61 9.8,-23.66 6.06,-6.06 14.42,-9.8 23.66,-9.8zm63.88 87.85c2.01,20.18 2.98,40.13 2.97,59.84 -0.01,19.72 -1.01,39.15 -2.93,58.29l-0.55 5.52 -17.93 0c-1.77,18.34 -4.34,37.93 -7.52,56.87 -3.28,19.53 -7.23,38.36 -11.64,54.43l-1.24 4.52 -50.08 0 -1.24 -4.52c-4.41,-16.06 -8.36,-34.9 -11.64,-54.43 -3.18,-18.94 -5.76,-38.53 -7.52,-56.87l-17.92 0 -0.55 -5.52c-1.92,-19.14 -2.92,-38.56 -2.93,-58.29 -0.01,-19.72 0.96,-39.66 2.97,-59.84l0.42 -4.23 4.12 -1.08c18.88,-4.93 39.14,-7.4 59.34,-7.4 20.2,0 40.46,2.47 59.34,7.4l4.12 1.08 0.42 4.23zm-9.22 59.84c0.01,-17.87 -0.81,-35.99 -2.51,-54.37 -16.61,-3.96 -34.35,-5.93 -52.15,-5.93 -17.8,0 -35.54,1.98 -52.15,5.93 -1.7,18.39 -2.52,36.51 -2.51,54.37 0.01,17.36 0.81,34.55 2.36,51.57l18.04 0 0.5 5.59c1.75,19.79 4.47,41.12 7.9,61.51 2.93,17.44 6.37,34.19 10.15,48.72l31.46 0c3.78,-14.52 7.22,-31.28 10.15,-48.72 3.43,-20.39 6.14,-41.72 7.9,-61.51l0.5 -5.59 18.04 0c1.55,-17.02 2.35,-34.21 2.36,-51.57zm-39.65 -129.24c-3.84,-3.84 -9.15,-6.22 -15.01,-6.22 -5.86,0 -11.17,2.38 -15.01,6.22 -3.84,3.84 -6.22,9.15 -6.22,15.01 0,5.86 2.38,11.17 6.22,15.01 3.84,3.84 9.15,6.22 15.01,6.22 5.86,0 11.17,-2.38 15.01,-6.22 3.84,-3.84 6.22,-9.15 6.22,-15.01 0,-5.86 -2.38,-11.17 -6.22,-15.01z"/>
  </g>
 </g>
</svg>
