<?xml version="1.0" encoding="UTF-8"?>
<!DOCTYPE svg PUBLIC "-//W3C//DTD SVG 1.1//EN" "http://www.w3.org/Graphics/SVG/1.1/DTD/svg11.dtd">
<!-- Creator: CorelDRAW 2019 (64-Bit) -->
<svg xmlns="http://www.w3.org/2000/svg" xml:space="preserve" width="54.9999mm" height="54.9999mm" version="1.1" style="shape-rendering:geometricPrecision; text-rendering:geometricPrecision; image-rendering:optimizeQuality; fill-rule:evenodd; clip-rule:evenodd"
viewBox="0 0 720.1 720.1"
 xmlns:xlink="http://www.w3.org/1999/xlink">
 <defs>
  <style type="text/css">
   <![CDATA[
    .fil0 {fill:none}
    .fil1 {fill:white;fill-rule:nonzero}
   ]]>
  </style>
 </defs>
 <g id="Warstwa_x0020_1">
  <metadata id="CorelCorpID_0Corel-Layer"/>
  <g id="_1514728643072">
   <g>
    <rect class="fil0" x="-0" y="-0" width="720.1" height="720.1"/>
   </g>
   <path class="fil1" d="M138.22 169.94c42.99,-22.06 86.83,-41.43 131.59,-57.83 44.96,-16.47 90.98,-30.02 138.14,-40.36l8.47 -1.86 173.07 475.49 -7.68 4.05c-44.32,23.38 -89,43.13 -134.01,59.45 -45.02,16.31 -90.33,29.18 -135.92,38.79l-8.42 1.78 -173.06 -475.48 7.82 -4.01zm151.35 383.18c43.22,-10.17 85.61,-22.65 127.09,-37.65 41.52,-15.01 82.07,-32.53 121.56,-52.78l-114.77 -315.32c-43.33,9.89 -85.65,22.53 -127.04,37.69 -41.53,15.21 -82.02,32.9 -121.58,52.84l114.73 315.22zm255.5 -71.61c-39.63,20.2 -80.2,37.69 -121.63,52.66 -41.46,14.99 -83.83,27.5 -127.02,37.76l19.81 54.43c41.85,-9.2 83.45,-21.21 124.79,-36.19 41.51,-15.04 82.79,-33.1 123.82,-54.34l-19.77 -54.32zm-377.07 -262.41c39.77,-19.96 80.27,-37.62 121.56,-52.74 41.42,-15.18 83.74,-27.87 127.03,-37.86l-12.88 -35.38c-43.33,9.88 -85.65,22.53 -127.04,37.69 -41.53,15.21 -82.02,32.9 -121.58,52.84l12.9 35.45zm302.97 337.5c-11.64,4.92 -23.2,9.48 -34.65,13.66 -11.56,4.22 -23.17,8.13 -34.82,11.72l-5.84 -19.02c11.3,-3.49 22.6,-7.29 33.89,-11.41 11.39,-4.16 22.63,-8.58 33.72,-13.27l7.72 18.31z"/>
  </g>
 </g>
</svg>
