<?xml version="1.0" encoding="UTF-8"?>
<!DOCTYPE svg PUBLIC "-//W3C//DTD SVG 1.1//EN" "http://www.w3.org/Graphics/SVG/1.1/DTD/svg11.dtd">
<!-- Creator: CorelDRAW 2019 (64-Bit) -->
<svg xmlns="http://www.w3.org/2000/svg" xml:space="preserve" width="54.9999mm" height="54.9999mm" version="1.1" style="shape-rendering:geometricPrecision; text-rendering:geometricPrecision; image-rendering:optimizeQuality; fill-rule:evenodd; clip-rule:evenodd"
viewBox="0 0 314.86 314.86"
 xmlns:xlink="http://www.w3.org/1999/xlink">
 <defs>
  <style type="text/css">
   <![CDATA[
    .fil0 {fill:none}
    .fil1 {fill:white;fill-rule:nonzero}
   ]]>
  </style>
 </defs>
 <g id="Warstwa_x0020_1">
  <metadata id="CorelCorpID_0Corel-Layer"/>
  <g id="_1890957179264">
   <g>
    <rect class="fil0" x="-0" y="-0" width="314.86" height="314.86"/>
   </g>
   <path class="fil1" d="M207.24 121.24l0 82.92 -8.72 0 0 -82.92 -19.63 19.63 -6.17 -6.17 30.16 -30.16 30.16 30.16 -6.17 6.17 -19.63 -19.63zm36.72 -54.11l-82.16 0 0 180.61 82.16 0 0 -180.61zm-82.16 -8.72l90.88 0 0 198.06 -90.88 0 -8.72 0 -90.88 0 0 -198.06 4.36 0 86.52 0 4.36 0 4.36 0zm-8.72 8.72l-82.16 0 0 180.61 82.16 0 0 -180.61zm-10.92 113.04l-30.16 30.16 -30.16 -30.16 6.17 -6.17 19.63 19.63 0 -82.92 8.72 0 0 82.92 19.63 -19.63 6.17 6.17z"/>
  </g>
 </g>
</svg>
