<?xml version="1.0" encoding="UTF-8"?>
<!DOCTYPE svg PUBLIC "-//W3C//DTD SVG 1.1//EN" "http://www.w3.org/Graphics/SVG/1.1/DTD/svg11.dtd">
<!-- Creator: CorelDRAW 2019 (64-Bit) -->
<svg xmlns="http://www.w3.org/2000/svg" xml:space="preserve" width="54.9999mm" height="54.9999mm" version="1.1" style="shape-rendering:geometricPrecision; text-rendering:geometricPrecision; image-rendering:optimizeQuality; fill-rule:evenodd; clip-rule:evenodd"
viewBox="0 0 546.59 546.59"
 xmlns:xlink="http://www.w3.org/1999/xlink">
 <defs>
  <style type="text/css">
   <![CDATA[
    .fil0 {fill:none}
    .fil1 {fill:white;fill-rule:nonzero}
   ]]>
  </style>
 </defs>
 <g id="Warstwa_x0020_1">
  <metadata id="CorelCorpID_0Corel-Layer"/>
  <g id="_1514787437664">
   <rect class="fil0" x="-0" y="-0" width="546.59" height="546.59"/>
   <path class="fil1" d="M258.79 154.3c4.32,0.35 8.4,0.86 12.23,1.49 4.11,0.67 7.79,1.46 11.05,2.32l5.37 1.42 0.25 5.56c1.14,25.73 7.97,51.3 15.08,77.94 8.81,33.01 18.05,67.62 18.05,107.32l0 5.66 -48.54 14.01c-0.63,9.08 -1.83,20.09 -3.29,31.28 -2.06,15.83 -4.63,31.98 -6.82,43.45l-1.18 6.18 -37.42 0 -1.18 -6.18c-2.19,-11.48 -4.76,-27.62 -6.82,-43.45 -1.46,-11.19 -2.66,-22.21 -3.29,-31.29l-48.54 -14.01 0 -5.66c0,-39.69 9.24,-74.3 18.05,-107.32 7.11,-26.64 13.94,-52.21 15.08,-77.94l0.25 -5.56 5.37 -1.42c3.26,-0.86 6.94,-1.65 11.05,-2.32 3.84,-0.62 7.92,-1.13 12.23,-1.49l4.49 -0.37 2.46 3.86c1.16,1.82 2.86,3.68 5.02,5.43 1.35,1.09 2.87,2.12 4.54,3.05 1.67,-0.93 3.19,-1.96 4.54,-3.05 2.16,-1.75 3.86,-3.61 5.02,-5.43l2.46 -3.86 4.49 0.37zm-142.77 296.64l-18.76 0 -1.71 -5.21c-7.17,-21.8 -13.67,-49.13 -17.36,-78.47 -3.11,-24.71 -4.22,-50.74 -2.06,-75.93l0.44 -5.1 4.92 -1.49c5.54,-1.68 11.21,-2.93 16.91,-3.76 5.87,-0.85 11.78,-1.27 17.63,-1.27 11.71,0 23.51,1.68 34.55,5.03l4.92 1.49 0.44 5.1c2.16,25.19 1.05,51.21 -2.06,75.93 -3.69,29.34 -10.19,56.67 -17.36,78.47l-1.71 5.21 -18.76 0zm-7.77 -15.15l15.54 0c6.28,-20.19 11.85,-44.54 15.1,-70.36 2.76,-21.92 3.86,-44.99 2.34,-67.61 -8.07,-1.97 -16.61,-2.96 -25.21,-2.96 -5.26,0 -10.46,0.36 -15.51,1.09 -3.31,0.48 -6.56,1.1 -9.71,1.87 -1.52,22.62 -0.42,45.69 2.34,67.61 3.25,25.82 8.82,50.17 15.1,70.36zm7.77 -234.7c9.56,0 18.22,3.88 24.49,10.14 6.27,6.27 10.14,14.93 10.14,24.49 0,9.56 -3.88,18.22 -10.14,24.49 -6.27,6.27 -14.93,10.14 -24.49,10.14 -9.56,0 -18.22,-3.88 -24.49,-10.14 -6.27,-6.27 -10.14,-14.92 -10.14,-24.49 0,-9.56 3.88,-18.22 10.14,-24.49 6.27,-6.27 14.93,-10.14 24.49,-10.14zm13.78 20.85c-3.52,-3.52 -8.4,-5.71 -13.78,-5.71 -5.38,0 -10.26,2.18 -13.78,5.71 -3.52,3.52 -5.71,8.4 -5.71,13.78 0,5.38 2.18,10.25 5.71,13.78 3.52,3.52 8.4,5.71 13.78,5.71 5.38,0 10.26,-2.18 13.78,-5.71 3.52,-3.52 5.71,-8.4 5.71,-13.78 0,-5.38 -2.18,-10.26 -5.71,-13.78zm345.29 -53.24c2.37,23.76 3.51,47.25 3.5,70.47 -0.01,23.23 -1.19,46.1 -3.45,68.63l-0.69 6.83 -21.1 0c-2.08,21.49 -5.1,44.43 -8.83,66.63 -3.86,22.99 -8.51,45.17 -13.71,64.09l-1.53 5.59 -59.51 0 -1.53 -5.59c-5.19,-18.92 -9.84,-41.11 -13.71,-64.1 -3.73,-22.19 -6.75,-45.13 -8.82,-66.62l-21.09 0 -0.69 -6.83c-2.26,-22.53 -3.44,-45.4 -3.45,-68.63 -0.01,-23.22 1.13,-46.7 3.5,-70.47l0.52 -5.24 5.1 -1.33c22.25,-5.81 46.13,-8.72 69.93,-8.72 23.8,0 47.68,2.91 69.93,8.72l5.1 1.33 0.52 5.24zm-11.59 70.47c0.01,-20.93 -0.95,-42.15 -2.93,-63.69 -19.44,-4.61 -40.21,-6.91 -61.03,-6.91 -20.83,0 -41.59,2.3 -61.03,6.91 -1.98,21.54 -2.94,42.77 -2.93,63.69 0.01,20.3 0.94,40.41 2.74,60.32l21.24 0 0.61 6.92c2.06,23.28 5.26,48.38 9.29,72.36 3.43,20.4 7.45,40.01 11.86,57.03l36.45 0c4.42,-17.01 8.43,-36.62 11.86,-57.02 4.03,-23.98 7.23,-49.08 9.29,-72.37l0.61 -6.92 21.24 0c1.8,-19.91 2.73,-40.02 2.74,-60.32zm-63.97 -174.2c10.98,0 20.92,4.45 28.11,11.65 7.19,7.19 11.65,17.14 11.65,28.11 0,10.98 -4.45,20.92 -11.65,28.11 -7.2,7.19 -17.14,11.65 -28.11,11.65 -10.98,0 -20.92,-4.45 -28.11,-11.65 -7.19,-7.2 -11.65,-17.14 -11.65,-28.11 0,-10.98 4.45,-20.92 11.65,-28.11 7.19,-7.19 17.14,-11.65 28.11,-11.65zm17.4 22.35c-4.45,-4.45 -10.61,-7.21 -17.4,-7.21 -6.8,0 -12.95,2.75 -17.4,7.21 -4.45,4.45 -7.21,10.61 -7.21,17.4 0,6.8 2.76,12.95 7.21,17.4 4.45,4.45 10.61,7.21 17.4,7.21 6.8,0 12.95,-2.76 17.4,-7.21 4.45,-4.45 7.21,-10.61 7.21,-17.4 0,-6.8 -2.75,-12.95 -7.21,-17.4zm-174.66 -22.35c10.98,0 20.92,4.45 28.11,11.65 7.19,7.19 11.65,17.14 11.65,28.11 0,10.98 -4.45,20.92 -11.65,28.11 -7.2,7.19 -17.14,11.65 -28.11,11.65 -10.98,0 -20.92,-4.45 -28.11,-11.65 -7.19,-7.2 -11.65,-17.14 -11.65,-28.11 0,-10.98 4.45,-20.92 11.65,-28.11 7.19,-7.19 17.14,-11.65 28.11,-11.65zm17.4 22.35c-4.45,-4.45 -10.61,-7.21 -17.4,-7.21 -6.8,0 -12.95,2.75 -17.4,7.21 -4.45,4.45 -7.21,10.61 -7.21,17.4 0,6.8 2.76,12.95 7.21,17.4 4.45,4.45 10.61,7.21 17.4,7.21 6.8,0 12.95,-2.76 17.4,-7.21 4.45,-4.45 7.21,-10.61 7.21,-17.4 0,-6.8 -2.75,-12.95 -7.21,-17.4zm8.92 83.38c-2.12,-0.34 -4.42,-0.66 -6.92,-0.92 -1.56,1.82 -3.37,3.58 -5.39,5.22 -3.11,2.51 -6.81,4.79 -10.99,6.62l-3.02 1.32 -3.02 -1.32c-4.18,-1.83 -7.87,-4.11 -10.99,-6.62 -2.03,-1.64 -3.84,-3.4 -5.39,-5.22 -2.5,0.27 -4.8,0.58 -6.92,0.93 -1.51,0.25 -2.96,0.51 -4.35,0.8 -1.86,25.44 -8.41,49.97 -15.21,75.45 -8.12,30.44 -16.62,62.27 -17.45,97.77l47.85 13.81 0.25 5.41c0.44,9.47 1.78,22.3 3.49,35.42 1.66,12.77 3.69,25.85 5.57,36.44l12.35 0c1.88,-10.59 3.9,-23.67 5.57,-36.44 1.71,-13.12 3.05,-25.94 3.49,-35.42l0.25 -5.41 47.85 -13.81c-0.83,-35.5 -9.33,-67.33 -17.45,-97.77 -6.8,-25.48 -13.35,-50.01 -15.21,-75.45 -1.39,-0.28 -2.84,-0.55 -4.35,-0.8z"/>
  </g>
 </g>
</svg>
