<?xml version="1.0" encoding="UTF-8"?>
<!DOCTYPE svg PUBLIC "-//W3C//DTD SVG 1.1//EN" "http://www.w3.org/Graphics/SVG/1.1/DTD/svg11.dtd">
<!-- Creator: CorelDRAW 2019 (64-Bit) -->
<svg xmlns="http://www.w3.org/2000/svg" xml:space="preserve" width="54.9999mm" height="54.9999mm" version="1.1" style="shape-rendering:geometricPrecision; text-rendering:geometricPrecision; image-rendering:optimizeQuality; fill-rule:evenodd; clip-rule:evenodd"
viewBox="0 0 113092.16 113092.16"
 xmlns:xlink="http://www.w3.org/1999/xlink">
 <defs>
  <style type="text/css">
   <![CDATA[
    .fil0 {fill:none}
    .fil1 {fill:white;fill-rule:nonzero}
   ]]>
  </style>
 </defs>
 <g id="Warstwa_x0020_1">
  <metadata id="CorelCorpID_0Corel-Layer"/>
  <g id="_1514784455152">
   <g>
    <rect class="fil0" x="-0.11" y="-0.12" width="113092.18" height="113092.18"/>
   </g>
   <path class="fil1" d="M62254.06 47084.05c-1100.9,1907.15 -2669.39,3448.49 -4512.59,4512.59 -366.01,211.38 -742.71,403.84 -1128.46,576.77l0 4458.92c3740.89,-95.2 7491.44,139.21 11244.26,820.43 686.98,124.61 1373.56,264.02 2059.31,419.06 2001.12,-2165.41 3587.29,-4652.21 4705.67,-7333.73 1256.15,-3011.75 1921.13,-6274.57 1921.13,-9610.18 0,-6892.26 -2793.38,-13131.87 -7309.67,-17648.17 -4516.29,-4516.29 -10755.91,-7309.67 -17648.17,-7309.67 -6892.26,0 -13131.87,2793.38 -17648.17,7309.67 -4516.29,4516.29 -7309.88,10755.91 -7309.88,17648.17 0,6227.28 2291.66,11976.28 6123.03,16382.56 3371.8,3877.63 7938.47,6718.1 13186.16,7932.5l0 -6208.15 6.17 0 -0.21 -7148.05c-1138.74,-587.46 -2173.84,-1347.03 -3071.38,-2244.57 -2230.18,-2230.18 -3609.91,-5311.43 -3609.91,-8714.28 0,-3402.85 1379.73,-6484.1 3609.91,-8714.28 2230.18,-2230.18 5311.43,-3609.91 8714.28,-3609.91 3402.85,0 6484.1,1379.73 8714.28,3609.91 2230.18,2230.18 3609.91,5311.43 3609.91,8714.28 0,1076.23 -142.91,2148.14 -421.73,3187.97 -274.51,1024.82 -688.42,2023.12 -1233.94,2968.16zm11455.43 15097.21l0 8743.48 -3133.69 0 0 -9680.71c-1089.8,-282.53 -2179.6,-521.05 -3269.19,-718.86 -713.51,-129.54 -1427.64,-241.61 -2142.38,-337.63l0 10737.19 -3133.69 0 0 -11056.11c-1801.25,-126.66 -3605.8,-158.74 -5411.78,-110.42l0 11166.53 -3133.69 0 0 -12418.57 6.58 0 -0.21 -19909.4c-517.76,184.44 -1021.74,432.63 -1511.12,736.95 -1034.28,643.19 -2008.31,1533.33 -2916.55,2600.51l0.41 17100.59 6.17 0 0 25297.32 -2778.58 -3402.02c-1868.08,-2287.14 -3807.72,-4481.95 -5911.65,-6459.22 -1823.25,-1713.04 -3771.53,-3260.97 -5907.12,-4559.88 -573.07,459.57 -1147.37,987.4 -1686.72,1578.15 -421.53,461.83 -816.32,956.14 -1165.26,1477.81 7329.82,8081.37 10768.04,13484.52 14214.06,18901.02 833.59,1309.82 1667.6,2620.86 2592.28,4020.13 4941.52,810.56 9955.83,1231.88 15045.6,1240.11 4910.06,8.02 9912.85,-366.01 15012.09,-1142.03l0 -31869.22c-1590.7,-752.99 -3182.83,-1394.74 -4775.58,-1935.73zm-17096.69 -13551.34c1188.7,-775.61 2202.01,-1828.81 2936.08,-3100.38 398.5,-690.27 705.9,-1437.92 915.64,-2221.34 205.83,-768.21 311.52,-1568.49 311.52,-2380.29 0,-2538.2 -1028.73,-4836.04 -2691.6,-6498.9 -1662.87,-1662.87 -3960.7,-2691.6 -6498.9,-2691.6 -2538.2,0 -4836.04,1028.73 -6498.9,2691.6 -1662.87,1662.87 -2691.6,3960.7 -2691.6,6498.9 0,2538.2 1028.73,4836.04 2691.6,6498.9 269.16,269.16 554.98,521.66 855.8,755.87l-0.21 -7364.57 342.98 -427.28c1218.93,-1518.93 2566.79,-2795.64 4042.74,-3713.34 1423.32,-884.79 2959.73,-1438.12 4607.79,-1561.91l1676.85 -126.05 0.21 13640.38zm16672.08 10131.64c2498.93,758.34 4988.4,1738.74 7464.71,2974.95l869.17 434.07 0 36473.93 -1315.98 217.34c-5707.87,942.98 -11316.43,1396.59 -16829.79,1387.75 -5527.95,-8.84 -10937.27,-480.75 -16232.66,-1387.75l-660.67 -113.09 -373.62 -560.12c-1030.99,-1544.84 -2017.36,-3095.44 -3002.5,-4643.57 -3482.42,-5473.67 -6956.21,-10933.56 -14666.85,-19318.03l-743.12 -807.89 510.56 -973.01c599.39,-1142.23 1350.94,-2166.03 2168.91,-3062.13 941.75,-1031.4 1991.04,-1915.37 3003.94,-2624.77l806.45 -564.84 851.89 479.31c2713.81,1527.16 5141.8,3410.87 7386.99,5520.55 1183.77,1112.42 2316.75,2289.2 3414.36,3510.18l0 -7262.79c-6201.57,-1269.92 -11600.81,-4546.93 -15548.35,-9086.87 -4314.17,-4961.46 -6894.52,-11428.09 -6894.52,-18426.86 0,-7756.9 3144.58,-14779.94 8228.19,-19863.54 5083.6,-5083.6 12106.64,-8227.98 19863.54,-8227.98 7756.9,0 14779.94,3144.38 19863.54,8227.98 5083.6,5083.6 8227.98,12106.64 8227.98,19863.54 0,3743.36 -749.91,7413.72 -2166.23,10809.78 -1051.76,2521.55 -2471.79,4890.32 -4225.95,7023.86z"/>
  </g>
 </g>
</svg>
