<?xml version="1.0" encoding="UTF-8"?>
<!DOCTYPE svg PUBLIC "-//W3C//DTD SVG 1.1//EN" "http://www.w3.org/Graphics/SVG/1.1/DTD/svg11.dtd">
<!-- Creator: CorelDRAW 2019 (64-Bit) -->
<svg xmlns="http://www.w3.org/2000/svg" xml:space="preserve" width="54.9999mm" height="54.9999mm" version="1.1" style="shape-rendering:geometricPrecision; text-rendering:geometricPrecision; image-rendering:optimizeQuality; fill-rule:evenodd; clip-rule:evenodd"
viewBox="0 0 1042.17 1042.17"
 xmlns:xlink="http://www.w3.org/1999/xlink">
 <defs>
  <style type="text/css">
   <![CDATA[
    .fil0 {fill:none}
    .fil1 {fill:white;fill-rule:nonzero}
   ]]>
  </style>
 </defs>
 <g id="Warstwa_x0020_1">
  <metadata id="CorelCorpID_0Corel-Layer"/>
  <g id="_1514849900832">
   <g>
    <rect class="fil0" x="-0" y="-0" width="1042.17" height="1042.17"/>
   </g>
   <path class="fil1" d="M526.7 271.64c68.88,0 131.24,27.92 176.38,73.06 45.14,45.14 73.06,107.5 73.06,176.38 0,68.88 -27.92,131.24 -73.06,176.38 -45.14,45.14 -107.5,73.06 -176.38,73.06 -68.88,0 -131.24,-27.92 -176.38,-73.06 -45.14,-45.14 -73.06,-107.5 -73.06,-176.38 0,-68.88 27.92,-131.24 73.06,-176.38 45.14,-45.14 107.5,-73.06 176.38,-73.06zm-332.69 234.7l0 286.52 -28.88 0 0 -286.52c-14.22,-2.04 -29.93,-7.05 -52.91,-15.01l-9.48 -3.28 -0.22 -10.03c-0.69,-31.39 0.36,-68.39 2.27,-107.23 1.95,-39.65 4.69,-80.03 7.39,-118.33l28.76 2.03c-2.76,39.12 -5.54,79.98 -7.39,117.65 -1.69,34.34 -2.7,67.03 -2.43,95.28 21.89,7.4 35.53,11.11 48.45,11.11 12.92,0 26.56,-3.7 48.45,-11.11 0.28,-28.24 -0.74,-60.94 -2.43,-95.28 -1.85,-37.67 -4.63,-78.54 -7.39,-117.65l28.76 -2.03c2.7,38.3 5.44,78.68 7.39,118.33 1.91,38.84 2.96,75.84 2.27,107.23l-0.22 10.03 -9.48 3.28c-22.98,7.97 -38.69,12.97 -52.92,15.01zm0 -252.87l0 208.43 -28.88 0 0 -208.43 28.88 0zm649.24 256.8l-49.65 -36.82 0.88 -8.17c3.88,-35.91 10.84,-74.1 22.98,-112.26 12.23,-38.43 29.63,-76.63 54.33,-112.17l4.26 -6.13 32.12 -0.09 0 558.47 -28.88 0 0 -510.23c-14.73,25.57 -25.93,52.16 -34.41,78.83 -10.54,33.13 -16.96,66.57 -20.81,98.49l36.33 26.94 -17.14 23.12zm-193.76 59.81c3.07,-7.69 5.41,-15.76 7.01,-24.06 1.56,-8.11 2.35,-16.46 2.35,-24.93 0,-36.49 -14.79,-69.53 -38.7,-93.44 -23.91,-23.91 -56.95,-38.7 -93.44,-38.7 -36.49,0 -69.53,14.79 -93.44,38.7 -23.91,23.91 -38.7,56.95 -38.7,93.44 0,36.49 14.79,69.53 38.7,93.44 23.91,23.91 56.95,38.7 93.44,38.7 3.08,0 5.87,-0.08 8.34,-0.23 3.07,-0.19 5.84,-0.45 8.3,-0.76l3.61 28.54c-3.65,0.46 -7.03,0.79 -10.11,0.99 -3.67,0.23 -7.06,0.35 -10.15,0.35 -44.46,0 -84.72,-18.03 -113.86,-47.16 -29.14,-29.14 -47.16,-69.4 -47.16,-113.86 0,-44.46 18.03,-84.72 47.16,-113.86 29.14,-29.14 69.4,-47.16 113.86,-47.16 44.46,0 84.72,18.03 113.86,47.16 29.14,29.14 47.16,69.4 47.16,113.86 0,10.12 -0.98,20.29 -2.91,30.35 -1.9,9.87 -4.77,19.67 -8.59,29.25l-26.73 -10.6zm33.18 -204.96c-39.91,-39.91 -95.06,-64.6 -155.97,-64.6 -60.91,0 -116.05,24.69 -155.97,64.6 -39.91,39.91 -64.6,95.06 -64.6,155.97 0,60.91 24.69,116.05 64.6,155.97 39.91,39.91 95.06,64.6 155.97,64.6 60.91,0 116.06,-24.69 155.97,-64.6 39.91,-39.91 64.6,-95.06 64.6,-155.97 0,-60.91 -24.69,-116.05 -64.6,-155.97z"/>
  </g>
 </g>
</svg>
