<?xml version="1.0" encoding="UTF-8"?>
<!DOCTYPE svg PUBLIC "-//W3C//DTD SVG 1.1//EN" "http://www.w3.org/Graphics/SVG/1.1/DTD/svg11.dtd">
<!-- Creator: CorelDRAW 2019 (64-Bit) -->
<svg xmlns="http://www.w3.org/2000/svg" xml:space="preserve" width="54.9999mm" height="54.9999mm" version="1.1" style="shape-rendering:geometricPrecision; text-rendering:geometricPrecision; image-rendering:optimizeQuality; fill-rule:evenodd; clip-rule:evenodd"
viewBox="0 0 378.94 378.94"
 xmlns:xlink="http://www.w3.org/1999/xlink">
 <defs>
  <style type="text/css">
   <![CDATA[
    .fil0 {fill:none}
    .fil1 {fill:white;fill-rule:nonzero}
   ]]>
  </style>
 </defs>
 <g id="Warstwa_x0020_1">
  <metadata id="CorelCorpID_0Corel-Layer"/>
  <g id="_1514933802352">
   <rect class="fil0" x="-0" y="-0" width="378.94" height="378.94"/>
   <path class="fil1" d="M105.68 126.99l86.99 0 -0.42 -5.71 -86.69 0 -0.42 5.71 0.53 0zm-15.54 154.39l19.05 -19.05 -8.4 -124.84 -6.92 0 1.95 -26.71 47.84 0 0 -19.12 18.48 -15.72 6.77 8 -14.75 12.54 0 14.3 47.84 0 1.95 26.71 -5.64 0 -1.28 0 -1.08 16.11 21.97 0 63.47 -63.47c-24.14,-22.34 -56.43,-36 -91.91,-36 -37.37,0 -71.2,15.15 -95.69,39.64 -24.49,24.49 -39.64,58.32 -39.64,95.69 0,35.48 13.66,67.78 36,91.91zm28.89 -28.89l33.47 -33.47c-0.34,-0.96 -0.66,-1.94 -0.95,-2.94 -0.32,-1.09 -0.6,-2.19 -0.86,-3.31 -5.13,-0.96 -8.51,-4.4 -10.14,-8.63 -0.71,-1.84 -1.07,-3.8 -1.07,-5.71 0,-1.91 0.36,-3.87 1.07,-5.71 1.63,-4.22 5.02,-7.67 10.14,-8.63 0.26,-1.12 0.54,-2.22 0.86,-3.31 4.46,-15.26 14.88,-27.19 31.34,-27.19l2.56 0 1.08 -16.11 -75.24 0 7.74 115zm49.95 -49.95l8.21 -8.21 -23.54 0c-1.77,0 -2.88,0.95 -3.35,2.17 -0.22,0.57 -0.33,1.24 -0.33,1.94 0,0.7 0.11,1.37 0.33,1.94 0.47,1.22 1.58,2.17 3.35,2.17l15.32 0zm18.71 -18.71l19.73 -19.73 -24.54 0c-10.95,0 -18.07,8.6 -21.29,19.6l-0.04 0.13 26.13 0zm101.12 -86.27l-56.04 56.04 31.76 0c16.46,0 26.88,11.93 31.34,27.19 0.32,1.09 0.6,2.19 0.86,3.31 5.13,0.96 8.51,4.4 10.14,8.63 0.71,1.84 1.07,3.8 1.07,5.71 0,1.91 -0.36,3.87 -1.07,5.71 -1.63,4.22 -5.02,7.67 -10.14,8.63 -0.26,1.12 -0.54,2.22 -0.86,3.31 -4.46,15.26 -14.88,27.19 -31.34,27.19l-74.62 0 -2.14 31.8 -76.48 0 -13.73 13.73c24.13,22.34 56.43,36 91.91,36 37.37,0 71.2,-15.15 95.69,-39.64 24.49,-24.49 39.64,-58.32 39.64,-95.69 0,-35.48 -13.66,-67.78 -36,-91.91zm-66.54 66.54l-19.73 19.73 83.31 0 -0.04 -0.13c-3.21,-11 -10.34,-19.6 -21.29,-19.6l-42.26 0zm-30.23 30.23l-8.21 8.21 109.93 0c1.77,0 2.88,-0.95 3.35,-2.17 0.22,-0.57 0.33,-1.24 0.33,-1.94 0,-0.7 -0.11,-1.37 -0.33,-1.94 -0.47,-1.22 -1.58,-2.17 -3.35,-2.17l-101.72 0zm-18.71 18.71l-8.32 8.32c3.88,6.8 9.85,11.41 17.87,11.41l81.64 0c10.95,0 18.07,-8.6 21.29,-19.6l0.04 -0.13 -112.53 0zm-15.95 15.95l-35.58 35.58 56.18 0 1.45 -21.49c-9.66,-1.04 -17,-6.42 -22.05,-14.09zm32.1 -185.36c40.27,0 76.73,16.32 103.12,42.71 26.39,26.39 42.71,62.85 42.71,103.12 0,40.27 -16.32,76.73 -42.71,103.12 -26.39,26.39 -62.85,42.71 -103.12,42.71 -40.27,0 -76.73,-16.32 -103.12,-42.71 -26.39,-26.39 -42.71,-62.85 -42.71,-103.12 0,-40.27 16.32,-76.73 42.71,-103.12 26.39,-26.39 62.85,-42.71 103.12,-42.71z"/>
  </g>
 </g>
</svg>
