<?xml version="1.0" encoding="UTF-8"?>
<!DOCTYPE svg PUBLIC "-//W3C//DTD SVG 1.1//EN" "http://www.w3.org/Graphics/SVG/1.1/DTD/svg11.dtd">
<!-- Creator: CorelDRAW 2019 (64-Bit) -->
<svg xmlns="http://www.w3.org/2000/svg" xml:space="preserve" width="54.9999mm" height="54.9999mm" version="1.1" style="shape-rendering:geometricPrecision; text-rendering:geometricPrecision; image-rendering:optimizeQuality; fill-rule:evenodd; clip-rule:evenodd"
viewBox="0 0 576.05 576.05"
 xmlns:xlink="http://www.w3.org/1999/xlink">
 <defs>
  <style type="text/css">
   <![CDATA[
    .fil0 {fill:none}
    .fil1 {fill:white;fill-rule:nonzero}
   ]]>
  </style>
 </defs>
 <g id="Warstwa_x0020_1">
  <metadata id="CorelCorpID_0Corel-Layer"/>
  <g id="_1514888719504">
   <rect class="fil0" x="-0" y="-0" width="576.05" height="576.05"/>
   <path class="fil1" d="M80.85 153.72l427.66 0 0 268.62 -440.96 0 0 -268.62 13.3 0zm48.03 177.35l56.1 0 0 26.6 -56.1 0 0 -26.6zm88.87 0l229.42 0 0 26.6 -229.42 0 0 -26.6zm-88.87 -56.35l222.55 0 0 26.6 -222.55 0 0 -26.6zm255.33 0l62.96 0 0 26.6 -62.96 0 0 -26.6zm-255.33 -56.35l58.25 0 0 26.6 -58.25 0 0 -26.6zm91.03 0l62.1 0 0 26.6 -62.1 0 0 -26.6zm94.87 0l132.39 0 0 26.6 -132.39 0 0 -26.6zm167.12 -38.06l-387.75 0 0 215.41 387.75 0 0 -215.41z"/>
  </g>
 </g>
</svg>
