<?xml version="1.0" encoding="utf-8"?>
<!-- Generator: Adobe Illustrator 19.0.0, SVG Export Plug-In . SVG Version: 6.00 Build 0)  -->
<svg version="1.1" id="Warstwa_1" xmlns="http://www.w3.org/2000/svg" xmlns:xlink="http://www.w3.org/1999/xlink" x="0px" y="0px"
	 viewBox="0 0 27.6 26.9" style="enable-background:new 0 0 27.6 26.9;" xml:space="preserve">
<style type="text/css">
	.st0{fill:#FFFFFF;}
</style>
<path id="XMLID_9_" class="st0" d="M13.4,9.3c0,0.7-0.2,1.4-0.5,2c-0.2,0.3-0.3,0.5-0.6,0.8l-0.5-0.8c0.1-0.1,0.2-0.2,0.3-0.4
	c0.3-0.5,0.4-1,0.4-1.6h0c0-0.3,0-0.5-0.1-0.8c-0.1-0.3-0.2-0.5-0.3-0.8c-0.4-0.8-1.1-1.3-1.9-1.5C9.4,6.1,8.5,6.2,7.8,6.6
	C7,7.1,6.5,7.7,6.3,8.5c-0.2,0.8-0.1,1.6,0.3,2.4c0.4,0.8,1.1,1.3,1.9,1.5c0.3,0.1,0.7,0.1,1,0.1l0.5,0.9c-0.6,0.1-1.2,0.1-1.8-0.1
	c-1-0.3-1.9-0.9-2.5-1.9c-0.6-1-0.7-2.1-0.4-3.1c0.3-1,0.9-1.9,1.9-2.5c1-0.6,2.1-0.7,3.1-0.4c1,0.3,1.9,0.9,2.5,1.9
	c0.2,0.3,0.3,0.6,0.4,1C13.3,8.6,13.4,9,13.4,9.3L13.4,9.3z"/>
<path id="XMLID_8_" class="st0" d="M12.8,18c-2.2,0.9-4.5,0.9-6.5,0.2c-2.1-0.7-3.9-2.1-5-4.2C0,11.8-0.3,9.2,0.3,6.9
	c0.6-2.3,2.1-4.4,4.4-5.7C6.9,0,9.4-0.3,11.8,0.3s4.4,2.1,5.7,4.4c0.6,1.1,1,2.3,1.2,3.5c0.2,1.2,0.1,2.5-0.3,3.7l-0.9-0.2
	c0.3-1.1,0.4-2.2,0.2-3.3c-0.1-1.1-0.5-2.2-1.1-3.1c-1.2-2-3-3.4-5.1-3.9C9.4,0.7,7.1,0.9,5.1,2c-2,1.2-3.4,3-3.9,5.1
	C0.7,9.2,0.9,11.5,2,13.5c1,1.8,2.7,3.1,4.6,3.8c1.9,0.6,3.9,0.6,5.9-0.2L12.8,18z"/>
<path id="XMLID_5_" class="st0" d="M17.2,12.3c-1.3,0.5-2.5,1.1-3.7,1.8l-0.4,0.3L9.5,8.2C9.4,8.4,9.2,8.6,9.1,8.8
	c-0.2,0.4-0.3,0.8-0.4,1.3l2.9,5l0,0l4.1,7.2l-1.2-0.5c-0.9-0.4-1.9-0.7-2.8-0.9c-0.8-0.2-1.7-0.3-2.5-0.3C9.1,20.8,9,21,8.9,21.3
	c0,0.2-0.1,0.5-0.1,0.7c3.5,1.1,5.4,2.1,7.3,3.1c0.5,0.2,0.9,0.5,1.5,0.7c1.6-0.6,3.1-1.3,4.6-2.2c1.4-0.8,2.8-1.8,4.2-2.9L21,11.5
	C19.7,11.6,18.4,11.9,17.2,12.3 M13.4,13.1c1.1-0.7,2.2-1.2,3.4-1.7c1.4-0.5,2.8-0.8,4.4-0.9l0.3,0L27.6,21l-0.3,0.2
	c-1.5,1.2-3,2.3-4.6,3.2c-1.6,0.9-3.2,1.7-4.9,2.3l-0.2,0.1l-0.2-0.1c-0.6-0.3-1.1-0.6-1.6-0.8c-1.9-1-3.9-2-7.5-3.1l-0.3-0.1l0-0.3
	c0-0.4,0-0.8,0.1-1.2c0.1-0.5,0.3-0.9,0.4-1.2l0.1-0.3l0.3,0c1,0,2.1,0.1,3,0.4c0.6,0.1,1.2,0.3,1.7,0.5l-2.9-5l0,0l-3-5.3l0-0.2
	C7.9,9.4,8,8.9,8.3,8.3c0.3-0.5,0.6-0.9,1.1-1.2l0.4-0.3L13.4,13.1z"/>
<rect id="XMLID_4_" x="12.2" y="15.2" transform="matrix(-0.5 -0.866 0.866 -0.5 7.9299 35.8817)" class="st0" width="4.2" height="0.9"/>
<rect id="XMLID_3_" x="14.7" y="13.8" transform="matrix(-0.5 -0.866 0.866 -0.5 12.8822 35.8815)" class="st0" width="4.2" height="0.9"/>
<rect id="XMLID_2_" x="17.6" y="12.6" transform="matrix(-0.5 -0.866 0.866 -0.5 17.835 36.4004)" class="st0" width="3.6" height="0.9"/>
</svg>
